<svg version="1.2" xmlns="http://www.w3.org/2000/svg" viewBox="0 0 1194 544" width="1194" height="544"><defs><clipPath clipPathUnits="userSpaceOnUse" id="cp1"><path d="m1193.26-219.69v763.38h-1192.52v-763.38z"/></clipPath><linearGradient id="P" gradientUnits="userSpaceOnUse"/><linearGradient id="g1" x2="1" href="#P" gradientTransform="matrix(0,-317.894,1287.366,0,550.408,552.699)"><stop offset=".21" stop-color="#77d3c4"/><stop offset="1" stop-color="#004d68"/></linearGradient><linearGradient id="g2" x2="1" href="#P" gradientTransform="matrix(1209.437,0,0,70.147,-75.169,343.185)"><stop offset=".21" stop-color="#77d3c4"/><stop offset="1" stop-color="#388c93"/></linearGradient><linearGradient id="g3" x2="1" href="#P" gradientTransform="matrix(1331.607,0,0,61.315,-112.679,422.308)"><stop offset=".42" stop-color="#84e2c4"/><stop offset="1" stop-color="#388c93"/></linearGradient><linearGradient id="g4" x2="1" href="#P" gradientTransform="matrix(836.522,0,0,25.176,-77.158,265.858)"><stop offset=".21" stop-color="#77d3c4"/><stop offset="1" stop-color="#388c93"/></linearGradient><linearGradient id="g5" x2="1" href="#P" gradientTransform="matrix(569.417,0,0,18.757,594.044,251.172)"><stop offset=".21" stop-color="#77d3c4"/><stop offset="1" stop-color="#388c93"/></linearGradient><linearGradient id="g6" x2="1" href="#P" gradientTransform="matrix(965.878,0,0,91.944,459.127,476.433)"><stop offset=".21" stop-color="#d9ffcc"/><stop offset="1" stop-color="#99f2ac"/></linearGradient><linearGradient id="g7" x2="1" href="#P" gradientTransform="matrix(0,-112.985,730.407,0,893.552,240.69)"><stop stop-color="#083a57"/><stop offset="1" stop-color="#141d3d"/></linearGradient><linearGradient id="g8" x2="1" href="#P" gradientTransform="matrix(0,53.857,-730.407,0,900.305,239.993)"><stop stop-color="#083a57" stop-opacity=".2"/><stop offset="1" stop-color="#131f3f" stop-opacity="1"/></linearGradient><linearGradient id="g9" x2="1" href="#P" gradientTransform="matrix(-188.378,-326.28,605.349,-349.499,339.145,452.958)"><stop stop-color="#083a57" stop-opacity=".2"/><stop offset="1" stop-color="#131f3f" stop-opacity="1"/></linearGradient><linearGradient id="g10" x2="1" href="#P" gradientTransform="matrix(102.381,-382.09,837.933,224.524,78.164,296.48)"><stop stop-color="#083a57"/><stop offset=".72" stop-color="#112343"/></linearGradient><linearGradient id="g11" x2="1" href="#P" gradientTransform="matrix(0,-63.249,19.852,0,97.497,235.876)"><stop offset=".1" stop-color="#083a57"/><stop offset="1" stop-color="#132447"/></linearGradient><linearGradient id="g12" x2="1" href="#P" gradientTransform="matrix(0,-117.183,36.78,0,-158.915,228.784)"><stop offset=".1" stop-color="#083a57"/><stop offset="1" stop-color="#132447"/></linearGradient><linearGradient id="g13" x2="1" href="#P" gradientTransform="matrix(0,-156.373,49.081,0,-183.37,241.688)"><stop offset=".1" stop-color="#083a57"/><stop offset="1" stop-color="#132447"/></linearGradient><linearGradient id="g14" x2="1" href="#P" gradientTransform="matrix(0,-42.278,13.27,0,267.359,236.821)"><stop offset=".1" stop-color="#083a57"/><stop offset="1" stop-color="#132447"/></linearGradient><linearGradient id="g15" x2="1" href="#P" gradientTransform="matrix(0,-30.28,9.504,0,264.924,238.598)"><stop offset=".1" stop-color="#083a57"/><stop offset="1" stop-color="#132447"/></linearGradient><linearGradient id="g16" x2="1" href="#P" gradientTransform="matrix(0,-72.696,24.949,0,37.902,240.6)"><stop offset=".1" stop-color="#083a57"/><stop offset="1" stop-color="#132447"/></linearGradient><linearGradient id="g17" x2="1" href="#P" gradientTransform="matrix(221.566,383.764,-522.923,301.91,1049.386,163.282)"><stop stop-color="#083a57" stop-opacity=".1"/><stop offset="1" stop-color="#131f3f" stop-opacity="1"/></linearGradient><linearGradient id="g18" x2="1" href="#P" gradientTransform="matrix(0,-44.021,14.032,0,806.823,288.058)"><stop stop-color="#083a57"/><stop offset=".66" stop-color="#141d3d"/></linearGradient><linearGradient id="g19" x2="1" href="#P" gradientTransform="matrix(0,-44.743,15.356,0,823.774,288.419)"><stop stop-color="#083a57"/><stop offset=".66" stop-color="#141d3d"/></linearGradient><linearGradient id="g20" x2="1" href="#P" gradientTransform="matrix(0,-193.383,551.317,0,1058.947,297.302)"><stop stop-color="#083a57"/><stop offset=".66" stop-color="#141633"/></linearGradient><linearGradient id="g21" x2="1" href="#P" gradientTransform="matrix(0,-25.261,8.669,0,814.437,289.735)"><stop stop-color="#083a57"/><stop offset=".66" stop-color="#141d3d"/></linearGradient><linearGradient id="g22" x2="1" href="#P" gradientTransform="matrix(0,-45.564,15.637,0,798.154,288.829)"><stop stop-color="#083a57"/><stop offset=".66" stop-color="#141d3d"/></linearGradient><linearGradient id="g23" x2="1" href="#P" gradientTransform="matrix(0,-14.642,5.64,0,816.257,288.419)"><stop stop-color="#083a57"/><stop offset=".66" stop-color="#141d3d"/></linearGradient><linearGradient id="g24" x2="1" href="#P" gradientTransform="matrix(0,-76.818,24.111,0,975.081,282.085)"><stop offset=".1" stop-color="#083a57"/><stop offset="1" stop-color="#132447"/></linearGradient><linearGradient id="g25" x2="1" href="#P" gradientTransform="matrix(0,-68.04,21.356,0,886.022,281.098)"><stop offset=".1" stop-color="#083a57"/><stop offset="1" stop-color="#132447"/></linearGradient><linearGradient id="g26" x2="1" href="#P" gradientTransform="matrix(0,-46.985,14.747,0,985.015,283.052)"><stop offset=".1" stop-color="#083a57"/><stop offset="1" stop-color="#132447"/></linearGradient><linearGradient id="g27" x2="1" href="#P" gradientTransform="matrix(0,-102.494,32.17,0,1009.314,277.285)"><stop offset=".1" stop-color="#083a57"/><stop offset="1" stop-color="#132447"/></linearGradient><linearGradient id="g28" x2="1" href="#P" gradientTransform="matrix(0,-110.069,37.775,0,980.921,281.098)"><stop offset=".1" stop-color="#083a57"/><stop offset="1" stop-color="#132447"/></linearGradient><linearGradient id="g29" x2="1" href="#P" gradientTransform="matrix(0,-48.849,174.806,0,298.422,422.308)"><stop stop-color="#3a8e95"/><stop offset="1" stop-color="#004d68"/></linearGradient><linearGradient id="g30" x2="1" href="#P" gradientTransform="matrix(0,-21.899,71.546,0,213.129,324.7)"><stop stop-color="#083a57" stop-opacity=".2"/><stop offset="1" stop-color="#131f3f" stop-opacity="1"/></linearGradient><linearGradient id="g31" x2="1" href="#P" gradientTransform="matrix(0,-35.021,101.192,0,1025.406,363.857)"><stop stop-color="#083a57" stop-opacity=".2"/><stop offset="1" stop-color="#131f3f" stop-opacity="1"/></linearGradient><linearGradient id="g32" x2="1" href="#P" gradientTransform="matrix(272.263,0,0,121.184,-60.36,359.158)"><stop stop-color="#083a57" stop-opacity=".2"/><stop offset="1" stop-color="#131f3f" stop-opacity="1"/></linearGradient><linearGradient id="g33" x2="1" href="#P" gradientTransform="matrix(0,-42.465,160.876,0,624.685,375.51)"><stop stop-color="#358991"/><stop offset="1" stop-color="#004d68"/></linearGradient><linearGradient id="g34" x2="1" href="#P" gradientTransform="matrix(0,-125.433,388.863,0,485.258,461.826)"><stop offset=".21" stop-color="#d9ffcc" stop-opacity=".1"/><stop offset="1" stop-color="#99f2ac" stop-opacity=".4"/></linearGradient><linearGradient id="g35" x2="1" href="#P" gradientTransform="matrix(0,-103.192,301.02,0,795.889,527.71)"><stop offset=".22" stop-color="#6ac5ba"/><stop offset="1" stop-color="#004d68"/></linearGradient><linearGradient id="g36" x2="1" href="#P" gradientTransform="matrix(0,-133.269,919.368,0,721.483,571.963)"><stop offset=".21" stop-color="#d9ffcc"/><stop offset="1" stop-color="#99f2ac"/></linearGradient><linearGradient id="g37" x2="1" href="#P" gradientTransform="matrix(0,-142.374,95.541,0,-43.297,636.104)"><stop offset=".43" stop-color="#68c3b8"/><stop offset="1" stop-color="#2e818b"/></linearGradient><linearGradient id="g38" x2="1" href="#P" gradientTransform="matrix(0,-43.629,50.818,0,124.109,537.359)"><stop offset=".43" stop-color="#68c3b8"/><stop offset="1" stop-color="#2e818b"/></linearGradient></defs><style>.a{fill:url(#g1)}.b{opacity:.3;fill:url(#g2)}.c{opacity:.3;fill:url(#g3)}.d{fill:url(#g4)}.e{opacity:.3;fill:url(#g5)}.f{opacity:.3;fill:url(#g6)}.g{fill:url(#g7)}.h{opacity:.3;fill:url(#g8)}.i{fill:url(#g9)}.j{fill:url(#g10)}.k{fill:#e0925c}.l{fill:#cc6148}.m{fill:url(#g11)}.n{fill:url(#g12)}.o{fill:url(#g13)}.p{fill:url(#g14)}.q{fill:url(#g15)}.r{fill:url(#g16)}.s{opacity:.3;fill:url(#g17)}.t{fill:url(#g18)}.u{fill:url(#g19)}.v{fill:url(#g20)}.w{fill:url(#g21)}.x{fill:url(#g22)}.y{fill:url(#g23)}.z{fill:none;stroke:#141d3d;stroke-miterlimit:10}.A{fill:url(#g24)}.B{fill:url(#g25)}.C{fill:url(#g26)}.D{fill:url(#g27)}.E{fill:url(#g28)}.F{fill:url(#g29)}.G{fill:#060c2c}.H{fill:#112842}.I{fill:url(#g30)}.J{fill:url(#g31)}.K{fill:url(#g32)}.L{fill:url(#g33)}.M{fill:#e8b162}.N{fill:#f4dc98}.O{fill:#1e445b}.P{fill:#224570}.Q{fill:none;stroke:#231f20;stroke-miterlimit:10;stroke-width:2}.R{fill:#4d6c82}.S{fill:#141d3d}.T{fill:#d8a471}.U{fill:#30190e}.V{fill:#2b4770}.W{fill:none;stroke:#2a4454;stroke-miterlimit:10;stroke-width:.5}.X{fill:none;stroke:#283356;stroke-miterlimit:10;stroke-width:.5}.Y{fill:#e2803d}.Z{fill:none;stroke:#753929;stroke-miterlimit:10}.a0{fill:#183256}.a1{fill:#0d243f}.a2{fill:#133251}.a3{opacity:.5;fill:#254b70}.a4{fill:url(#g34)}.a5{fill:url(#g35)}.a6{fill:#99f2ac}.a7{fill:#603f3a}.a8{fill:#fffdd7}.a9{fill:#e5583c}.aa{fill:none;stroke:#cec395;stroke-miterlimit:10}.ab{fill:none;stroke:#060c2c;stroke-miterlimit:10}.ac{fill:#f2863d}.ad{fill:#492d2a}.ae{fill:#38221f}.af{fill:url(#g36)}.ag{fill:url(#g37)}.ah{fill:url(#g38)}.ai{fill:#105755}.aj{fill:#003848}.ak{fill:#106a55}.al{fill:#14665e}</style><g clip-path="url(#cp1)"><g style="opacity:0"><path class="a" d="m-54 234.8h1287.3v317.9h-1287.3z"/><path class="b" d="m-28.9 343.2c4.5 0 1163.2 24.8 1163.2 24.8 0 0-825.5 11.9-822.1 10.4 3.4-1.5 364.2 12.9 364.2 12.9l-751.6 22"/><path class="c" d="m-40.6 483.6l830.5-14.3-431.7-15.6 860.7-31.1c0 0-1167.7-0.3-1172.3-0.3l315.5 17.3-474.8 17.8 485 8.7z"/><g style="opacity:.3"><path class="d" d="m-34.5 265.9c127 3.4 546.4 4.6 546.4 4.6l-141.2 11.2 388.7 6.6c0 0-628.7 2.9-836.6 2.7"/></g><path class="e" d="m987.8 251.2h-393.8l222.6 6.8-132.3 6.9 479.2 5z"/><path class="f" d="m1252.6 476.4l-361.2 9.8 223.9 15.8-656.2 66.4 965.9-24.7z"/></g><path class="g" d="m1267.5 237.3c-1.4 0-3.2-0.7-4.6-1-20.6-4.3-44.8-8-62.9-19.3-4.3-2.6-9.3-4.7-14.5-6.4-2.8-1-5.8-1.9-8.7-2.7l-4.8-30.4-3.3 20.7-3.9-24.6-4.5 28.1-5.2-32.6-4.6 29-5.7-35.3-4.5 28.4-4.7-29.4-5.3 33.1-5.2-33.1-5.5 34.1-5-31.5-5.2 32.3-3.7-23.6-4.6 29-5-31.1-3.5 21.9-5.7-35.9-4.9 30.5-5.6-35.6-4.2 26-6-38-5.6 34.7-6.1-38.7-5.8 36.5-6.7-41.8-6 37.7-6.5-40.6-3.3 38.1-4.5-30.7-4.1 29.4-3.3-28.6-5 31.3-4.4-27.3-7 44-5.4-33.9-6.1 38-5.1-32.5-5.7 35.4-4.1-25.7-5.6 35.3-4-25.2-5 31.6-4-24.9-4.4 27.8q-0.5 0-1 0.1l-3.9-24.5-3.6 22.6-2.9-18.3-2.5 15.8-1.9-11.8-2.9 18.4q-0.1 0-0.3 0l-3.4-21.8-3.5 21.9-3.1-18.9-2.4 15.2-3.2-20.1-3.3 20.9-2.6-16-3.4 21.5-3.2-20.2-2.4 14.9-2.8-17.3-2.9 18.2-2.1-13.3-3.3 20.9-3.9-24.3-4.1 25.4-3.1-19.9-3.1 19.1-4.1-26.1-4 24.6-3.2-20.6-3.4 21.4-3.8-23.9-3.6 22.6-3.7-22.6-4.2 26.8-3-18.4-2.9 18.3-3.7-23.3-2.9 18.2-4.3-27.1-3.8 23.7-3.4-21.6-3.1 19.7-4.1-25.6-4.3 27-4.6-28.9-4.7 29-4.9-31.2-5.1 31.6-3.9-24.9-4.9 30.8-4.4-27.4-4.4 27.4-4.4-28-3.8 23.9-2.7-17-2.8 17.4-3.8-23.5-5.1 32.3q0 0 0 0l-3.4-21.4-3.5 21.7-3.8-24-3.2 20.1-3.7-22.8-3.9 24.9-3.1-19.3-3.3 20.6-3.3-20.6-3.5 22.1-3.1-19.1-3.6 22.7-2.7-17-2.5 15.9-3.1-19.3-3.9 24.6q-0.1 0-0.1 0l-3.7-23.2-3.2 19.9-2.8-15.8-2.8 15.5-2.5-14.4-2.1 12.1-1.6-9-2 10.9-1.8-10.2-1.6 9.6-2.1-11.5-2 11.1-1.7-9.9-1.6 9.3-2.1-11.8-1.7 9.3-2.1-11.8-1.8 10.4-2.2-12.2-2.6 14.8-2.4-13.7-2.5 14.2-2.3-12.7-2.9 16.3-1.9-11.4-1.6 9.6-1.9-11.5-1.4 8.3-2.2-12.8-2.1 12.7-2.7-15.9-2.5 15.3-2.3-13.2-3.5 21-3.2-19.9-3.2 20.4-2.7-16.6-2.9 18.2-2.6-16.3-2.3 14.9-2.8-17.2-3.2 20.4q-0.7 0-1.4 0l-2.2-14-2.3 14q-4.5 0-9.1 0.1l-2.3-14.6-2.4 14.8q-5.3 0.2-10.6 0.5l-2.5-15.3-2.5 15.7q-2.9 0.3-5.8 0.6l-3.6-22-3.6 23.1q-1.3 0.2-2.6 0.5l-2.1-13.5-2.3 14.5q-1.8 0.4-3.5 0.7h115.5v0.4h10.1l-0.1-0.4h531.8z"/><path class="h" d="m1267.5 242.3c-1.4 0-3.2 0.5-4.6 0.7-20.6 2.9-44.8 5.5-62.9 13.1-4.3 1.9-9.3 3.3-14.5 4.4-2.8 0.7-5.8 1.3-8.7 1.9l-4.8 20.7-3.3-14.1-3.9 16.8-4.5-19.2-5.2 22.3-4.6-19.9-5.7 24.2-4.5-19.4-4.7 20-5.3-22.6-5.2 22.6-5.5-23.3-5 21.6-5.2-22.1-3.7 16.1-4.6-19.8-5 21.3-3.5-15-10.6 3.7-9.8 6.5-11.6 2.3-11.9 1.5-12.7 2.8-9.8 1.7-8.6 0.9-8.3-1.9-11.4-11.4-11.5-2.8-10.8-1.9-4.1 17.5-5.6-24.1-4 17.2-5-21.5-4 17-4.4-19q-0.5 0-1-0.1l-3.9 16.7-3.6-15.4-2.9 12.5-2.5-10.8-1.9 8.1-2.9-12.6q-0.1 0-0.3 0l-3.4 14.9-3.5-15-3.1 13-2.4-10.5-3.2 13.8-3.3-14.3-2.6 11-3.4-14.7-3.2 13.8-2.4-10.2-2.8 11.8-2.9-12.4-2.1 9.1-3.3-14.3-3.9 16.6-4.1-17.3-3.1 13.5-3.1-13-4.1 17.8-4-16.8-3.2 14-3.4-14.5-3.8 16.3-3.6-15.5-3.7 15.5-4.2-18.4-3 12.6-2.9-12.5-3.7 16-2.9-12.5-4.3 18.5-3.8-16.1-3.4 14.7-3.1-13.4-4.1 17.4-4.3-18.4-4.6 19.7-4.7-19.8-4.9 21.3-5.1-21.5-3.9 17-4.9-21.1-4.4 18.7-4.4-18.7-4.4 19.1-3.8-16.3-2.7 11.6-2.8-11.9-3.8 16.1-5.1-22.1q0 0 0 0l-3.4 14.6-3.5-14.8-3.8 16.4-3.2-13.7-3.7 15.6-3.9-17.1-3.1 13.2-3.3-14-3.3 14-3.5-15.1-3.1 13.1-3.6-15.5-2.7 11.6-2.5-10.8-3.1 13.1-3.9-16.8q-0.1 0-0.1 0l-3.7 15.9-3.2-13.6-2.8 10.7-2.8-10.5-2.5 9.8-2.1-8.3-1.6 6.2-2-7.5-1.8 7-1.6-6.5-2.1 7.8-2-7.6-1.7 6.8-1.6-6.3-2.1 8-1.7-6.3-2.1 8-1.8-7.1-2.2 8.3-2.6-10.1-2.4 9.4-2.5-9.7-2.3 8.6-2.9-11-1.9 7.7-1.6-6.5-1.9 7.8-1.4-5.6-2.2 8.7-2.1-8.7-2.7 10.9-2.5-10.5-2.3 9-3.5-14.3-3.2 13.6-3.2-13.9-2.7 11.3-2.9-12.4-2.6 11.1-2.3-10.1-2.8 11.7-3.2-13.9q-0.7 0-1.4 0l-2.2 9.5-2.3-9.5q-4.5-0.1-9.1-0.2l-2.3 10-2.4-10q-5.3-0.2-10.6-0.4l-2.5 10.4-2.5-10.7q-2.9-0.2-5.8-0.4l-3.6 15.1-3.6-15.8q-1.3-0.2-2.6-0.4l-2.1 9.2-2.3-9.9q-1.8-0.2-3.5-0.5h115.5v-0.2h10.1l-0.1 0.2h531.8z"/><g style="opacity:.3"><path fill-rule="evenodd" class="i" d="m483.9 257.4v3.1h2.8l-0.3 1-2.5-0.1v0.1l2.4 0.4-0.2 0.6-2.2-0.2 2.1 0.5-0.6 1.8-2.6-0.3 2.5 0.7-0.1 0.3-2.2-0.4 2.1 0.7-0.4 1.3-1.5-0.3 1.4 0.5-0.9 2.7h-0.7l0.7 0.2-0.8 2.5-1-2.9 0.8-0.3-0.8 0.2-0.4-1.3 0.8-0.3-0.9 0.2-0.1-0.4 1.2-0.4-1.2 0.2-0.6-1.7 1.6-0.5-1.6 0.4-0.4-1.2 2-0.7-2.1 0.4-0.1-0.3 2.1-0.8h-0.3l-2 0.3-0.9-2.9h2.9v-2.9q-5.7 0.6-11.5 1l-2.9 9.8-2.8-9.4q-2.7 0.1-5.4 0.2l-2.8 7.7-2.6-7.5q-4.3 0.2-8.6 0.3v0.1l-1.9-0.1q-0.6 0-1.3 0.1l3 0.5-0.2 0.8-3.4-0.3 3.2 0.7-0.7 2.4-3.6-0.4 3.4 1-0.1 0.4-3-0.6 2.9 0.9-0.6 1.8-2-0.4 1.9 0.6-1.2 3.7h-1l0.9 0.2-1 3.4-1.3-3.9 1-0.4-1 0.3-0.6-1.8 1.1-0.4-1.1 0.2-0.2-0.5 1.6-0.5-1.7 0.2-0.7-2.2 2.1-0.7-2.2 0.5-0.5-1.6 2.7-0.9-2.8 0.6-0.2-0.5 3.3-1.1-3.5 0.5-0.7-2.4q-1.2 0-2.5 0l-0.4 1.4-0.3 1-4.3-0.4 4.1 0.9-1.3 4.2-3.7-0.6 3.5 1-0.7 2.3-2.8-0.7 2.6 1.3-1.4 4.4-1.2-0.1 1.1 0.3-1.3 4.3-1.6-5 1.6-0.5-1.7 0.2-0.7-2 2.3-0.8-2.4 0.3-1.9-5.8 3.4-1.2-3.5 0.8-1-3.1-5.9 19.6-4.4-14.9-0.1 0.1-5.2-0.5 5 1.4-0.2 0.6-4.4-0.8 4.2 1.3-0.8 2.6-3-0.5 2.9 0.8-1.8 5.6-1.5-0.1 1.4 0.4-1.6 5-1.9-5.8 1.5-0.6-1.5 0.4-0.9-2.6 1.7-0.6-1.8 0.4-0.2-0.8 2.4-0.8-2.5 0.4-1.1-3.3 3.2-1.1-3.3 0.8-0.8-2.4 4.1-1.4-4.2 0.9-0.2-0.7 4.8-1.7-5.1 0.8-1.1-3.2-4.9 18.3-4.7-17.6q-1.8 0.2-3.6 0.5l-3.1 11.2-2.5-9.2-3.3 12.2-2.7-10.1-4 15-3.5-13-4.1 15.5-3.8-13.8-0.8 2.6-5.2-0.6 4.9 1.5-0.2 0.6-4.3-0.8 4.2 1.2-0.9 2.7-2.9-0.5 2.8 0.8-1.7 5.5h-1.5l1.4 0.3-1.6 5-1.9-5.8 1.5-0.5-1.6 0.4-0.8-2.7 1.7-0.6-1.8 0.4-0.2-0.7 2.4-0.9-2.6 0.4-1-3.2 3.2-1.1-3.3 0.7-0.3-0.9-3 11.2-2.9-10.6-5.1 19.2-3.3-12.3-3.8 14.1-3.6-13.4-3 11.2-3.2-11.6-2.4 9-1.7-6.5-4.9 18.1-2.2-8.2-0.1 0.2-4.7-0.9 4.6 1.4-2.9 9-2.3-0.1 2.1 0.6-2.6 8.1-3-9.4 2.5-0.9-2.6 0.6-1.4-4.3 2.7-0.9-2.8 0.6-0.4-1.2 3.9-1.4-4.1 0.6-1.7-5.3 5.1-1.7-5.2 1.1-3.2 12.1-4.5-16.7-0.5 1.5-3.6-0.6 3.5 1-2.2 6.7-1.7-0.1 1.6 0.5-2 6.1-2.2-7.1 1.8-0.6-1.9 0.4-1-3.2 2-0.7-2.1 0.5-0.3-0.9 2.9-1.1-3.1 0.5-1-3.4-4.4 10.7-5.1-12.6-4 9.8-4.1-10-2.4 9.1-2.4-8.8-3.9 14.4-3.3-12.3-0.7 2.1-4.7-0.9 4.5 1.4-2.8 9-2.4-0.1 2.2 0.6-2.6 8.1-3.1-9.4 2.5-0.9-2.5 0.6-1.4-4.3 2.7-1-2.8 0.7-0.4-1.3 3.9-1.3-3.8 0.6-1.6 4.9-1.7-0.1 1.6 0.5-2 6.1-2.2-7.1 1.8-0.6-1.9 0.4-1-3.2 2-0.7-2 0.5-8.4 31.2-5.5-20.4-12-1.3 12.1 3.5-0.5 1.4-10.6-1.8 10.3 2.9-2.1 6.5-7.1-1.2 6.8 2-4.3 13.5-3.5-0.2 3.3 0.9-3.9 12.2-4.6-14.1 3.8-1.3-3.9 0.8-2.1-6.4 4.1-1.4-4.2 0.9-0.6-1.8 5.9-2-6.3 0.9-2.5-7.9 7.7-2.7-8 1.8-0.9-2.9-4.5 16.5-4.9-18.2-2.9 11-5.3-19.6-4.1 15.4-3.9-14.6-0.6 1.6-8.9-0.9 8.4 2.5-0.3 0.9-7.4-1.3 7.2 2.1-1.5 4.6-5-0.9 4.8 1.4-3 9.5-2.4-0.2 2.2 0.7-2.7 8.5-3.2-9.9 2.6-0.9-2.7 0.6-1.4-4.5 2.8-1-2.9 0.7-0.5-1.3 4.2-1.4-4.4 0.6-7.6 28.3-7.4-27.5-8.1 30.1-3-11.2-1.1 3.2-6.2-1.1 6 1.8-3.8 11.9-3.1-0.2 2.9 0.9-7.5-1.7 3.3-1.2-3.4 0.8-1.8-5.7 3.6-1.3-3.7 0.9-0.6-1.7 5.2-1.8-5.5 0.9-2-6.4-13.6 5.6-1.4 4.5-7.1-1.2 6.8 2-4.3 13.5-3.5-0.2 3.3 0.9-8.5-1.9 3.8-1.3-3.9 0.9-2.1-6.5 4.1-1.4-4.2 1-0.6-1.9 5.9-2-6.3 0.9-1.5-4.7-15.3 11.4-36.4-1.2 1.7-0.6-2.5 0.6-24.9-0.8-5.3 17.7-6-20.1-3.1 10.3-5.8-19.6-6.6 21.9-9.5-31.9-6.6 22.1-16.1-54h7.1c-4.1-5.7-7.3-10.8-18.7-16.6l57-16 514.8-1.1c0 0-11.3 2.1-17 2.8zm-62.7 2.8q-2.1 0.1-4.3 0.1v1.6h4.8zm-8.1 1.8h1.9v-1.5q-0.7 0-1.4 0zm-2.8 0.9v-0.3l-2.6-0.2zm-177.2 20.7l0.2-0.1zm52.9-7.3l0.6 0.1v-0.1zm73.1-6.9l-0.1-0.5-4.1-0.4zm-6.2 0.5l-3 0.5-0.2 0.6zm-0.4 1.5l-3 0.7-0.1 0.4zm-44 18.1l-0.1-0.5-4.1-0.7zm-0.5-2l-0.2-0.9-4.1-0.4zm-5.1-5.4l-3.8 0.6-0.3 0.8zm-0.7 2.4l-3.8 0.9-0.2 0.5zm-13.5-0.6l-0.1-0.5-3.9-0.7zm-0.4-1.5l-0.2-0.7-3.9-0.5zm-5.9-4.1l-0.2 0.3 1.4-0.5zm-0.8 2l-0.1 0.2 1.7-0.6zm1.5 3.4l-3.2 0.7-0.2 0.4zm-33.9-0.5l-0.2-0.7-5.2-0.9zm-0.6-2l-0.3-1-5.2-0.6zm-8.3 1.8l0.2 0.1 1.1-0.4zm-1.9 0.9l0.7-0.3-0.8-0.1-0.7 0.1zm-1 3.7v-0.2l-1.7-0.3zm-1.4-4.4l-0.1-0.1-0.8-0.1zm-0.5-1.6l-0.1-0.1-0.9-0.1zm-1.4 6.9l-2.2 0.3-0.1 0.5zm-19.2 2.7l-0.1-0.6-5.4-0.6zm-10.4 2.5l-7.6 1.1-0.5 1.7zm-1 3.6l-7.7 1.7-0.3 1.1zm-36.1-9l-4-0.4q-0.1 0-0.3 0.1l4.5 1zm-9.1 2v0.1l0.3-0.2zm-0.7 2.6l0.3-0.1zm0.2 5.1l-1.7 0.4-0.1 0.3zm-20.1 2.6q-1.1 0.6-2.2 1.3v0.2h2.6zm-24.1 15q-0.5 0.4-1.1 0.7v0.1l4.5-1.5zm13.7 6.4l-0.2-0.9-7.2-1.3zm-0.7-2.6l-0.4-1.5-7.3-0.8zm-9.6 2l-6.3 1.4-0.2 0.8zm-20.8 6.2l-0.3-1-3.1-0.6q-0.5 0.2-1 0.4zm-62.2 6.2l4.7 1-0.2-0.6zm-4.3 11.3l12.4 1.4 0.8 2.5zm-1.3-7.1l-9.8 1.5-0.7 2.1zm-11.2 6.4l-0.5 1.4 8.9-3.1h-0.9z"/></g><path fill-rule="evenodd" class="j" d="m500.9 254.6l-514.8 2-57-33.9c11.4-10.9 14.6-20.3 18.7-31h-7.1l16.1-101 6.6 41.3 9.5-59.7 6.6 41 5.8-36.8 3.1 19.4 6-37.6 5.3 33.1 9-56.7 7.5 46.8 1.7-10.2 9.2 3.9-8.9-5.8 2.9-16.9 7.2 2.1-6.8-4.4 0.7-4 4.9 2-4.7-3 2.4-13.8 4.4 1.9-4.3-2.8 5.2-30.3 4.5 26.1-3.7 2 4-0.3 4.9 28.8-7.8 4.3 8.1-2.6 2.4 13.9-11.7 6.4 12.1-4 0.2 1.1 8.4-53 10.3 64.8 6-37.3 9.3 58.6 1.5-8.9 6.3 1.8-5.9-3.8 0.6-3.5 4.2 1.8-4.1-2.6 2.1-12.1 3.9 1.7-3.8-2.5 4.6-26.4 3.9 22.8-3.3 1.7 3.5-0.3 4.3 25.2-6.8 3.8 7.1-2.4 1.4 8.5 6-41.8 7.6 52.4 2-12 5.5 1.5-5.2-3.3 0.6-3.1 3.7 1.6-3.6-2.4 1.8-10.6 3.4 1.4-3.3-2.1 4-23.4 3.5 20.1-2.9 1.6 3.1-0.3 3.8 22.3-6 3.3 6.2-2.1 1.1 6.2 3-21 8.1 56.2 7.4-51.3 7.6 52.8 4.4 1.2-4.2-2.6 0.5-2.5 2.9 1.3-2.8-1.9 1.4-8.4 2.7 1.1-2.6-1.7 3.2-18.5 2.7 16-2.2 1.2 2.4-0.2 3 17.6-4.8 2.7 5-1.7 1.5 8.5-7.2 4 7.4-2.5 0.3 1.9-8.4 4.6 8.9-1.8 0.6 3.1 3.9-27.3 4.1 28.8 5.3-36.7 2.9 20.5 4.9-34 4.5 30.8 0.9-5.4 8 3.4-7.7-5 2.5-14.8 6.3 1.8-5.9-3.8 0.6-3.5 4.2 1.8-4.1-2.7 2.1-12 3.9 1.6-3.8-2.4 4.6-26.4 3.9 22.7-3.3 1.8 3.5-0.3 4.3 25.2-6.8 3.7 7.1-2.3 2.1 12.1-10.3 5.6 10.6-3.5 0.5 2.7-12.1 6.6 12-2.4 5.5-38.2 8.4 58.4 2 0.8-2-1.3 1-6 1.9 0.8-1.8-1.2 2.2-13.2 2 11.4-1.6 0.9 1.7-0.2 1.6 9.3 3.8 1.1-3.9-2.6 0.4-2.3 2.8 1.2-2.7-1.8 1.4-8 2.5 1.1-2.5-1.6 3.1-17.7 2.6 15.2-2.2 1.2 2.4-0.2 2.8 16.8-4.5 2.5 4.7-1.5 0.7 3.8 3.3-23.1 3.9 27.1 2.4-16.6 2.4 17.2 4.1-18.8 4 18.3 5.1-23.5 4.4 19.9 1-6.3 3.1 0.9-2.9-1.9 0.3-1.8 2.1 0.9-2-1.3 1-6 1.9 0.8-1.8-1.2 2.2-13.2 2 11.4-1.6 0.9 1.7-0.2 2.2 12.6-3.5 1.8 3.6-1.1 0.5 2.8 4.5-31.1 3.2 22.5 5.2 2.2-5.1-3.4 1.7-9.8 4.1 1.1-3.9-2.5 0.4-2.3 2.8 1.2-2.7-1.8 1.4-8.1 2.6 1.1-2.5-1.6 3-17.7 2.6 15.3-2.1 1.1 2.3-0.2 2.9 16.9-4.6 2.5 4.7-1.6 0.1 0.4 2.2-15.3 4.9 33.8 1.7-12.2 2.4 16.9 3.2-21.7 3 20.9 3.6-25 3.8 26.4 3.3-23.1 5.1 35.9 2.9-19.8 3 20.9 0.3-1.7 3.3 1.4-3.2-2.1 1-6 2.6 0.7-2.4-1.6 0.2-1.4 1.8 0.7-1.7-1.1 0.8-4.9 1.6 0.7-1.5-1 1.9-10.9 1.6 9.4-1.4 0.7 1.5-0.1 1.7 10.3-2.8 1.6 2.9-1 0.9 5-4.2 2.3 4.3-1.5 0.2 1.1-4.9 2.7 5.2-1 0.8 4.8 3.8-25.8 4.1 28.9 3.5-24.2 4 28 2.7-18.8 3.3 22.8 2.5-17.3 3.1 21.1q1.8 0.4 3.6 0.8l4.7-32.8 4.9 34.2 1.1-6 5.1 1.5-4.8-3.2 0.2-1.4 4.2 1.8-4.1-2.6 0.8-4.5 3.3 1.4-3.2-2 1.1-6.1 2.5 0.7-2.4-1.5 0.2-1.5 1.8 0.8-1.7-1.1 0.9-5 1.5 0.7-1.5-1 1.9-10.9 1.6 9.4-1.4 0.7 1.5-0.1 1.8 10.4-2.9 1.5 3-1 0.8 5-4.2 2.3 4.4-1.4 0.2 1.1-5 2.7 5.2-1.1 0.1 0.3 4.4-27.9 5.9 36.7 1-5.8 3.5 1.4-3.4-2.2 1.9-10.8 2.4 0.6-2.3-1.5 0.7-3.8 1.7 0.4-1.6-1.1 1.6-9.2 1.3 8-1.1 0.6 1.2-0.1 1.4 8.2-2.6 2.3 2.8-1.2 0.7 4.2-3.5 1.9 3.7-1.2 1.3 8-4.1 1.7 4.3-0.8 0.3 1.8 0.4 2.6q1.3 0.1 2.5 0.1l0.7-4.5 3.5 1-3.3-2.1 0.2-1 2.8 1.2-2.7-1.8 0.5-2.9 2.2 0.9-2.1-1.4 0.7-4.1 1.7 0.5-1.6-1 0.2-1 1.1 0.5-1.1-0.7 0.6-3.4 1 0.5-1-0.7 1.3-7.3 1 6.3-0.9 0.5 1-0.1 1.2 7-1.9 1 2-0.6 0.6 3.3-2.9 1.6 3-1 0.1 0.7-3.4 1.9 3.6-0.8 0.7 4.5-3.2 1.4 3.4-0.7 0.2 1.5-3 1q0.7 0.1 1.3 0.1l1.9-0.1v0.2q4.3 0.2 8.6 0.4l2.6-13.9 2.8 14.3q2.7 0.2 5.4 0.5l2.8-17.6 2.9 18.2q5.8 0.8 11.5 1.9v-5.3h-2.9l0.9-5.5 2 0.6v-0.1h0.3l-2.1-1.3 0.1-0.7 2.1 0.8-2-1.3 0.4-2.2 1.6 0.7-1.6-1 0.6-3.1 1.2 0.4-1.2-0.8 0.1-0.7 0.9 0.3-0.8-0.5 0.4-2.5 0.8 0.3-0.8-0.5 1-5.4 0.8 4.7-0.7 0.3h0.7l0.9 5.2-1.4 0.8 1.5-0.5 0.4 2.5-2.1 1.2 2.2-0.8 0.1 0.6-2.5 1.3 2.6-0.5 0.6 3.4-2.1 0.8v0.1l2.2-0.4 0.2 1.1-2.4 0.8v0.1l2.5-0.2 0.3 2h-2.8v5.8c5.7 1.3 17 5.1 17 5.1zm-79.2-13.7h-4.8v3q2.2 0.2 4.3 0.3zm-8.2 2.7q0.7 0.1 1.4 0.1v-2.8h-1.9zm-5.8-3.4l2.5-0.5 0.1-0.6zm-174.4-39.7l-0.3-0.2v0.1zm53.2 13.5v-0.2l-0.6 0.3zm68.3 14.9l4.1-0.8 0.1-1zm-5.1-4.8l0.2 1.2 2.9 0.8zm-0.4-2.7l0.1 0.7 3 1.3zm-45-29.6l4-1.3 0.1-1zm-0.7 3.9l4.1-0.8 0.3-1.6zm-4.8 5.2l0.2 1.5 3.8 1.1zm-0.6-4.5l0.1 1 3.8 1.6zm-13.5 5.8l3.9-1.3 0.1-0.9zm-0.5 2.9l3.9-0.8 0.2-1.4zm-0.5 5.7l-1.4-0.8 0.1 0.5zm-0.5-3.4l-1.6-1v0.4zm-3.3-9.1l0.2 0.9 3.1 1.3zm-36 6.2l5.3-1.8 0.1-1.2zm-0.7 3.9l5.3-1.1 0.3-2zm-1.5-5.9l-1-0.7-0.3 0.1zm-4-1.6l0.8 0.3 0.7-0.3-0.7-0.4zm-2-6.3l1.7-0.6 0.1-0.4zm-0.5 7.7l0.8-0.3 0.1-0.2zm-0.6 2.8l0.9-0.1 0.1-0.4zm-2.9-14.8l0.2 0.8 2.1 0.6zm-22.4-1.4l5.3-1.1 0.2-1.2zm-12.9-12.1l0.4 3.1 7.6 2.2zm-0.9-6.8l0.2 2 7.8 3.2zm-28 20.8l-4.4 1.8q0.1 0.1 0.3 0.2l4-0.9zm-9-2.5l-0.3-0.2v0.1zm-0.7-4.7l-0.3-0.2v0.1zm-1.8-10.8l0.1 0.4 1.7 0.7zm-17.9-6.5h-2.7l0.1 0.3q1.1 1.3 2.2 2.5zm-21.1-24l-4.5-3v0.3q0.5 0.6 1.1 1.2zm2.8-9.4l7.2-2.3 0.3-1.7zm-0.9 5.1l7.3-1.5 0.3-2.7zm-8.3-12.1l0.2 1.6 6.2 2.6zm-18.8-5.1q0.5 0.4 1 0.7l3.2-1.1 0.3-2zm-53.2-14.9l0.1-1-4.6 1.9zm-8.8-20.3l12.4-2.5 0.7-4.7zm-11.7 6.6l0.6 4 9.8 2.7zm-1.2-7.8l0.4 2.6 10.1 4.3z"/><path class="k" d="m385.6 239.8l-36.5 1.9h48.7z"/><path class="l" d="m433.3 244.3c0 0-54 1.8-52.9 1.8 1.2 0 55.5 0 55.5 0l-19.2 2.6h54.2l-14.3 1.9 37.7 1.9c0 0-12.6-6.1-44-7.1-10.5-0.3-17-1.1-17-1.1z"/><path class="m" d="m208.2 230.5l-3.1-18.1-5.4 2.3 5.2-3.4-2.8-16.5-3.7 0.9 3.4-2.2-1-5.9-2.5 0.6 2.4-1.5-2.4-14.1-2.1 12.1 1.7 1-1.9-0.2-2.1 12.5 3.9 3.5-4.2-1.9-1.1 6.5 5.5 2.9-5.7-1.8-2.1 12.1 6.3 2.6-6.5-1.3-0.5 2.9-1.2 7h9.1v5.4h1.7v-5.4z"/><path class="n" d="m46.2 218.8l-5.8-33.5-10 4.2 9.7-6.3-5.3-30.5-6.9 1.7 6.5-4.2-1.9-10.9-4.7 1.2 4.4-2.9-4.4-26-3.9 22.4 3.2 1.7-3.4-0.3-4 23.3 7.3 6.4-7.8-3.5-2.1 12 10.1 5.5-10.4-3.5-3.9 22.6 11.6 4.7-12-2.4-0.9 5.3-2.2 13h16.8v10h3.1v-10z"/><path class="o" d="m90.3 228.3l-7.7-44.6-13.4 5.6 12.9-8.4-7-40.7-9.1 2.3 8.6-5.6-2.5-14.6-6.4 1.6 6-3.9-6-34.7-5.1 29.9 4.3 2.3-4.6-0.4-5.3 31 9.7 8.7-10.4-4.7-2.7 15.9 13.4 7.3-13.9-4.6-5.2 30.1 15.5 6.4-16-3.2-1.2 7-3 17.3h22.5v13.4h4.1v-13.4z"/><path class="p" d="m341.3 233.2l-2-12.1-3.6 1.6 3.4-2.3-1.8-11-2.5 0.6 2.3-1.5-0.7-4-1.7 0.5 1.6-1.1-1.6-9.4-1.4 8.1 1.2 0.7-1.3-0.2-1.4 8.4 2.6 2.4-2.8-1.3-0.7 4.3 3.6 2-3.8-1.3-1.3 8.2 4.1 1.7-4.3-0.9-0.3 1.9-0.8 4.7h6.1v3.6h1.1v-3.6z"/><path class="q" d="m317.9 236l-1.5-8.6-2.6 1 2.5-1.6-1.3-7.9-1.8 0.5 1.7-1.1-0.5-2.8-1.2 0.3 1.1-0.8-1.1-6.7-1 5.8 0.8 0.5-0.9-0.1-1 6 1.9 1.7-2.1-1-0.5 3.1 2.6 1.5-2.7-0.9-1 5.8 3 1.2-3.1-0.6-0.2 1.4-0.6 3.3h4.4v2.6h0.8v-2.6z"/><path class="r" d="m144.9 225.3l7.9-5.2-0.4-2.2-6.8 2.9 6.6-4.3-1.3-7.2-5.3 2.3 5.1-3.4-1.7-9.8-4.1 1.2 3.9-2.6-0.4-2.3-2.8 1.2 2.7-1.8-1.4-8-2.6 1.1 2.5-1.7-3-17.6-2.6 15.2 2.2 1.2-2.4-0.2-2.8 16.8 4.5 2.5-4.7-1.6-1.4 8.1 6.8 3.8-7-2.4-0.3 1.8 8 4.4-8.5-1.7-1.9 10.8 7.9 3.2-8.1-1.6-0.7 3.6 8.4 3-8.8-0.6-1.1 6.4h25l-3-17.7z"/><path fill-rule="evenodd" class="s" d="m1368.5 297.3c0 0-4.2 2.3-10.4 5.6l-5.4 41.9-3.8-29.3-4.9 38.6-4.2-33-6.2 48.1-4.9-38.1-7.1 55.2-7.5-58.9-11.3 78.7-9.1-62.9-6.9 54-7.3-56.7-0.2 0.9-9.9-4.1 9.6 6.2-1.8 10.4-7.8-3.3 7.5 4.9-2.4 14.3-6.1-1.7 5.7 3.7-0.6 3.4-4.1-1.7 4 2.6-2 11.7-3.8-1.6 3.7 2.3-4.5 25.7-3.8-22.1 3.2-1.7-3.4 0.3-4.2-24.5 6.7-3.7-6.9 2.3-2.1-11.8 10-5.4-10.2 3.3 0.3 0.2-1.4 7.9-5.9-2.5 5.7 3.7-1.9 10.9-4.6-1.3 4.4 2.9-0.5 2.5-3.1-1.3 3 2-1.5 8.9-2.9-1.2 2.8 1.7-3.3 19.6-2.9-16.8 2.4-1.3-2.6 0.2-3.2-18.6 5.1-2.8-5 1.6-7.7 59.3-6.8-53.1-9.2 71.8-5.4-42.3-9.9 76.9-7.5-58.2-0.8 4.9-8.3-3.4 8 5.2-2.6 15.2-6.5-1.8 6.1 3.9-0.6 3.6-4.4-1.8 4.2 2.7-2.1 12.5-4-1.7 3.9 2.5-4.7 27.3-4.1-23.5 3.4-1.9-3.6 0.4-4.5-26.1 7.1-3.9-7.3 2.5-0.9-5.3-5.3 36.9-3.9-26.8-5.9 41.2-7.5-51.5-4.7 32.7-6.5-45.2-3.3 23.2-5.2-36.3-5.7 44-5.4-42.2-1.2 7.4-3-1.3 2.8 1.9-3.4 20-3-17.3 2.5-1.3-2.6 0.3-3.3-19.2 5.2-2.8-5.4 1.8-2.9 20.4-4.8-32.9-4.7 32.6-5.9-41.3-4.8 33.5-4.4-30.2-4.1 29.1-5-34.6-3.8 25.9-4.5-31.9q-0.5 0.1-1 0.1l-5.6 38.9-5.1-35.1-4.9-2.1 4.8 3.1-1.6 9.3-3.9-1.1 3.7 2.3-0.4 2.2-2.6-1.1 2.5 1.7-1.3 7.5-2.4-1 2.3 1.5-2.8 16.5-2.4-14.2 2-1.1-2.2 0.2-1.2-7.1-4-1.1 3.9 2.6-0.4 2.3-2.8-1.2 2.7 1.8-1.4 8.1-2.6-1.1 2.5 1.6-3 17.8-2.6-15.3 2.1-1.2-2.3 0.2-2.9-16.9 4.6-2.6-4.8 1.6-1.4-8.1 6.9-3.8-6.9 2.3-4.1 38.8-4.4-41.9-2.7 16.1-6.3-1.5 5.9 3.8-1.7 9.9-4.4-1 4.1 2.6-4.1 23.8-3.5-20.5 2.9-1.6-3.1 0.3-3.7-21.2 6.7-5.9-7.1 3.2-1.5-8.4-7 48.8-7.7-53.4-4.5 31.2-5.8-40.6-4.6 31.8-6.7-46.5-2.3 13.8-5.5-1.4 5.1 3.3-1.5 8.7-3.8-0.9 3.6 2.3-3.6 20.8-3-17.9 2.5-1.4-2.7 0.3-3.2-18.6 5.8-5.2-6.2 2.9-1.7-9.6 8.1-4.4-8.3 2.8-1.7-9.8-8.1-3.4 8 5.2-1.5 8.7-6.5-2.8 6.3 4.1-2.1 12-5.1-1.4 4.8 3.1-0.5 2.8-3.4-1.5 3.3 2.2-1.7 9.8-3.1-1.4 3 2-3.7 21.5-3.1-18.5 2.6-1.5-2.8 0.3-3.6-20.5 5.6-3-5.8 1.9-1.6-9.9 8.3-4.5-8.6 2.8-0.4-2.1 9.8-5.4-9.4 1.9-8.5 57.6-10.5-70.9-6.3 43.5-7-48.7-0.5 3.2-5.2-1.5 4.9 3.2-0.3 1.4-4.1-1.8 4 2.7-0.8 4.4-3.2-1.4 3.1 2-1 6.1-2.6-0.7 2.4 1.5-0.2 1.5-1.7-0.8 1.6 1.1-0.8 5-1.6-0.7 1.5 1-1.8 10.9-1.6-9.4 1.3-0.7-1.4 0.1-1.8-10.3 2.8-1.6-2.9 1-0.9-5 4.2-2.3-4.3 1.4-0.2-1.1 5-2.7-5.3 1.1-1.1-6.7 4.8-2-5 1-0.2-0.8-6.5 41.2-5.7-35.7-0.3 1.5-4.3-1.8 4.2 2.7-2.3 13-2.9-0.7 2.8 1.7-0.8 4.7-2.1-0.5 1.9 1.2-1.9 11.1-1.6-9.6 1.4-0.7-1.5 0.1-1.7-9.8 3.1-2.8-3.3 1.5-0.9-5.1 4.3-2.3-4.4 1.4-1.7-9.5 5-2.1-5.2 1.1-0.3-2.3-0.9-4.9q-0.7-0.1-1.4-0.3l-0.9 4.9-2.9-0.8 2.8 1.8-0.2 0.8-2.3-1 2.2 1.5-0.4 2.5-1.8-0.8 1.7 1.1-0.5 3.5-1.5-0.4 1.4 0.8-0.2 0.8-0.9-0.4 0.9 0.7-0.5 2.7-0.9-0.3 0.9 0.5-1.1 6.2-0.9-5.3 0.8-0.4h-0.8l-1-5.8 1.6-0.9-1.7 0.6-0.5-2.8 2.4-1.3-2.4 0.8-0.2-0.6 2.9-1.6-3 0.6-0.7-3.7 2.8-1.2-2.9 0.6-0.2-1.2 2.9-1.1-3 0.2-0.4-2.2h1.5c-1.8-0.4-4-0.8-6.4-1.4q-3.1-0.6-6.2-1.4v4.1h2.3l-2.8 14.7-2.9-14.7h2.4v-4.3q-6-1.5-11.7-3-0.5-0.1-0.5-0.1 0 0 0 0-2.7-0.7-5.4-1.5zm-496.9 12.9h3.3v-1.9q-1.5 0-3-0.1zm15.8-0.4l-5.4 0.3-0.3-1.8q-2.3 0.1-4.8 0v1.9h6l-0.2 1.2zm143.2 48.7l-0.1 0.7 3.3-1.3zm2.7-5.6l-2.2 0.1v0.7zm-27.5-8.8v0.4l0.8-0.3q-0.4 0-0.8-0.1zm-59.5-17.7l-0.5-3.2-7.8-2.2zm17.1 4.9l-0.1-1q-1.7-0.7-3.4-1.5l-0.5-0.2zm47 34.2l-8.1 2.6-0.3 1.9zm8.3-6l-0.1-1.3-5.3-2.2zm6.5-12.5q-0.2-0.1-0.4-0.2l-0.1 0.2zm11.1 23.4l-7.1 1.5-0.3 2.5zm2.7 6.8l-0.1-0.3-1.1-0.5zm1.1-9l-2.3-1 1.9 1.2zm3.8 10.5l-1.9 0.6 0.4 0.2zm-1.6-8.4l1.1-0.6-0.3-0.2-1.3 0.5zm2.9-4.8l-3 0.6 0.8 0.5zm65.7 21.6q-0.4-0.3-0.8-0.5l-0.2 0.1-0.2 1zm5.1 14.2l2.8 1.8-0.1-1.1zm3.3 5.8l-0.1-0.6-2.4-1zm50.4 7.5l-1-5.8-0.9 5.8zm12.6 5.6l-7.8 2.6-0.3 1.8zm1.1-6l-7.9 1.6-0.5 3zm9.6-6.6l-0.5-3.2-7.9-2.2zm0.9 6.9l-0.3-2-7.9-3.3zm48.6-76.8l2.6-1.1-2.2 0.4q-0.2 0.4-0.4 0.7zm4.6 16.8l-4.3 1.4-0.1 1zm0.7-4.2l-4.4 0.9-0.2 1.6zm14.3-32.7l1.2-0.4h-0.3q-0.4 0.2-0.9 0.4zm-1 7.9l2.8-1.1-2.7 0.5zm-4.9 25.7l-0.3-1.7-6.5-2.8zm11.3-8.8l-9.6 1.9v0.1h-0.1l-2.7 0.5-0.2-1.4-6.3-1.7 8.7 5.6-0.1 0.6zm11.9-4.3l-0.6-4.1-10.2-2.9z"/><path class="t" d="m875.9 244l-7 44.1h14z"/><path class="u" d="m889.6 279l4.9-3.2-0.3-1.4-4.1 1.8 4-2.6-0.8-4.4-3.2 1.4 3.1-2.1-1-6.1-2.6 0.8 2.4-1.6-0.2-1.4-1.7 0.7 1.6-1.1-0.8-4.9-1.6 0.6 1.5-1-1.8-10.8-1.6 9.3 1.3 0.8-1.4-0.2-1.8 10.4 2.8 1.5-2.9-0.9-0.9 4.9 4.2 2.3-4.3-1.4-0.2 1.1 5 2.7-5.3-1.1-1.1 6.7 4.8 2-5-1-0.4 2.2 5.1 1.8-5.3-0.3-0.7 3.9h15.3l-1.8-10.9z"/><path fill-rule="evenodd" class="v" d="m1368.5 297.3h-551.3c20.7-5.7 46.2-11.8 64.7-11 4.2 0.1 8.5-0.1 12.7-0.7l7.7-53.6 6.3 43.5 10.5-70.9 8.5 57.6 9.4 1.9-9.8-5.3 0.4-2.2 8.6 2.8-8.3-4.5 1.6-9.9 5.8 1.9-5.6-3 3.6-20.5 2.8 0.3-2.6-1.5 3.1-18.4 3.7 21.4-3 2 3.1-1.3 1.7 9.7-3.3 2.2 3.4-1.4 0.5 2.8-4.8 3.1 5.1-1.5 2.1 12-6.3 4.1 6.5-2.7 1.5 8.7-8 5.2 8.1-3.4 1.7-9.8 8.3 2.7-8.1-4.4 1.7-9.5 6.2 2.8-5.8-5.2 3.2-18.5 2.7 0.2-2.5-1.4 3-17.8 3.6 20.7-3.6 2.3 3.8-0.9 1.5 8.7-5.1 3.3 5.5-1.3 2.3 13.7 6.7-46.5 4.6 31.9 5.8-40.7 4.5 31.3 7.7-53.5 7 48.8 1.5-8.4 7.1 3.3-6.7-5.9 3.7-21.3 3.1 0.3-2.9-1.6 3.5-20.4 4.1 23.7-4.1 2.7 4.4-1.1 1.7 10-5.9 3.8 6.3-1.6 2.7 16.2 4.4-42 4.1 38.9 6.9 2.2-6.9-3.7 1.4-8.2 4.8 1.6-4.6-2.5 2.9-17 2.3 0.2-2.1-1.1 2.6-15.4 3 17.8-2.5 1.7 2.6-1.1 1.4 8-2.7 1.8 2.8-1.2 0.4 2.4-3.9 2.5 4-1.1 1.2-7 2.2 0.2-2-1.1 2.4-14.3 2.8 16.6-2.3 1.5 2.4-1 1.3 7.5-2.5 1.6 2.6-1.1 0.4 2.2-3.7 2.4 3.9-1.1 1.6 9.2-4.8 3.1 4.9-2.1 5.1-35 5.6 38.8q0.5 0.1 1 0.1l4.5-31.8 3.8 25.9 5-34.6 4.1 29 4.4-30.1 4.8 33.5 5.9-41.4 4.7 32.6 4.8-32.9 2.9 20.5 5.4 1.8-5.2-2.9 3.3-19.1 2.6 0.2-2.5-1.3 3-17.3 3.4 20.1-2.8 1.8 3-1.2 1.2 7.4 5.4-42.3 5.7 44.1 5.2-36.3 3.3 23.1 6.5-45.1 4.7 32.7 7.5-51.6 5.9 41.3 3.9-26.9 5.3 36.9 0.9-5.2 7.3 2.4-7.1-3.9 4.5-26.1 3.6 0.4-3.4-1.8 4.1-23.6 4.7 27.3-3.9 2.6 4-1.7 2.1 12.4-4.2 2.7 4.4-1.8 0.6 3.6-6.1 3.9 6.5-1.8 2.6 15.3-8 5.2 8.3-3.5 0.8 4.9 7.5-58.1 9.9 76.9 5.4-42.4 9.2 71.8 6.8-53.1 7.7 59.3 5 1.6-5.1-2.7 3.2-18.7 2.6 0.3-2.4-1.3 2.9-16.9 3.3 19.6-2.8 1.8 2.9-1.2 1.5 8.9-3 1.9 3.1-1.3 0.5 2.6-4.4 2.8 4.6-1.3 1.9 10.9-5.7 3.7 5.9-2.5 1.4 7.9-0.3 0.2 10.2 3.4-10-5.5 2.1-11.8 6.9 2.3-6.7-3.7 4.2-24.5 3.4 0.4-3.2-1.8 3.8-22.1 4.5 25.7-3.7 2.4 3.8-1.6 2 11.7-4 2.5 4.1-1.7 0.6 3.4-5.7 3.7 6.1-1.7 2.4 14.3-7.5 4.9 7.8-3.3 1.8 10.5-9.6 6.2 9.9-4.2 0.2 1 7.3-56.8 6.9 54 9.1-62.8 11.3 78.6 7.5-58.9 7.1 55.2 4.9-38.1 6.2 48.1 4.2-33 4.9 38.6 3.8-29.3 5.4 42c6.2 3.2 10.4 5.5 10.4 5.5zm-107.6-27.2l2.8 0.5-2.9-1.1zm1.9 7.7h0.2l-1.2-0.4q0.5 0.2 1 0.4zm-18.1-19.5l-2.6-1q0.2 0.3 0.4 0.6zm23.7 5.6l10.2-2.9 0.5-4.1zm-19.3-15.7l6.6-2.7 0.3-1.7zm-0.8 5l6.3-1.8 0.2-1.3 2.7 0.5h0.1l9.6 2-10.3-5.6 0.1 0.5zm-5.5-11.1l0.2 1.6 4.5 0.9zm-0.5-4.1l0.1 1 4.3 1.4zm-235.7 12.4l-0.9-0.3v0.4q0.5 0 0.9-0.1zm18.1-2.4q0.2-0.1 0.4-0.2h-0.5zm6.3-7.1l0.1 0.7 2.2 0.1zm2.7-4.1l-3.3-1.4 0.1 0.7zm151.7-51l7.9-3.3 0.3-1.9zm-1.1 7l7.9-2.3 0.4-3.2zm-9.5-16.5l0.4 2.9 8 1.6zm-0.9-5.8l0.3 1.8 7.8 2.6zm-6.3 10l0.9 5.8 1-5.8zm-51.1 9.2l2.4-1.1 0.1-0.6zm-0.8 4.2l2.7-0.8 0.1-1zm-6.3 13.5l0.2 1 0.2 0.1q0.4-0.2 0.8-0.5zm-64.5 22.2l-2.1-1.2-0.9 0.6zm-3.3-4.5l1.3 0.4 0.3-0.1-1.1-0.6zm-4.1 2.7l2.3-1-0.5-0.2zm6.2-11.5l-1.5-0.8-0.4 0.2zm-6.1 2.2l1.1-0.5 0.1-0.3zm-8.9 2l0.3 2.6 7.1 1.4zm-15.5 18.4l5.2-2.1 0.2-1.3zm-11.3-14.1l0.3 1.9 8.1 2.6zm-42.7 41.3l0.5-0.2q1.7-0.7 3.4-1.5l0.2-0.9zm-21.5 7.7l7.8-2.2 0.5-3.3z"/><path class="k" d="m878.3 288.7c-5.2-0.2-20.3-0.2-26.2 0.4-5.9 0.6-29.5 6.7-29.5 6.7 10 0.5 18.2-0.9 26.4-2.5 1.4-0.3 27-0.4 27-0.4 0 0-22.2-0.6-21.9-0.6q0.7-0.2 1.5-0.3c7-1.3 14.1-1.7 21.3-1.9 11.7-0.3 43.7 0.3 43.7 0.3 0 0-31.1-1.3-42.3-1.7z"/><path class="w" d="m851.6 284.4l2.8-1.8-0.2-0.8-2.3 1 2.2-1.4-0.4-2.5-1.8 0.7 1.7-1.1-0.5-3.4-1.5 0.4 1.4-0.9-0.2-0.8-0.9 0.4 0.9-0.6-0.5-2.8-0.9 0.4 0.9-0.6-1.1-6.1-0.9 5.3 0.8 0.4-0.8-0.1-1 5.8 1.6 0.9-1.7-0.5-0.5 2.8 2.4 1.3-2.4-0.8-0.2 0.6 2.9 1.5-3-0.6-0.7 3.8 2.8 1.1-2.9-0.6-0.2 1.3 2.9 1-3-0.2-0.4 2.2h8.7l-1.1-6.1z"/><path class="x" d="m869.9 274.6l-4.3 1.8 4.2-2.7-2.3-13-2.9 0.8 2.8-1.8-0.8-4.6-2.1 0.5 1.9-1.3-1.9-11-1.6 9.5 1.4 0.7-1.5-0.1-1.7 9.9 3.1 2.7-3.3-1.5-0.9 5.1 4.3 2.3-4.4-1.4-1.7 9.6 5 2-5.2-1-0.3 2.2-1 5.5h15.7z"/><path class="y" d="m835.3 273.8l-2.9 14.6h5.7z"/><path class="z" d="m835.3 285v11.4"/><path class="l" d="m891.8 284.5l13.4-3.9 67.9 1.7z"/><path class="A" d="m1109.5 275.5l-3.8-21.9-6.5 2.7 6.3-4.1-3.4-20-4.5 1.1 4.2-2.7-1.2-7.2-3.1 0.8 2.9-1.9-2.9-17-2.6 14.7 2.1 1.1-2.2-0.2-2.6 15.2 4.7 4.3-5.1-2.3-1.3 7.8 6.6 3.6-6.8-2.3-2.6 14.8 7.6 3.1-7.8-1.5-0.6 3.4-1.5 8.5h11.1v6.6h2v-6.6z"/><path class="B" d="m1005.1 275.3l-3.3-19.4-5.9 2.4 5.6-3.7-3-17.7-4 1 3.8-2.4-1.1-6.3-2.8 0.6 2.6-1.6-2.6-15.1-2.2 13 1.8 1-2-0.2-2.3 13.5 4.3 3.7-4.6-2-1.2 6.9 5.9 3.2-6.1-2-2.2 13.1 6.7 2.8-6.9-1.4-0.6 3.1-1.3 7.5h9.8v5.8h1.8v-5.8z"/><path class="C" d="m1067.2 279l-2.3-13.4-4 1.7 3.9-2.5-2.1-12.3-2.8 0.7 2.6-1.6-0.7-4.4-1.9 0.5 1.8-1.2-1.8-10.4-1.6 8.9 1.3 0.7-1.4-0.1-1.6 9.3 2.9 2.6-3.1-1.4-0.8 4.8 4 2.2-4.1-1.4-1.6 9.1 4.7 1.9-4.9-1-0.3 2.1-0.9 5.2h6.8v4.1h1.2v-4.1z"/><path class="D" d="m1188.7 268.5l-5-29.2-8.8 3.6 8.4-5.5-4.5-26.7-6.1 1.5 5.7-3.6-1.6-9.6-4.2 1.1 3.9-2.6-3.9-22.7-3.4 19.6 2.8 1.5-3-0.3-3.5 20.4 6.4 5.6-6.8-3.1-1.8 10.5 8.8 4.8-9.1-3-3.4 19.7 10.2 4.2-10.6-2.1-0.8 4.6-1.9 11.3h14.8v8.8h2.6v-8.8z"/><path class="E" d="m1142.9 257.9l12-7.8-0.6-3.4-10.3 4.3 9.9-6.4-1.9-10.8-8 3.4 7.8-5.1-2.6-14.9-6.3 1.8 5.9-3.9-0.6-3.5-4.2 1.8 4.1-2.7-2.1-12.1-3.9 1.6 3.8-2.5-4.6-26.7-4 23 3.3 1.8-3.5-0.3-4.4 25.5 7 3.8-7.2-2.4-2.1 12.3 10.3 5.6-10.7-3.5-0.5 2.7 12.3 6.7-13-2.7-2.8 16.4 12 4.9-12.4-2.5-0.9 5.5 12.6 4.5-13.2-0.9-1.7 9.7h37.8l-4.6-26.8z"/><g style="opacity:0"><path class="F" d="m217.8 382.6q0.3 1.2 0.6 2.4c10.4 3.7 21.6 4.2 32.5 4.6-5.8 1.1-11.6 2.8-17 5.1-0.2 1.4 1.3 2.3 2.6 2.4 1.4 0.1 2.7-0.3 4.1-0.3 3.3 0.2 5.4 3.5 7.6 6.1 4.4 5.4 11.2 8.7 18.1 9.2 2.7 0.1 5.8 0 7.8 1.8 1.2 1.2 1.7 2.9 2.8 4.2 1.8 1.9 4.5 2.4 7.1 2.8 17 2.2 34.4 1.8 51.3-1.1 1.9-0.3 3.8-0.7 5.2-2 1.4-1.3 1.8-3.8 0.3-5-0.6-0.6-1.7-0.8-2-1.7-0.5-1 0.5-2.1 1.5-2.5 1.1-0.4 2.2-0.4 3.3-0.8 3.2-1.2 2.3-4.8 4.2-7 2.1-2.2 6.2-2.8 9-3.2q5.6-0.9 11.3-1.2c3.8-0.2 8.2-0.6 10.2-3.8q-7.5-0.9-14.9-1.8c2-2.5 5.8-2.1 9-1.9 4.1 0.4 8.4 0.2 12.3-1.3 1.2-0.5 8.2-6.8 7.9-6.9-31.6-3.5-63.4-5.9-95.2-7.2"/><path class="G" d="m383.5 364c-2.6-0.8-29.7-6.4-33.7-7.2-3.9-0.8-8.5-13.5-10.5-17.4-2-4-16-11.2-21.3-12-5.3-0.7-53.3 4.8-55.9 8-2.7 3.2-6.8 18.2-6.8 18.2 0 0-12.4 4-17 6.4-4.6 2.4-21.7 22.2-21.7 22.2h31.6 143.9c0 0-6-17.4-8.6-18.2z"/><path class="H" d="m334.3 344.1l-32.4 1.5 37.4 3.2-29.5 2.7 32.1 1.9-18.2 1.4 25.2 1.5c-3.7-2.3-7.8-13.3-9.6-16.9-0.5-1-1.7-2.1-3.3-3.3l-13.7-1.4-19.1-3.3-41.1 4 13.8 5.4z"/><path class="l" d="m388.8 373.4c-1.8-4.5-4-9-5.3-9.4-2.6-0.8-29.7-6.4-33.7-7.2l-107.1 3.3c0 0 137.1 14.1 146.1 13.3z"/><path class="H" d="m242.7 360.1c27.2-0.1 120.8 2.6 120.8 2.6l-35.9 3.3 55.3 7.1c0 0-70.3 3.3-97.3 2.6l20.5-3.9-41.1-3.8 30.6-1.8z"/><path class="l" d="m280.8 338.7l38.4 0.2-12 3.1 32.1-2.6c-2-4-16-11.2-21.3-12-5.3-0.7-53.3 4.8-55.9 8 0 0 46.5-0.7 47.5-0.7 0.9 0-28.8 4-28.8 4z"/><g style="opacity:.3;mix-blend-mode:multiply"><path class="I" d="m221 304.4q-16.6 1-33.1 2c-2.5 0.2-5.1 0.4-7.2 1.7 6.2 2.7 12.9 3.3 19.6 3.9q8.4 0.7 16.8 1.4c-3.4 2.5-8.8-0.4-12.5 1.9 2 1.1 4.2 1.7 6.5 1.7 1.2-0.1 2.4-0.2 3.5 0.3 0.7 0.4 1.3 1.1 2 1.5 2.1 1.2 4.9-0.1 6.8 1.3 0.5 0.4 0.9 0.9 1.4 1.4 0.6 0.5 1.3 0.8 2.1 1.1 6 2.3 12.7 2.7 19 1.1 1.4-0.3 3.1-1.3 2.7-2.7-0.1-0.6-0.7-1.1-0.8-1.7-0.1-1.2 1.4-1.9 1.6-3.1 0.2-1.3-1.3-2.2-2.5-2.4-1.3-0.3-2.8-0.3-3.6-1.4 1.2-2.4 5.9-0.2 7.1-2.6 0.2-0.4 0.2-0.8 0.5-1.2 0.4-0.5 1.3-0.8 1.4-1.4 0-0.7-0.7-1-1.3-1.2-5.3-1.8-10.8-2.8-16.3-3.2"/></g><path class="G" d="m246.1 296.2c-0.6-2.7-2.3-7.5-2.3-7.5 0 0-10.5-3.8-15.4-2.8-2.9 0.6-9 5.3-11.7 6.4l-13.2 1.3c-4.9 2.5-23.4 13.3-23.4 13.3h72.8c0 0-3-10.6-6.8-10.7z"/><path class="H" d="m247.3 299.2l-1.2-3-42.6-2.6c0 0 1.9 3.1 3.4 3.6 1.4 0.5 12.4 2.8 12.4 2.8h7.8l-5.8 1c0 0 12.4 2.3 13.5 2.3 1 0 9 0.7 9 0.7l7.5-1.6z"/><path class="l" d="m244.6 297.7l-19 0.5 18.2 1.2-10.9 0.9 7.4 2.1h11c-1.2-2.9-3.1-6.1-5.2-6.2l-36.4-2.2z"/><path class="l" d="m239.4 288.9l-3.3 1.1 5.7 0.5 2-1.8c0 0-10.5-3.8-15.4-2.8 0.4-0.1 3.9 2.8 4.5 3 0.6 0.1 6.5 0 6.5 0z"/><g style="opacity:.3;mix-blend-mode:multiply"><path class="J" d="m989.7 330.1c-3.1 1.5-6.1 3.5-8.8 5.9 1.9 0.2 3 2.7 4.5 4.2 3 2.8 7.4 1.3 11 2.8 0.1 1-0.9 1.6-1.7 1.7-0.8 0.1-1.8 0.1-2.3 0.8-0.8 1.1-0.2 2.7 0.5 3.7 2.2 3.2 5.8 4.9 9.1 4.4-0.6 2.3 0.8 4.9 2.6 6 1.7 1 3.8 1 5.8 0.9 3-0.1 6-0.3 9-0.3 1.2 0 2.6-0.2 3.8 0 0.4 0.1 2.4 1.3 2.6 1.3q-1.2 0.4-2.3 0.9c-0.4 0.1-0.9 0.5-0.8 0.9 0.1 0.4 0.4 0.5 0.7 0.5 2.6 0.2 5.2-0.2 7.6-1.2 0.2-0.1 0.4-0.2 0.5-0.4 0.2-0.5-0.3-1-0.8-1.1-0.4-0.1-1-0.2-1.1-0.8 2.4-1.8 4.8 0.2 4.6-3.9-0.1-3.2 2.8-5.2 5.2-6.4q-3.9-1.4-8-2.1c4.1-1.5 8.5-1 12.8-1.2 4.3-0.2 8.9-1.4 11.7-5.3-4.3-1.2-8.7-1.8-13.1-1.6 0-1.1 1.1-1.4 2-1.5 12.5-0.3 25.5 3 37.3-2.3-14.1-3.3-28.2-5.7-42.5-7.2"/></g><path class="G" d="m992.3 315.6c0.9-4.8 3.6-13.2 3.6-13.2 0 0 17.1-6.6 25.2-4.8 5.9 2.4 11 11.9 15.4 13.8l14.9 2.6c8.1 4.3 30.3 20.1 30.3 20.1h-100.6c0 0 5-18.4 11.2-18.5z"/><path class="H" d="m990.3 320.8l2-5.2 59.1-1.6c0 0-5.6 3.8-8 4.6-2.4 0.9-7.6 3.6-7.6 3.6h-12.6l9.3 1.7c0 0-20.1 3.9-21.8 3.9-1.8 0-14.8 1.2-14.8 1.2l-12.1-2.7z"/><path class="l" d="m994.6 318.1l31 0.9-29.7 2.1 17.8 1.6-12 3.6h-17.9c2-5 5-10.6 8.5-10.7l49.1-1z"/><path class="l" d="m1003.1 302.8l5.4 2-9.2 0.9-3.4-3.3c0 0 17.1-6.6 25.2-4.8-0.7-0.1-6.4 5-7.4 5.2-1 0.1-10.6 0-10.6 0z"/><path class="G" d="m-60.4 359.6h272.3l-52.5-33.3-18.9-29.9-65.8-12.4-10.7-12.4-114-38.3z"/><g style="opacity:.3;mix-blend-mode:multiply"><path class="K" d="m-60.4 359.2c0 0 270.7 0 272.3 0-4.7 0-9.6 5.8-13 8.5-3.6 2.8-9.5 6.5-13.9 7.9-1.7 0.5-3.5 0.4-5.2 0.6-3.9 0.5-7.7 2-10.8 4.5 0.8 1.8 3.2 1.7 5.1 2 1.9 0.4 4 2.4 2.7 3.9-0.5 0.5-1.2 0.6-1.9 0.7-16.1 2.2-32.8-1.2-48.5 2.7-1.1 0.3-2.4 1-2.2 2 0.1 1 1.3 1.4 2.3 1.5q15.5 1.9 31 3.7c0.1 3.2-5.2 5.4-3.9 8.3 0.7 1.6 3.2 2.3 3.1 4-0.1 1.4-1.7 1.9-3 2.3-8.2 2.4-10.2 11.2-17.9 12.6q-18.5 3.2-37.3 4.9c-9.6 0.8-20 1.7-27 8.2-2.4 2.1-4.3 4.8-6.7 7-5.6 4.8-13.4 5.8-20.7 7.3-21 4.2-40.5 13.3-60.6 20.4-8.6 3-22.2 9.5-31.4 7.9-9.5-1.6-3.9-9.6-3.9-16.3 0.1-29.3-4.9-59.5-7.3-88.8q-0.6-7.9-1.3-15.8z"/></g><path class="H" d="m140.5 296.4l-24.7 5.1h-43.3-23.1l18.4 10.3 35.2 3-17.4 1-21.5-0.5 23.9 8.8 21.8 1 30.9 2.5-40.7 2.6 39.9 2.6 19.5-6.5z"/><path class="H" d="m74.7 284l-10.7-12.4-74.8-2.8 58.8 11.2-45.1 1.7z"/><path class="H" d="m-3 321.1l38.4 5.1-20.4 3.5 46.5 7.4 25.6 10.6-18.4-16.8-28.8-9.8z"/><path class="l" d="m159.4 326.3l-19.5 6.5h23.3l-8 3.4 56.7 23.4z"/><path class="l" d="m140.5 296.4l-65.8-12.4c0 0-46.1-1.5-44.9-1.4 1.2 0 44.9 4.6 44.9 4.6l-25.2 2.3 54.2 6.9z"/><path class="l" d="m-12.4 245.9l76.4 25.7-65.3-2.4 36.3-2.9z"/></g><path class="L" d="m710.7 341.2c-0.2-0.6-0.9-0.9-1.6-1.1-3.8-1-7.7-1.1-11.6-0.3 1.4 0.1 2.9 0.2 4.1 0.9q-5.7 0.3-11.3 0.6 0.2 0.6 0.4 1.2c-2.1 0.6-4.3 0.6-6.4 1.1-8.7 2.2-17.5 3.6-26.4 4.8q0.4-0.4 0.7-0.8c0.1-0.2 0.3-0.4 0.2-0.6-0.1-0.3-0.4-0.3-0.6-0.4q-4.2-0.4-8.5-0.8c-0.2-0.5 0.5-0.9 1.1-1 3-0.6 6.1-0.2 9.1-0.2 0.8 0 8-0.6 5.3-2.6-1.4-1.1-3.4-0.9-5.3-1-1.3-0.1-3.3-0.3-4.3-1.1-0.3-0.3 2.3-0.2 2.3-0.2 1 0 3 0.4 3.2-0.6 0.2-1-4.7-1.4-6.4-1q1.5-0.4 2.9-0.7c0.4-0.1 0.8-0.3 0.7-0.7 0-0.2-0.3-0.3-0.5-0.4-1.9-0.7-3.9-1.1-5.9-1.3 0.4-0.1 0.4-0.7 0.1-1-0.3-0.4-0.7-0.5-1.1-0.5-4.3-0.8-8.7-0.3-13 0.1-2.1 0.3-4.3 0.4-6.5 0.6-1.6 0.1-3.1 0.7-4.7 0.8-2.4 0.1-5 0.6-7.4 0.2-1.7-0.3-3.2-0.9-4.9-1-5.2-0.2-10.6 0-15.6 1.5q1.1 0 2.3 0.1c0.1 0.2-0.2 0.4-0.4 0.4-0.9 0.2-1.8 0.1-2.6 0.3-0.8 0.2-1.7 0.8-1.8 1.7 1.1-0.4 2.3-0.4 3.4-0.1-0.8 0.6-1.9 0.5-2.9 0.6-1 0.1-2.1 0.5-2.4 1.4q4 0.2 7.9 0.7c0.5 0.1 1.1 0.4 1 0.8-0.1 0.4-0.6 0.5-1 0.5-2.9 0-5.8 0.2-8.7 0.6-1.7 0.1-4.5 0.1-5.8 1.2l-0.4 1.4c0.3-0.2 1.1 0.1 1.1-0.4 0 1.1 12.9 1 14 1.1q-3.7 0.5-7.4 1c-0.3 0-0.6 0.1-0.7 0.4-0.1 0.3 0.3 0.6 0.5 0.7q0.7 0.4 1.5 0.7c-7.7-0.9-15.3-1.9-22.9-3.4-1.8-0.4-3.8-0.4-5.7-0.8q0.2-0.5 0.4-0.9-5.1-0.2-10.2-0.4c1.1-0.5 2.4-0.6 3.7-0.7-3.4-0.6-7-0.5-10.4 0.2-0.6 0.1-1.2 0.3-1.4 0.8-0.2 0.4 0.1 0.9 0.5 1.2 0.4 0.2 0.9 0.3 1.4 0.4 2 0.3 4.1 0.2 6.2 0.1-0.1 0.4-0.4 0.7-0.8 0.9 2.5 0.2 5.1 0.3 7.7 0.2 1 0 1.6-0.3 2.5-0.5 1.3-0.3 2.8 0 4 0.2q13.4 1.7 26.7 3.5 1.6 0.7 3.2 1.4c0.2 0 0.4 0.1 0.5 0.3 0.1 0.2 0.1 0.4 0.2 0.7 0.1 0.8 1.2 1.2 2.1 1.1 0.6 0 2.9-0.6 3 0.5 0.1 0.5-2.1 1.5 0.1 1.8 1.6 0.2 3.3 0.2 4.8 0 0.7-0.1 3.8-0.6 4.2-1.1-0.7 0.9 0.3 2.2 1.3 2.5 1.1 0.3 2.3 0.3 3.1 1-0.8 1.2-0.3 2.9 0.8 3.8 1.1 0.8 2.5 1.1 3.9 1.4-1.4 1.2-3.3 1.4-5.2 1.6-1.5 0.2-3.1 0.2-4.7 0.3l-1 0.1q-0.3 0.1-0.6 0.1c-1 0.2-2.2 0.4-3 1.1-1.5 1.2 0.3 1.4 1.4 1.4 2.7 0.1 5.3 0 8-0.1 0.5 0 1 0 1.4 0.3 0.4 0.3 0.4 1-0.1 1.2q1 0.3 1.9 0.8c-0.4 0.5-1 1-1.6 1.3-0.2 0.6 0.3 1.1 0.9 1.4 1.2 0.6 2.6 0.9 3.9 0.8 0.7-0.1 1.5-0.1 1.8 0.5-0.6-0.1-0.9 0.9-0.4 1.4 0.5 0.4 1.2 0.3 1.8 0.3q2.3-0.3 4.6-0.6c0.4-0.1 0.9-0.4 0.7-0.7-0.7-0.2-1.5-0.3-2.2-0.2 0.7-0.1 4-0.5 4.4-1.2 0.8-1.4-1.8-1.7-2.7-1.9 1.3 0.2 3.7-0.9 2.2-2.1-1-0.8-3.2-0.6-4.5-0.7 1.6-0.4 4.2-0.4 6.1-1.1q0.8-0.3 1.3-0.7-0.1 0-0.1-0.1l-1.5-0.6c-1.7-0.2-3.6 0.2-4.7-1.3q0.5-0.2 0.9-0.4c-0.4 0 0-0.6 0.4-0.6q5-0.9 9.9-1.7l2.6-0.4q0.2-0.1 0.4-0.1c1-0.2 3.1-0.7 3.5-1.9q-0.3-0.2-0.6-0.3l0.8-1.5c-1.5 1-1.9 1.1-3.6 0.8-1.3-0.2-2.8 0.1-3.9-0.9q2.1-0.1 4.2-0.1c0.5 0 1.2-0.5 0.9-0.8-0.6 0.1-1.2 0-1.8-0.2q4.9-1.9 9.5-4.4c-1.6-1.3-4.3 0-6-1.2 1.7-0.5 3.6 0.2 5.3-0.5q0.6-0.2 1-0.6 14.9-2.5 29.8-4.9c1.4-0.3 3.1-0.6 4.5-0.3 1 0.3 1.7 0.7 2.8 0.8 2.8 0.1 5.7 0 8.6-0.3-0.5-0.3-0.9-0.8-1-1.3 2.3 0.1 4.7 0.2 7-0.2 0.5-0.1 1.1-0.2 1.5-0.5 0.5-0.4 0.8-1 0.6-1.6z"/><path class="G" d="m599.9 306.7c0 0 2.4 12.8 3 13.3 0.7 0.6 10.6 8.4 10.6 8.4l14.7-9.7c0 0-7.5-6.5-12.4-8.7-5-2.3-8.4-3.3-15.9-3.3z"/><path class="H" d="m599.9 306.7c0 0 3 11.2 5 13 5.2 3 13.6 8.3 13.6 8.3l-12.9 1.3-10.6-11.9c0 0 2-8.8 4.9-10.7z"/><path class="M" d="m599.1 305.5c0 0-4.1 5.4-4.5 12.4h1.7c0 0 0-5.9 3.6-11.2z"/><path class="N" d="m599.1 305.5c19.3 0 27.6 12.4 27.6 12.4h-2.1c-8.4-11.2-24.7-11.2-24.7-11.2z"/><path class="O" d="m599.1 321.5h34l-9.9-3.6h-27.3z"/><path class="G" d="m599.1 321.5h34l-5.6 1h-27.3z"/><path class="O" d="m609.2 330.4h43.3l-14.3-6.1h-39.1z"/><path class="P" d="m602.3 325.8l-7.7-7.9c0 0 1.3 6.4 2.9 9 4.7 8.3 10.9 12.6 13.4 13.8 1.9 0-8.6-14.9-8.6-14.9z"/><path class="Q" d="m625.1 317.9h-2.1l22.8 10.1h2.6z"/><path class="M" d="m594.6 317.9l7.7 7.9 2.6-0.1-8.6-7.8z"/><path class="R" d="m618.3 315.5c0 0-5.2-4.4-7.1-5.3-1.7-0.7-3.9-1.6-5.9 0.1-2.1 1.8-1.6 6.8-0.5 7.6 0.4 0.2 1.1 2.4 2.5 4.2 1.9 2.4 2.7 4.2 5.3 4.9 3.2 2.4 6 3.7 9.4 3.9 4.7 0.2 7.1-0.5 8.4-1.1 0.7-0.3 1.5-0.2 2.3 0.1 1 0.6 2.9 1.1 5.9 0.4 4.6-1.1 4.5-8.5 3.7-12"/><path class="S" d="m609.5 301.2l-0.1-0.6 0.3-0.7-42.9 6c-0.3-0.4-0.9-0.8-1.5-1.1-2.1-1-12.2 0.2-13.9 0.3-1.7 0.1-4.4 1-4.4 3.5 0 2.5 2.3 3.1 4.3 2.9 2-0.2 13.4-1.5 14.8-2.4 0.8-0.6 1.2-1.2 1.2-1.9 16.3-2.3 41.8-5.9 42.2-6z"/><path class="N" d="m551.4 305.9c1.7-0.1 11.8-1.3 13.9-0.3 0.6 0.3 1.2 0.7 1.5 1.2l42.6-6v-0.2l0.3-0.7-42.9 6c-0.3-0.4-0.9-0.8-1.5-1.1-2.1-1-12.2 0.2-13.9 0.3-1.7 0.1-4.4 1-4.4 3.5 0 0.1 0.1 0.3 0.1 0.4 0.2-2.2 2.7-2.9 4.3-3.1z"/><path class="N" d="m609.5 301.2z"/><path class="S" d="m644.7 301.2l0.1-0.6-0.3-0.7 42.9 6c0.3-0.4 0.8-0.8 1.5-1.1 2-1 12.2 0.2 13.9 0.3 1.7 0.1 4.4 1 4.4 3.5 0 2.5-2.3 3.1-4.3 2.9-2.1-0.2-13.4-1.5-14.8-2.4-0.8-0.6-1.2-1.2-1.2-1.9-16.3-2.3-41.8-5.9-42.2-6z"/><path class="N" d="m702.8 305.9c-1.7-0.1-11.9-1.3-13.9-0.3-0.7 0.3-1.2 0.7-1.5 1.2l-42.6-6v-0.2l-0.3-0.7 42.9 6c0.3-0.4 0.8-0.8 1.5-1.1 2-1 12.2 0.2 13.9 0.3 1.7 0.1 4.4 1 4.4 3.5 0 0.1-0.1 0.3-0.1 0.4-0.3-2.2-2.7-2.9-4.3-3.1z"/><path class="N" d="m644.7 301.2z"/><path class="N" d="m613.4 298.7l0.1 0.1q0-0.1 0.1-0.1l-0.2-0.2z"/><path class="T" d="m628.8 287l1.3 3.6c0 0-1 0.8-2.9 0.8-2.5 0-3.1-0.6-3.1-0.6v-1.4c0 0-0.5-0.1-0.8-0.6-0.4-0.5-1.4-4-1.3-4.8 0-0.8 1-2.2 1-2.2"/><path class="T" d="m610.8 295.4c0 0-4.1 3-4.5 5-0.5 2-0.7 4.6 0.3 5.3 3.4 2.2 7.5-0.7 7.5-0.7l-1.5-6.2c0 0 3.4-3.4 2.7-4.1-1.4-1.5-4.5 0.7-4.5 0.7z"/><path class="U" d="m629.8 283.4c0.1 0.5 0.2 0.9 0.4 1.3 0.3 0.3 0.6 0.7 0.5 1.3-0.2 0.4-0.6 0.5-0.9 0.8-0.4 0.4-0.5 0.9-0.8 1.3-0.4 0.4-0.9 0.6-1.4 0.5-0.4-0.1-0.7-0.5-1.1-0.6-0.5-0.1-1 0-1.5 0.1-0.5 0-1.1-0.1-1.4-0.6-0.1-0.3-0.2-0.8-0.4-1.1-0.1-0.1-0.2-0.2-0.3-0.3-0.1-0.2-0.1-0.4-0.1-0.6-0.1-0.2-0.3-0.4-0.4-0.2-0.2-0.8-0.1-1.7 0.2-2.4 0.2-0.8 0.6-1.5 1-2.1"/><path class="V" d="m640.4 303.9l5.1 2.1c0 0 2-0.5 2.9-1.4 0.9-1 0.9-4.1 0.4-4.7-3.8-4.2-8.1-7.5-13.3-9.2-2.4-0.8-6.1-0.8-7.2-0.7-3.3 0.3-7.5 0.2-10.1 2.1-1.4 0.9-8.2 7-8.5 7-0.3 0-1.1 0-1.1 0 0 0-2.2 5.5 0.4 7.9 1.9 0.3 3.3-0.1 4.9-0.5 1.6-0.4 5-4 5-4l-0.1 3.7 21.5-1.3z"/><path class="G" d="m638.5 296.2c0.5 1.6 1.4 4.2 2.2 6.5 1.2 3.9 2.5 7.7 2.5 11.9q-0.1 4.2-0.4 8.3c0 0-4.6 4.6-12.1 4-7.5-0.6-11.6-2.1-13.3-5.1-1.7-3-1.8-6.9-1.7-7.3 0.5-2 2.5-2.6 2.5-4.1 0.1-1.4 0.1-4.6 0.4-6.5 0 0 3.2-2.4 3.4-4.6 0.2-4.2-1.5-8.3-1.5-8.3 0 0 0.9-0.6 1.6-0.4 0.3 0.2 1.5 3.5 1.9 7.8 3.1 1.5 7.7 1.2 12.4-0.8 0.2-2.1-0.7-5.5-2.4-7.4 0.9-0.2 2.3 0.8 2.3 0.8 0 0 1.2 2.2 2.2 5.2z"/><g style="opacity:.3;mix-blend-mode:multiply"><path class="G" d="m643.1 313q0 0 0-0.1c-0.2-3-1-5.8-2-8.7l3.8 1.6c0.3-0.4 0.8-0.7 1.4-0.9 0.9-0.3 1.8-0.8 2.6-1.4 0.1-0.4 0.2-1 0.2-1.5q-0.1-0.4-0.2-0.7c-0.1-0.1-0.9-1.1-0.9-1.1 0 0.3-0.2 0.5-0.4 0.7-0.7-2.1-2.5-3.5-4.2-4.8 0.1 0.6 0.1 1.1-0.1 1.7-1.6-2.2-3.5-4-5.7-5.4-0.3-0.2-0.9-0.2-0.8 0.2-0.4-0.9-1.1-1.6-2-1.8q0 0.2 0.1 0.4-2.3-0.6-4.6-1.2-0.2 0-0.5 0l-0.7-2.1c0.2-0.4 0.4-0.8 0.7-1.1 0.3-0.3 0.7-0.4 0.9-0.8 0.1-0.6-0.2-1-0.5-1.3q0-0.1 0-0.2-0.7-0.3-1.4-0.7c-1.1-0.5-2.4-1-3.6-0.7-1.2 0.4-2.2 2-1.5 3.1 0.1 0.3 0.3 0.5 0.4 0.8 0.1 0.3 0.1 0.7 0.1 1 0.1 0.3 0.3 0.7 0.6 0.6q0.1 0.7 0.1 1.4 2.4 0.3 4.8 0.6-3.8 0.2-7.6 0.3c-0.1 0-0.3 0-0.4 0.2-0.2 0.1-0.2 0.3-0.2 0.5-0.4 0.1-0.8 0.2-1.2 0.4-0.2-0.1-0.4 0.1-0.7 0.5-1 1-1.9 2-2.9 2.9-2 1.7-4.3 3.2-5.5 5.8-0.3-0.3-0.4-0.7-0.4-1.1q-0.9 1.5-1.3 3.3c-0.5-0.8-0.8-1.8-0.7-2.8-0.6 1.3-1 2.7-0.9 4.1-1-1.1-1-2.9-0.9-4.5-0.5 1.9-0.4 3.9 0 5.7q0.8 0.4 1.6 0.6 0.1 0.2 0.4 0.5c1.9 0.3 3.3-0.1 4.9-0.5 1.6-0.4 5-4 5-4v0.8q0.2-0.2 0.4-0.4c-0.1 2.2 0.2 4.4 0.9 6.5 0.4 1.1 0.9 2.4 0.5 3.5q-0.8-1.3-1.5-2.5 0 2.3-0.4 4.6-0.2-1.2-0.7-2.4c-0.3 1.4-0.4 2.9-0.4 4.4-0.6 0.1-0.9-0.3-1.3-0.8-0.2-0.1-0.9-0.7-0.9-1q0 1.5 0 3c0 0.3 0 0.5-0.1 0.7-0.1 0.3-0.4 0.6-0.7 0.7q-0.8 0.5-1.6 1c-0.5 0.3-1 0.6-1.5 0.6-1.5 0.3-2.8-0.9-3.9-1.9q0.6 1.4 1.1 2.8c-0.4-0.4-1.6-1.4-2.2-1q0.1 0.2 0.3 0.4 0.2 0.3 0.4 0.6c1.2 1.5 2 2.8 3 3.7q0.6 0.5 1.4 0.8 0.5 0.2 0.9 0.4 0 0 0.1 0 0.7 0.5 1.4 1 0.2 0.1 0.3 0.2 0.8 0.5 1.5 0.9c3.9 1.3 8.2 1.2 12.2 0.5 5.1-0.9 10-2.8 14.5-5.5q0.1-0.6 0.1-1.1 0 0 0 0 0.1-0.1 0.1-0.1 0.3-4.1 0.4-8.3 0-0.4-0.1-0.8 0-0.4 0-0.8z"/></g><path class="W" d="m609.2 300.8c0 0-0.1-0.8 0.5-1.7"/><path class="W" d="m618.9 302.5c0 0 0.5-1 1.3-1"/><path class="X" d="m605.9 317.9c0 0 0.6 0.1 1.2 0.5 0.6 0.4 3 6.5 5.9 8.6"/><path class="Y" d="m631.4 283.6c-2.2 1.4-7.5 1.9-11.2 0.9q0.5-0.4 1-0.8 0.2-0.1 0.3-0.3c0.1-0.2 0.1-0.4 0.1-0.6 0.1-0.6 0.4-1.2 0.7-1.8 0.4-0.6 0.7-1.2 1.2-1.6 1-1 2.4-1.1 3.7-0.6 1.5 0.6 2.2 2.2 3 3.8 0.3 0.5 0.7 1 1.2 1z"/><g style="opacity:.3;mix-blend-mode:multiply"><path class="G" d="m630.2 282.6c-0.7-1.5-1.4-3-2.8-3.7-1.1-0.3-2.2-0.1-3.1 0.7-0.5 0.4-0.8 1-1.1 1.6-0.3 0.5-0.6 1.1-0.7 1.7-0.1 0.2-0.1 0.4-0.2 0.5q-0.1 0.2-0.2 0.3-0.5 0.4-1 0.8c1.6 0.4 3.5 0.6 5.3 0.5 2-0.2 3.9-0.7 5-1.4-0.5 0-0.9-0.5-1.2-1z"/></g><path class="Z" d="m621.5 283.4c0 0 4.5 1.3 8.7-0.8"/><path class="M" d="m602.3 325.8l2.1-0.5c0 0 2.4 0.2 5.8-1.1 3.8-1.4 9.3-4.5 13.6-9.5 8.5-6.7 2.4 8.5 2.4 8.5l-15.2 6.5-5.3-2.3z"/><path class="a0" d="m639.5 305.5c9.7 3.1 20.5 15.3 22 17.8-2.2 6-8.4 15-14.8 17.4 0 0-32 0-35.8 0-7.1-5.6-8.6-14.9-8.6-14.9 14.2 1.6 17-13.9 37.2-20.3z"/><path class="a1" d="m603.7 330.4c3.4-0.4 6.8-1 9.9-2.4 3-1.6 5.7-3.8 8.4-5.9 2.7-2.1 5.4-4.3 8.3-6.2 3-1.8 6.2-3.2 9.7-3.8-3.4 1-6.4 2.5-9.3 4.5-2.8 1.9-5.4 4.1-8.1 6.3-2.8 2.1-5.4 4.3-8.7 5.8-3.3 1.3-6.8 1.7-10.2 1.7z"/><path class="a1" d="m605.3 333.9c3.2-0.3 6.3-0.9 9.3-1.9 2.9-1.1 5.8-2.7 8.6-4.2 2.8-1.5 5.5-3.2 8.2-4.9 1.4-0.8 2.8-1.6 4.3-2.3q2.2-1 4.5-1.8-4.4 2-8.4 4.7c-2.6 1.8-5.3 3.6-8.2 5.1q-2.1 1.2-4.3 2.2c-1.4 0.7-2.9 1.5-4.4 1.9-3.2 0.9-6.4 1.3-9.6 1.2z"/><path class="a1" d="m607.5 337.3c2.8-0.4 5.6-0.8 8.4-1.4 2.7-0.7 5.3-1.6 8-2.6 2.6-1 5.2-2 7.8-3.2 2.5-1.2 5.1-2.4 7.9-3-2.6 1-5.1 2.3-7.6 3.7-2.5 1.3-5.1 2.5-7.8 3.4-2.7 0.9-5.4 1.9-8.2 2.4q-4.2 0.7-8.5 0.7z"/><path class="a1" d="m609.9 339.7l7.2-0.6c2.4-0.2 4.8-0.5 7.2-0.8q3.6-0.5 7.2-1.2c2.4-0.4 4.8-0.9 7.3-0.8-2.4 0.4-4.7 1-7.1 1.6q-3.6 0.9-7.2 1.3c-4.9 0.6-9.8 0.7-14.6 0.5z"/><path class="a1" d="m660.4 326.4c-3.6-2.2-6.8-5.2-10-7.9-1.6-1.3-3.3-2.6-5.1-3.7q-2.6-1.7-5.7-2.8c4.3 0.6 8.2 3.1 11.4 5.8 3.3 2.7 6.2 5.8 9.4 8.6z"/><path class="a1" d="m658.1 330.2c-3.3-1.3-6.4-3.2-9.2-5.4-1.4-1.1-2.8-2.2-4.2-3.2-1.5-1-3-1.9-4.5-2.8q2.5 0.8 4.9 2.2c1.6 0.9 3 2 4.4 3q2.1 1.6 4.2 3.2z"/><path class="a1" d="m655.1 334.2c-2.7-0.6-5.3-1.6-7.6-2.9-1.2-0.7-2.4-1.4-3.5-2-1.2-0.7-2.4-1.3-3.6-2 2.7 0.5 5.2 1.9 7.5 3.1l3.6 1.9c1.2 0.6 2.4 1.2 3.6 1.9z"/><path class="a1" d="m650.8 338.3c-2.1 0.1-4.1-0.3-6.1-0.6-2-0.4-3.9-0.8-5.9-1.4 2-0.2 4.1 0 6.1 0.4 2 0.4 3.9 0.9 5.9 1.6z"/><path class="a1" d="m639.6 305.9c0.4 3 0.7 6 0.8 9 0.2 3 0.3 6.1 0.3 9.1-0.1 3-0.2 6.1-0.7 9.1-0.3 1.5-0.5 3-1.3 4.4-0.8 1.4-2 2.3-3.2 3.2 1-1 2.2-2.1 2.8-3.4 0.6-1.3 0.7-2.9 0.9-4.3 0.3-3 0.4-6 0.5-9 0.1-6-0.1-12.1-0.1-18.1z"/><path class="a2" d="m595.6 321.9c2.7 2.8 5.3 5.8 8.1 8.5-1.7-1.1-3.1-2.5-4.5-3.9-1.3-1.5-2.5-3-3.6-4.6z"/><g style="opacity:.5;mix-blend-mode:overlay"><path class="N" d="m602.6 326.2l-0.3-0.4-0.6-0.6z"/></g><path class="a3" d="m599 328.4c-0.9-2.2-2.1-6.3-2.6-8.6l-1.8-1.9c0 0 1.3 6.4 2.9 9 0.9 1.7 2 3.3 3.2 4.8-0.7-0.9-1.2-2.3-1.7-3.3z"/><path fill-rule="evenodd" class="a4" d="m385.3 443.6c-23.3 10.6-48.7 16.8-74.2 18.2l6.9-1.7c6.2 1.2 12.9-1.8 16.1-7.2 0.6-1.1 1.2-2.3 2.1-3.1 2.4-2 5.9-0.8 8.8 0.4 2.8 1.1 6.7 1.8 8.5-0.6 1.3-1.7 1-4.1 2.3-5.7 1.6-2 4.8-1.8 7.1-0.7 2.3 1.1 4.3 2.9 6.8 3.5 5.2 1.3 10.2-2.8 15.6-3.1zm203.4-75.6c-8.5 7.3-16.7 15.3-26.2 21.3-8.8 5.5-18.1 10.3-27.6 14.5-15.6 6.9-32 12.2-48.6 16.5-8.3 2.2-16.7 4.1-25.2 5.8q-13.6 2.8-27.2 6c3.9-1.9 8-3.3 12.1-4.4 2.1-0.5 4.2-0.9 6-1.9 5.1-2.6 7.7-8.9 13-10.7 4.7-1.5 10 1 14.6-0.6 4.5-1.6 7.6-6.7 12.4-6.8 2.5 0 4.8 1.3 7.3 1.5 3.8 0.3 7.1-2 10.7-3 3.7-1 7.6 0.1 11.5-0.5 6.8-1.1 12.8-5.5 17.6-10.3 1.1-1.1 2.3-2.2 3.7-2.9 4.8-2.6 11.7 0.5 15.7-3.1 1.6-1.5 2.3-3.6 3.9-5 2.5-2.3 6.3-2 9.5-3.1q1.2-0.5 2.3-1.2c5.3-3.2 8.5-10 14.5-12.1zm64.3 16.1c-1.3 2.6-3.2 3.3-4.8 5.7-2.3 3.7 0.6 9.6-2.8 12.4-1.8 1.5-4.5 1.3-6.5 2.7-1.6 1.2-3.3 3.3-4.2 5.1-0.8 1.9-1.4 3.9-2.8 5.4-2.4 2.3-6.5 2.4-8.6 4.8q4.5-5.4 9-10.9c3.1-3.7 6.2-7.4 8.8-11.5 3.4-5.4 7.8-12.2 10-18.2 1.9-5.5 2.6-9.8 3.7-15.4 1 7.3-1.2 9.3-1.1 14.7 0 1.3-0.2 4-0.7 5.2zm-30 36.4q0.1-0.1 0.3-0.3-0.2 0.2-0.3 0.3zm68.4-70c0 0.6-2.3 1.1-5.2 1.1-2.9 0-5.3-0.5-5.3-1.1 0-0.6 1.8-1.1 4.3-1.2 0.9 0.4 3.1 0.7 5.9 0.7q0.3 0.2 0.3 0.5zm-6.2-1.2q-0.4-0.2-0.4-0.4c0-0.6 3.4-1.1 7.6-1.1 4.1 0 7.5 0.5 7.5 1.1 0 0.6-3.4 1.1-7.5 1.1q-0.7 0-1.3 0c-0.8-0.4-2.7-0.7-4.9-0.7q-0.5 0-1 0zm-109.6-0.4c0 0.6-3.3 1.1-7.5 1.1-4.2 0-7.6-0.5-7.6-1.1 0-0.6 3.4-1.1 7.6-1.1 4.2 0 7.5 0.5 7.5 1.1zm-5.5 2.2c0 0.6-3.4 1.1-7.6 1.1-4.2 0-7.6-0.5-7.6-1.1 0-0.6 3.4-1.1 7.6-1.1 4.2 0 7.6 0.5 7.6 1.1zm127.2 3.5c0 0.4-1.3 0.7-2.9 0.7-1.6 0-3-0.3-3-0.7 0-0.4 1.4-0.7 3-0.7 1.6 0 2.9 0.3 2.9 0.7zm-109.1-17.5c0 0.3-1.3 0.6-2.9 0.6-1.6 0-2.9-0.3-2.9-0.6 0-0.4 1.3-0.7 2.9-0.7 1.6 0 2.9 0.3 2.9 0.7z"/><path fill-rule="evenodd" class="a5" d="m953.1 434.9c-0.5 1-1.9 1.1-3 1.1q-2.5 0-5.1 0c-0.8 0-1.9 0.2-2.1 1 0.7-0.1 1.4-0.2 2.1 0.1 0.6 0.2 1 1.1 0.6 1.6-0.2 0.4-0.8 0.5-1.3 0.5-2.4 0.1-5-1.2-7.1 0q1.8 0.1 3.4 0.7c0.2 0.1 0.4 0.2 0.5 0.4 0 0.2-0.2 0.3-0.4 0.5-1.5 1.1-3.4 1.9-5.3 2.2-1.7 0.2-3.4 0.1-5 0.8-1 0.4-1.8 1.1-2.7 1.8-3.2 2.4-6.7 4-10.2 6q-5.4 3.3-10.6 7.1c-3.7 2.7-24.6 17.1-42.9 29.6 0.4 0.2 0.9 0.4 1.3 0.6-0.8 2.9-5.8 4.2-8.3 4.6q-0.5 0.1-1 0.2c-7.6 5.1-14.1 9.5-17.9 12q0.1 0.1 0.2 0.1c-0.8 0.8-1.9 1.3-3.1 1.8-4.4 1.5-10.7 1.7-14.3 2.5 3 0.2 8.1-0.1 10.6 1.8 3.6 2.7-2.2 5.4-5.3 4.9 2.3 0.4 8.3 1.1 6.4 4.4-1 1.8-8.5 2.7-10.3 2.9 1.7-0.2 3.5-0.1 5.2 0.4 0.5 0.8-0.8 1.6-1.8 1.7q-5.4 0.7-10.8 1.4c-1.5 0.2-3.2 0.3-4.3-0.7-1.1-1-0.5-3.5 1-3.2-0.7-1.5-2.7-1.4-4.3-1.2-3.2 0.2-6.4-0.4-9.2-1.9-1.3-0.7-2.7-2-2.3-3.4 1.6-0.6 3-1.7 4-3.1q-2.2-1-4.5-1.8c1.1-0.4 1-2.1 0.1-2.9-0.9-0.7-2.1-0.7-3.3-0.7-6.4 0.2-12.6 0.4-19 0.3-2.5-0.1-6.8-0.5-3.3-3.4 1.9-1.6 4.8-2.1 7.2-2.5q0.7-0.1 1.5-0.2c-12.1-6-23.9-15.4-35.2-22.8-9.2-6-17.5-10.8-25.3-18.5-2.3-2.2-7.6-4.2-7.8-5.2-0.3-1 0.8-1.4 1.3-2.1-3-2.7-6.6-4.9-10.4-6.3-0.7-0.2-1.4-0.5-1.8-1.2-0.2-0.5-0.2-1.1-0.5-1.6-0.4-0.7-1.4-0.8-2.2-0.9q-3.1-0.2-6.2-0.4c-1.6-0.1-3.2-0.2-4.3-1.3-1-1.1-0.8-3.4 0.7-3.7-4.2-0.7-11.8 0.2-12.7-2.1-0.8-2.2 2.2-2 3.2-3-4.4-0.5-8.7-1.9-12.6-4.1-0.9-0.5-2-1.6-1.5-2.6 0.3-0.4 0.8-0.6 1.2-0.8 2.9-1 6-1.3 8.9-0.9l9.4-0.9c4.9 0.2 12.9 3.5 13.2 5.6 0.3 2.1-2 1.8-3.1 2.7 1.4 0.6 3.8-0.4 4.2 1.6 0.5 2.1-3.9 1.3-5.8 1.9 4.2 1.7 12.3 1.3 13.2 3.8 0.9 2.5-2.7 1.2-4 1.8-0.5 0.2-1.1 0.5-1 1 0.1 0.3 0.3 0.5 0.6 0.6 2.4 1.8 5.1 3.3 7.8 4.8 1.7 1 3.2 3.9 5.2 4 0.8 0.1 1.6 0.2 2.3 0.5 3.2-2.6 9.9-2.5 13.7-2.9 6.9-0.8 13.8-1.4 20.7-1.3 1 0 2.1-0.2 2.4-1.1 0.2-1.2-1.3-1.8-2.4-2q-9.3-1.2-18.6-1.6c0.6-2.3 3.3-3.3 5.6-3.5 2.3-0.2 4.9 0 6.8-1.3-2.6-0.7-5.3-0.7-7.9 0.1 0.2-2 2.2-3.4 4.2-3.9 2-0.5 4-0.3 6.1-0.7 0.5-0.1 1.2-0.6 0.9-1q-2.7-0.3-5.4-0.2c11.8-3.5 24.7-4.1 37-3.6 4.1 0.2 7.7 1.8 11.7 2.4 5.6 0.9 11.7-0.3 17.4-0.6 3.9-0.2 7.4-1.5 11.2-1.8 5.2-0.5 10.3-0.8 15.5-1.3 10.2-1.1 20.5-2.3 30.7-0.4 1 0.2 2 0.4 2.6 1.1 0.7 0.8 0.7 2.2-0.2 2.6 4.8 0.3 9.5 1.4 14 3.1 0.5 0.2 1 0.4 1.2 0.9 0.1 0.9-0.9 1.4-1.7 1.6q-3.4 0.8-6.8 1.6c3.9-0.9 15.5 0 15.1 2.4-0.4 2.3-5.2 1.5-7.7 1.4 0.1 0-6.2-0.2-5.3 0.5 2.4 2 7.1 2.5 10.2 2.6 4.3 0.3 9.1-0.3 12.5 2.3 6.4 4.9-10.8 6.3-12.5 6.3-7.2 0.1-14.5-1-21.7 0.4-1.3 0.2-3 1.3-2.5 2.5q10 0.9 20 1.9c0.6 0.1 1.3 0.2 1.5 0.7 0.2 0.5-0.1 1.1-0.5 1.5-1.7 2.4-3.7 4.9-6.4 6-3.9 1.6-8.5 0-12.6 1.1 4.1 2.9 10.5-0.2 14.2 2.9-7.2 4-14.7 7.5-22.4 10.4 1.3 0.5 2.8 0.7 4.2 0.5 0.8 0.8-0.9 1.9-2.1 1.9q-4.9 0.1-9.8 0.3c2.5 2.4 5.9 1.6 9 2.1 4.2 0.6 5 0.4 8.7-2q10.2-6.4 20.2-13.1 10.3-6.9 20.4-14.2 5-3.6 10-7.4c1-0.8 7.7-7 8.6-6.7q-2.8-1-5.6-1.9c2.4-1 5-1.6 7.6-1.8 0.2-1 0.1-2.1-0.3-3.1-1.5 0.6-3.6-0.3-4.1-1.9 7.6-3.7 16.1-5.5 24.6-5.1 1.4 0.1 2.9 0.2 4.2-0.5 0.9-0.5 1.6-1.4 2.5-2.1 2.8-2.1 6.8-1.1 10.1 0.1-4.3 2.2-8.8 4-13.4 5.4 0.5 0.5 2.8 1.8 2.4 2.5zm-130.9 89.2q0.1 0 0.1 0 0 0-0.1 0zm-18-26c-3.3-0.7-6.7-1.3-9.2-3.5-2.6-2.1-3.8-6.1-1.8-8.8-2-1.7-4.9-1.6-7.4-2.4-2.5-0.8-4.8-3.9-3.1-5.9-0.9 1.1-8.4 2.2-10 2.5-3.6 0.6-7.7 0.4-11.3 0-5.4-0.7-0.1-3-0.2-4.1-0.3-2.6-5.8-1.3-7.2-1.2-2.1 0.1-4.7-0.7-5.1-2.8-0.1-0.6-0.1-1.2-0.4-1.7-0.3-0.3-0.7-0.5-1.1-0.6q-7.7-3-15.1-6.8c-0.7-0.4-1.5-1-1.3-1.7 0.2-0.7 1-0.9 1.7-1q8.8-1.2 17.6-2.4c-2.7-0.2-33.3 0-33.3-2.5 0 1.2-1.9 0.5-2.6 1 0.9 0.8 2 1.3 3.1 1.6-0.6 1 0.4 2.2 1.3 2.9 5.4 4.7 37.5 26.4 47.6 33.3 3.1 2.1 6.2 4.1 9.5 5.9 1.7 0.8 3.4 1.6 4.9 2.7 3.7-0.2 7.5-0.2 11.2-0.6 4.3-0.6 8.9-1.1 12.2-3.9zm45.8-3.4q-11.8 2-23.5 4c-0.9 0.1-1.8 1.5-0.9 1.6q-1 0.4-2.1 0.8c2.6 3.6 7.1 2.6 11 3.1q7.7-4.7 15.5-9.5z"/><path class="a6" d="m677.6 423.4c-8.6 0.9-17.3-0.3-25.9 1.3-2.2 0.5-2.7 2.2-0.2 2.7 3.2 0.6 6.5 1.1 9.7 1.7-0.6 0.2-1.3 0.4-1.9 0.6-1.8 0.7-0.8 1.6 0.7 1.7 4.3 0 8.9 0.1 13.4 0.2q3.5 0.1 7 0.1c0.6 0 6.5 0.5 5.5-1-0.2-0.1-0.3-0.2-0.5-0.3q-1.3-0.5-2.7-0.7 7.1 0.1 14.2-0.3c0.4 0 1.8-0.1 1.6-0.8-0.2-1.1-3.2-1.7-3.2-1.7 0 0 12.2-0.1 13.5-0.3 0.6-0.1 2-0.3 2.4-0.9 0.9-1.4-5.6-1.5-6.4-1.5-1.6 0.1-3.1 0.3-4.7 0.3-1.5 0.1-3-0.4-4.5-0.4q1.3 0 2.6-0.4c0.2-0.1 0.4-0.2 0.4-0.5 0.1-0.3-0.4-0.4-0.7-0.5q-5.3-0.4-10.7-0.4c-1.5 0-3.1-0.1-4.7 0.1-1.6 0.3-3.2 0.8-4.9 1z"/><path class="a6" d="m656.5 432.7c0 0.5-2.2 0.9-4.9 0.9-2.7 0-4.9-0.4-4.9-0.9 0-0.5 2.2-0.9 4.9-0.9 2.7 0 4.9 0.4 4.9 0.9z"/><path class="a6" d="m701.1 436.3c0 0.5-4.4 0.9-9.9 0.9-5.4 0-9.8-0.4-9.8-0.9 0-0.5 4.4-0.9 9.8-0.9 5.5 0 9.9 0.4 9.9 0.9z"/><path class="a6" d="m707.8 439.8c0 0.3-2.5 0.5-5.5 0.5-3 0-5.4-0.2-5.4-0.5 0-0.3 2.4-0.5 5.4-0.5 3 0 5.5 0.2 5.5 0.5z"/><path class="a6" d="m661.2 430c0 0.5-1.6 0.9-3.6 0.9-2.1 0-3.7-0.4-3.7-0.9 0-0.5 1.6-0.9 3.7-0.9 2 0 3.6 0.4 3.6 0.9z"/><path class="a6" d="m716.2 429.1c0 0.3-1.5 0.6-3.3 0.6-1.8 0-3.3-0.3-3.3-0.6 0-0.3 1.5-0.6 3.3-0.6 1.8 0 3.3 0.3 3.3 0.6z"/><path class="a6" d="m947.2 422.4q-8.8 0.1-17.5 0.3c-1 0-2.1 0-3.2 0.1-0.5 0.1-1.2 0.3-1.1 0.8 0.1 0.3 0.5 0.4 0.8 0.5 1.6 0.5 3.3 0.7 5 0.7-3.9 0-7.7-0.3-11.6 0.3-2.3 0.4-2.8 1.9-0.2 2.3 3.5 0.5 6.9 1 10.4 1.4-0.7 0.2-1.4 0.3-2.1 0.6-1.9 0.5-0.8 1.3 0.8 1.3 9.4 0.3 18.9 0.3 28.3-0.3 0.1-0.7-1-1-1.9-1.1-0.8-0.1-1.8-0.1-2.3-0.6 2.2-1.1 5-0.9 7.6-1 4.1 0 8.2-0.5 12.2-1.4 0.4-0.1 0.9-0.3 0.9-0.6 0.1-0.4-0.6-0.6-1.1-0.7q-3.7-0.5-7.3-1c0.5-0.3 0.4-1-0.1-1.3-0.6-0.4-1.3-0.4-2-0.4q-7.8 0-15.6 0.1z"/><path class="a6" d="m919.3 432.7c0 0.5-2.2 0.9-4.9 0.9-2.7 0-4.8-0.4-4.8-0.9 0-0.5 2.1-0.9 4.8-0.9 2.7 0 4.9 0.4 4.9 0.9z"/><path class="a6" d="m982.4 436c0 0.5-2.1 0.9-4.8 0.9-2.7 0-4.9-0.4-4.9-0.9 0-0.5 2.2-0.9 4.9-0.9 2.7 0 4.8 0.4 4.8 0.9z"/><path class="a6" d="m973.3 432.7c0 0.3-2.4 0.5-5.4 0.5-3 0-5.5-0.2-5.5-0.5 0-0.3 2.5-0.5 5.5-0.5 3 0 5.4 0.2 5.4 0.5z"/><path class="a6" d="m964 430c0 0.5-1.6 0.9-3.7 0.9-2 0-3.7-0.4-3.7-0.9 0-0.5 1.7-0.9 3.7-0.9 2.1 0 3.7 0.4 3.7 0.9z"/><path class="a6" d="m967 434.7c0 0.3-1 0.6-2.3 0.6-1.2 0-2.3-0.3-2.3-0.6 0-0.3 1.1-0.5 2.3-0.5 1.3 0 2.3 0.2 2.3 0.5z"/><path class="a6" d="m978.8 423.8c0 0.3-1.5 0.6-3.3 0.6-1.9 0-3.4-0.3-3.4-0.6 0-0.4 1.5-0.6 3.4-0.6 1.8 0 3.3 0.2 3.3 0.6z"/><path class="G" d="m744.1 364.7c0 0 5.6 30.3 7.1 31.5 1.5 1.3 25.1 19.9 25.1 19.9l34.9-22.9c0 0-17.8-15.4-29.6-20.8-11.8-5.4-19.7-7.7-37.5-7.7z"/><path class="H" d="m744.1 364.7c0 0 7 26.5 11.7 30.8 12.3 7.1 32.3 19.5 32.3 19.5l-30.6 3.2-25.2-28.3c0 0 4.8-20.7 11.8-25.2z"/><path class="M" d="m742.1 361.9c0 0-9.8 12.8-10.7 29.3h4.2c0 0-0.1-14.1 8.5-26.5z"/><path class="N" d="m742.1 361.9c45.7 0 65.4 29.3 65.4 29.3h-4.8c-20.1-26.5-58.6-26.5-58.6-26.5z"/><path class="O" d="m742 399.8h80.6l-23.4-8.6h-64.5z"/><path class="G" d="m742 399.8h80.6l-13.3 2.3h-64.5z"/><path class="O" d="m766.1 420.9h102.5l-33.7-14.6h-92.8z"/><path class="a7" d="m749.8 410l-18.4-18.8c0 0 3.3 15.1 6.9 21.3 11.1 19.6 25.8 29.8 31.8 32.7 4.4 0-20.3-35.2-20.3-35.2z"/><path class="Q" d="m803.6 391.2h-4.8l54.1 23.8h6.1z"/><path class="M" d="m731.4 391.2l18.4 18.8 6-0.4-20.2-18.4z"/><path class="S" d="m930.1 408.6c-1.9-0.2-3.7 0.1-5.1 0.8l-92-63.4v1.7l-1 1.4c1 0.7 51.3 35.5 90.5 62.7-0.7 1.4-0.5 3.2 0.7 5.4 2.4 4 7.2 6.5 11.1 8.6h31.1c0 0-27-16.6-35.3-17.2z"/><path class="N" d="m833.5 349.3v-1.8l92 63.5c1.4-0.7 3.2-1 5.2-0.9 6.7 0.5 25.8 11.6 32.7 15.7h2c0 0-27-16.6-35.3-17.2-1.9-0.2-3.7 0.1-5.1 0.8l-92-63.4v1.7l-1 1.4c0.1 0.1 0.5 0.4 1.1 0.8z"/><path class="R" d="m787.7 388.5c0 0-12.3-9.7-16.9-11.5-4.1-1.6-9.2-3.6-14 0.1-4.9 3.8-3.8 14.8-1.1 16.5 0.9 0.5 2.6 5.4 5.9 9.3 4.5 5.2 6.4 9 12.6 10.5 7.4 5.3 14.2 8.3 22.1 8.5 11.1 0.4 17-1 19.9-2.2 1.8-0.7 3.7-0.6 5.5 0.2 2.5 1.2 7 2.3 14.1 0.8 10.7-2.4 10.6-18.6 8.7-26.2"/><path class="S" d="m776.4 351.8l-1-1.3-0.1-1.8-77.2 59.5c-1.4-0.6-3.2-0.7-5.1-0.5-8.2 1.1-34.3 19-34.3 19h31.1c3.8-2.3 8.4-6.7 10.6-10.8 1.2-2.3 1.1-4.2 0.3-5.6 35.4-27.3 74.8-57.8 75.7-58.5z"/><path class="N" d="m776.1 351.9l0.1 0.1q0.1-0.2 0.2-0.2l-0.3-0.4z"/><path class="N" d="m693.8 409.2c1.8-0.3 3.6-0.1 5 0.5l76.7-59.1-0.1-0.1-0.1-1.8-77.2 59.5c-1.4-0.6-3.2-0.7-5.1-0.5-8.2 1.1-34.3 19-34.3 19h2.9c6.4-4.3 25.3-16.7 32.2-17.5z"/><path class="T" d="m812.5 326.4l3 7.8c0 0-2.4 1.7-6.9 1.7-5.8 0-7.3-1.2-7.3-1.2v-3.1c0 0-1.1-0.2-1.9-1.3-0.8-1.2-3.2-8.8-3.1-10.5 0.1-1.7 2.4-4.8 2.4-4.8"/><path class="T" d="m769.8 344.6c0 0-9.6 6.6-10.7 11-1 4.4-1.6 10 0.8 11.5 8.1 4.8 17.8-1.5 17.8-1.5l-3.5-13.5c0 0 8.1-7.5 6.4-9.1-3.3-3.1-10.8 1.6-10.8 1.6z"/><path class="U" d="m814.9 318.4c0.1 1.2 0.4 2 1 2.8 0.6 0.8 1.4 1.7 1 2.9-0.3 1-1.4 1.2-2.1 1.9-0.8 0.7-1.1 1.8-1.8 2.6-0.9 1-2.1 1.4-3.3 1.1-0.9-0.2-1.7-0.9-2.7-1.1-1.1-0.3-2.3 0-3.5 0.1-1.2 0.1-2.5-0.2-3.2-1.3-0.4-0.7-0.5-1.7-1-2.3-0.3-0.3-0.6-0.5-0.8-0.8-0.1-0.4-0.1-0.9-0.2-1.3-0.2-0.4-0.6-0.7-0.9-0.4-0.5-1.7-0.3-3.6 0.4-5.3 0.6-1.6 1.5-3.1 2.5-4.5"/><path class="a8" d="m840 363.1l12 4.6c0 0 4.8-1 6.9-3.1 2.1-2.1 2.1-8.8 0.9-10.1-8.8-9.2-19.2-16.3-31.4-20-5.6-1.7-14.4-1.9-17.1-1.6-7.8 0.6-17.7 0.5-23.9 4.5-3.3 2.1-19.5 15.3-20.1 15.3-0.7 0-2.5 0-2.5 0 0 0-5.5 11.9 0.8 17.1 4.5 0.7 7.9-0.1 11.7-0.9 3.7-0.8 11.8-8.9 11.8-8.9l-0.2 8.1 50.9-2.9z"/><path class="a9" d="m835.4 346.4c1.2 3.4 3.5 9.2 5.2 14.1 3 8.5 6.1 16.8 5.9 26.1q-0.1 9-0.8 17.9c0 0-10.9 10-28.7 8.8-17.7-1.2-27.6-4.6-31.5-11.2-4-6.5-4.2-14.9-4-15.8 1.2-4.4 5.8-5.8 6-8.9 0.1-3.2 0.2-10.1 0.8-14.3 0 0 7.7-5.1 8-10 0.6-9.1-3.4-18.1-3.4-18.1 0 0 2.1-1.3 3.8-0.8 0.7 0.5 3.6 7.5 4.5 16.9 7.2 3.4 18.3 2.7 29.4-1.7 0.4-4.6-1.8-11.9-5.7-16 2.1-0.5 5.3 1.7 5.3 1.7 0 0 3 4.8 5.2 11.3z"/><g style="opacity:.3;mix-blend-mode:multiply"><path class="G" d="m846.4 383q0-0.1 0-0.1c-0.5-6.6-2.5-12.8-4.6-19.1l9 3.5c0.7-0.9 1.7-1.5 3.3-2 2.1-0.6 4.1-1.8 6-2.9 0.3-1.1 0.5-2.3 0.5-3.4q-0.2-0.8-0.6-1.5c-0.1-0.3-2-2.5-2-2.4-0.1 0.6-0.4 1.2-0.9 1.5-1.6-4.6-5.9-7.7-10-10.4 0.3 1.2 0.3 2.5-0.2 3.6-3.7-4.7-8.4-8.6-13.5-11.7-0.7-0.4-2.1-0.4-1.9 0.4-0.9-1.9-2.7-3.3-4.8-3.8q0.1 0.4 0.3 0.9-5.4-1.4-10.8-2.8c-0.4 0-0.8 0-1.2 0l-1.8-4.6c0.6-0.7 1-1.6 1.6-2.2 0.7-0.7 1.8-0.9 2.1-1.9 0.4-1.2-0.4-2.1-1-2.9q-0.1-0.1-0.1-0.2-1.6-0.9-3.2-1.6c-2.7-1.2-5.7-2.3-8.6-1.5-2.8 0.7-5.1 4.2-3.6 6.7 0.3 0.6 0.8 1.1 1 1.7 0.3 0.7 0.1 1.5 0.2 2.2 0.1 0.7 0.8 1.5 1.5 1.2q0.1 1.6 0.2 3.2 5.7 0.6 11.3 1.3-8.9 0.3-17.9 0.7c-0.4 0-0.8 0-1.1 0.3-0.3 0.3-0.3 0.8-0.3 1.2-1 0.1-2 0.4-3 0.8-0.5-0.2-0.8 0.3-1.7 1.1-2.2 2.3-4.3 4.4-6.9 6.3-4.7 3.7-10.1 7.1-12.8 12.6-0.7-0.6-1.1-1.5-1.1-2.4-1.4 2.3-2.4 4.7-2.9 7.3-1.3-1.7-1.9-3.9-1.8-6.1-1.5 2.7-2.3 5.9-2.2 9-2.3-2.6-2.3-6.4-2-9.9-1.1 4.1-1.1 8.4-0.1 12.5q1.9 0.9 3.7 1.1 0.5 0.6 1.1 1.1c4.5 0.7 7.9-0.1 11.7-0.9 3.7-0.8 11.8-8.9 11.8-8.9l-0.1 1.9c0.4-0.3 0.7-0.6 1-0.8-0.2 4.7 0.6 9.6 2.2 14.1 0.8 2.4 2 5.1 1 7.5q-1.7-2.8-3.5-5.5c0.1 3.4-0.2 6.9-0.9 10.2q-0.4-2.7-1.5-5.3c-0.8 3.2-1.2 6.4-1 9.7-1.5 0.1-2.2-0.8-3.3-1.7-0.3-0.4-1.9-1.7-1.9-2.2q-0.1 3.2-0.1 6.5c0 0.5 0 1-0.2 1.5-0.3 0.7-1 1.2-1.7 1.6q-1.8 1.1-3.8 2.1c-1.1 0.6-2.3 1.2-3.6 1.4-3.5 0.4-6.5-2-9.1-4.3q1.3 3 2.5 6c-1-0.8-3.9-2.9-5.1-2.1q0.2 0.5 0.6 0.9 0.5 0.7 1 1.4c2.8 3.2 4.6 5.9 7.1 7.9 1 0.8 2.1 1.4 3.4 1.9q1 0.4 2.1 0.7 0 0 0 0 1.8 1.3 3.6 2.4 0.3 0.2 0.6 0.4 1.8 1 3.5 1.9c9.3 2.8 19.4 2.7 29.1 1.1 12-2 23.6-6.1 34.2-12.1q0.2-1.1 0.2-2.3 0 0 0 0 0.1 0 0.1-0.1c0.1-0.1 0.2-0.2 0.2-0.2q0.7-8.9 0.8-17.9 0-1 0-1.9-0.1-0.9-0.1-1.7z"/></g><path class="aa" d="m766.1 356.4c0 0-0.1-1.8 1.2-3.7"/><path class="aa" d="m789.1 360c0 0 1.2-2 3.1-2"/><path class="ab" d="m758.2 393.7c0 0 1.4 0.2 2.9 1 1.5 0.8 7.2 14.2 14 18.7"/><path class="ac" d="m818.6 318.8c-5.2 3.2-17.8 4.4-26.4 2.1q1.2-0.9 2.4-1.8c0.2-0.2 0.4-0.4 0.6-0.6 0.2-0.4 0.3-0.8 0.3-1.3 0.3-1.4 1-2.6 1.7-3.8 0.8-1.4 1.5-2.8 2.7-3.7 2.5-2 5.8-2.4 8.7-1.3 3.7 1.4 5.4 4.9 7.3 8.4 0.6 1.1 1.5 2.1 2.7 2z"/><g style="opacity:.3;mix-blend-mode:multiply"><path class="G" d="m815.9 316.8c-1.8-3.3-3.5-6.6-6.7-8.1-2.6-0.7-5.3-0.2-7.4 1.5-1.2 0.9-1.9 2.2-2.7 3.5-0.6 1.1-1.3 2.3-1.6 3.7-0.1 0.4-0.1 0.8-0.3 1.1-0.2 0.3-0.4 0.4-0.6 0.6q-1.2 0.9-2.4 1.7c3.8 1 8.3 1.3 12.6 1.1 4.8-0.4 9.2-1.5 11.8-3.1-1.2 0.1-2.1-0.9-2.7-2z"/></g><path class="Z" d="m795.2 318.5c0 0 10.7 2.8 20.7-1.7"/><path class="M" d="m749.8 410l4.9-1.2c0 0 5.7 0.5 13.8-2.6 9-3.5 22-10.7 32.3-22.7 19.9-15.7 5.6 20.2 5.6 20.2l-36 15.4-12.6-5.3z"/><path class="ad" d="m837.9 361.9c23 7.3 48.6 36.2 52.1 42.1-5.1 14.1-20 35.6-35.2 41.2 0 0-75.6 0-84.7 0-16.7-13.3-20.3-35.2-20.3-35.2 33.6 3.7 40.3-32.9 88.1-48.1z"/><path class="ae" d="m753 420.8c4-0.4 8.1-1 12-1.9 4-0.9 7.9-2 11.6-3.7 3.6-1.7 6.9-4.1 10.2-6.4 3.3-2.4 6.4-5 9.6-7.5 6.4-5.1 12.8-10.3 19.8-14.7 3.5-2.1 7.2-4.1 11-5.7 3.8-1.5 7.7-2.8 11.8-3.4-7.9 2.1-15.2 5.9-21.9 10.4-6.8 4.6-13.1 9.8-19.4 14.9-3.3 2.6-6.5 5.1-9.9 7.4-3.4 2.4-6.7 4.8-10.6 6.4-7.8 3.1-16.1 4.2-24.2 4.2z"/><path class="ae" d="m756.8 429.1c3.8-0.4 7.5-0.8 11.3-1.5 3.7-0.7 7.3-1.6 10.9-2.8 3.5-1.3 6.8-3.1 10.2-4.7 3.4-1.7 6.8-3.5 10.1-5.3q4.9-2.8 9.8-5.7c3.2-1.9 6.4-4 9.7-6 3.2-1.9 6.5-3.8 10-5.5 3.5-1.6 7-3 10.6-4.2q-10.4 4.7-19.8 11.1c-6.3 4.1-12.7 8.3-19.4 12-3.3 1.8-6.7 3.5-10.2 5.2-3.4 1.6-6.8 3.4-10.6 4.5-7.3 2.2-15 3-22.6 2.9z"/><path class="ae" d="m762 437.1c6.7-0.7 13.4-1.7 19.9-3.2 3.2-0.7 6.4-1.7 9.5-2.8q2.4-0.7 4.8-1.6 2.4-0.8 4.7-1.6 9.4-3.5 18.5-7.7c3-1.4 6.1-2.9 9.2-4.2 3.1-1.2 6.3-2.3 9.6-3.1-6.3 2.4-12.2 5.5-18.1 8.7-6 3.2-12.2 5.9-18.5 8.1q-4.8 1.7-9.6 3.1c-3.2 1-6.5 1.9-9.9 2.5-6.6 1.2-13.3 1.7-20.1 1.8z"/><path class="ae" d="m767.6 442.8l17.3-1.3c5.7-0.4 11.4-1.2 17.1-1.9 5.7-0.7 11.3-1.6 17-2.7 2.8-0.5 5.6-1.1 8.5-1.5 2.9-0.4 5.8-0.7 8.7-0.7-5.7 0.9-11.3 2.4-16.9 3.8-5.6 1.4-11.3 2.4-17.1 3.1q-8.6 1-17.3 1.2-8.6 0.3-17.3 0z"/><path class="ae" d="m887.4 411.4c-4.3-2.7-8.2-5.9-12.1-9.1-3.9-3.2-7.6-6.6-11.5-9.8-3.9-3.2-7.8-6.2-12-8.8-4.3-2.7-8.8-4.9-13.6-6.4q1.9 0.3 3.7 0.8l3.7 1.1 3.5 1.4 3.4 1.7c4.5 2.4 8.6 5.5 12.6 8.7 3.9 3.3 7.6 6.7 11.2 10.2 3.7 3.4 7.3 6.9 11.1 10.2z"/><path class="ae" d="m881.9 420.4q-5.8-2.5-11.2-5.8c-3.7-2.2-7.1-4.6-10.5-7.2-3.3-2.5-6.6-5.1-10-7.5-3.4-2.4-7-4.5-10.8-6.5 2.1 0.6 4 1.4 6 2.2q2.9 1.4 5.6 3c3.7 2.1 7.1 4.7 10.4 7.2 3.3 2.6 6.7 5.1 10.1 7.5q2.6 1.8 5.2 3.6c1.7 1.2 3.5 2.3 5.2 3.5z"/><path class="ae" d="m874.7 429.8c-3.1-0.8-6.2-1.7-9.1-2.9-3-1.2-6-2.6-8.8-4.1-2.8-1.6-5.5-3.2-8.3-4.8q-4.1-2.4-8.4-4.4c3.1 0.6 6.2 1.6 9.1 3 3 1.3 5.8 2.9 8.6 4.4 5.5 3.1 11.2 5.8 16.9 8.8z"/><path class="ae" d="m864.6 439.6c-4.9-0.1-9.7-0.9-14.4-1.7-4.7-1-9.3-1.9-14-3.2 4.8-0.3 9.7 0.3 14.4 1.2 4.7 0.9 9.4 2.1 14 3.7z"/><path class="ae" d="m838.2 362.7c0.9 7.1 1.4 14.3 1.8 21.4 0.4 7.2 0.5 14.4 0.4 21.5-0.1 7.2-0.4 14.4-1.5 21.5-0.7 3.6-1.3 7.2-2.9 10.5-0.9 1.7-2.2 3-3.5 4.2q-2 1.9-4.2 3.4 2-1.8 3.8-3.7c1.2-1.4 2.4-2.7 3-4.3 1.4-3.2 1.8-6.8 2.2-10.3 0.8-7 1-14.2 1.1-21.3 0.2-7.1 0.1-14.3 0-21.4z"/><path class="ad" d="m733.8 400.6c6.4 6.8 12.5 13.8 19.2 20.3-1.9-1.3-3.7-2.9-5.5-4.4-1.7-1.6-3.3-3.3-4.9-5-3.2-3.4-6.2-7-8.8-10.9z"/><g style="opacity:.5;mix-blend-mode:overlay"><path class="N" d="m750.4 411l-0.6-1-1.4-1.5z"/><path class="N" d="m742 416.2c-2.3-5.3-5.2-15-6.2-20.5l-4.4-4.5c0 0 3.3 15.1 6.9 21.3 2.3 4 4.8 7.9 7.5 11.3-1.4-2-2.8-5.3-3.8-7.6z"/></g><path fill-rule="evenodd" class="af" d="m997.5 557.3c-10.2-25.7-38.1-39-56.7-59.4-3.4-3.6-6.5-7.6-10.5-10.4-3-2.1-6.3-3.6-9.5-5.4-6.4-3.7-20.3-15.5-20.3-15.5 0 0 2.9 1.8 7.7 4.2 2.9 1.5 6 1.7 11.3 6 3 2.4 12.6 2.2 16 4 10.2 5.1 12.3 20.4 22.9 24.7 7 2.9 17.3 1.1 20.1 8.1 0.7 1.5 0.7 3.3 1.6 4.7 1.4 2.1 4 2.8 6.4 3.4 15.9 4.1 30.7 12 43 22.8 2 1.7 3.9 3.6 5 6 1 2.1 1.2 4.4 1.9 6.7 1.6 5.6 6.1 10.4 11.6 12.4q-6.6 1.2-13.1 2.4m-143.7-113.1c0.5 0.7 1 1.4 1.6 2 1.1 0.9 2.5 1.3 3.8 1.6 4.2 0.9 8.7 1.7 11.6 4.7q-7.5-2.1-15.1-4.2c-0.6-0.2-1.3-0.4-1.8-0.7-0.6-0.3-1.1-0.7-1.6-1.2q-3.6-3.2-7.6-5.9c5.1 0 7.6 1.8 9.1 3.7zm76.4 15.9c0 1.3-4.6 2.4-10.3 2.4-5.7 0-10.3-1.1-10.3-2.4 0-1.3 4.6-2.3 10.3-2.3 5.7 0 10.3 1 10.3 2.3zm-96.1 39.1c0 1.2-4.3 2.2-9.6 2.2-5.4 0-9.7-1-9.7-2.2 0-1.2 4.3-2.2 9.7-2.2 5.3 0 9.6 1 9.6 2.2zm108.9-31.9c0 0.8-2.9 1.4-6.4 1.4-3.6 0-6.4-0.6-6.4-1.4 0-0.8 2.8-1.5 6.4-1.5 3.5 0 6.4 0.7 6.4 1.5zm-61.7-18.5c0 0.6-2.4 1.2-5.3 1.2-2.9 0-5.2-0.6-5.2-1.2 0-0.7 2.3-1.2 5.2-1.2 2.9 0 5.3 0.5 5.3 1.2zm-199.3 9.3c0 0.7-2.3 1.2-5.2 1.2-3 0-5.3-0.5-5.3-1.2 0-0.6 2.3-1.2 5.3-1.2 2.9 0 5.2 0.6 5.2 1.2zm-197.9 95.4c17-17.6 40.7-28.5 65.1-29.9 8.8-0.5 18.8-0.2 25.2-6.4 5.6-5.3 6.7-14.2 12.2-19.7 8.9-8.7 24.1-4.9 35.3-10.3 10.7-5.2 16-19.3 27.7-22.5 5.2-1.4 10-3 11.9-8.8 0.2-0.8 0.4-1.7 0.9-2.4 0.5-0.8 1.3-1.4 2.1-1.9q5.7-4 11.4-7.9-5 6.1-10.1 12.2c-4.3 5.2-8.6 10.4-13.6 15-5 4.4-10.5 8-16 11.6-4.2 2.8-7.1 6.6-11.3 9.4-10.9 7.5-22.5 14.3-34.1 20.8-29.8 16.9-61.2 31.1-93.5 42.4zm370.6-45.2c-6.7 0-13.9 0.6-20.5-1-0.4-0.8 0.2-1.8 1.1-2.2 0.8-0.3 1.7-0.2 2.6-0.1 3.2 0.3 6.4-0.2 9.4-1.3-1.3-1-3.1-1.3-4.7-0.9-0.4-0.9 0.9-1.5 1.9-1.6q24.4-2 48.8-2.3c-1.2 1.6-3 2.5-4.7 3.5 2-1.1 7.9 0.3 10.2 0.4q5.8 0.4 11.7 0.9c1.7 0.1 17.1 1 13.7 4.3-1.2 1.3-9.2 0.1-11.1 0.1q-6 0-12 0.1-11.6 0-23.2 0-11.6 0-23.2 0.1zm-278.4-75.9c1.5-1.4 2.8-3 4.8-3.6 2.8-0.8 5.8 1 8.7 0.5 1.5-0.2 2.8-1.1 4.1-1.8 3.4-1.8 7.1-3 10.9-3.5-16.4 7.8-33.5 14.3-50.9 19.4 6.2-13 17.2-6.3 22.4-11zm-334.2 99.6c7.6 0.7 15.5-2.1 21-7.3 3-2.8 5.3-6.3 8.9-8.2 8.2-4.2 18.2 1.9 27.3 0.4 7.6-1.3 13.5-7.6 21-9.6 5.6-1.4 11.6-0.2 17.3 0.7 6.6 0.9 13.3 1.4 20 1.3 5.9-0.1 12-0.7 17-3.8 7-4.4 11.1-13.3 19.2-15 6.5-1.4 12.8 2.6 19.1 4.5 13.1 4.1 27-0.6 39.9-5.2-50.2 23.9-119.4 37.3-174.2 46.8-18.8 3.2-25.6-4-44.6-1.9zm245.8-54.5q-8 2.5-16.1 4.5c-2.2 0.5-4.5 1.4-6.7 1.7-1.9 0.3-4.5-0.4-6.2 0.2 2.7-0.9 5-2.8 6.5-5.2 0.6-1 1.1-2.2 2.1-2.8 0.6-0.3 1.3-0.4 2-0.5 1.6-0.1 3.1 0 4.7-0.2 1.6-0.1 3.2-0.6 4.2-1.8 2.4-2.4 2.1-2.9 5.3-2.7 2.9 0.1 6.1 1.5 9 0.9 4-0.7 6.1-5.2 9.7-7.3 2.8-1.6 6.2-1.6 9.4-1.8 6.1-0.5 12.2-2.1 17.7-4.8-2.4 3.6-6.5 5.8-10.5 7.6-10.1 4.7-20.5 8.8-31.1 12.2zm-29 6.4q0 0 0 0 0 0 0 0zm522.9-11.9q-12.8-4.8-25.5-9.6c-7.3-2.7-14.7-5.6-20.3-11 3.7 1.4 7.3 3.2 10.6 5.3 1.4 0.9 2.8 1.9 4.5 2.3 4.4 1 9.5-2.5 13.1 0.2 1.2 0.9 1.9 2.3 3.1 3.2 2.4 2 5.9 1.3 8.9 2 3.6 0.7 6.6 3.5 7.7 7zm150.7 73.1q-23.6-9.3-47.2-18.7c-8.4-3.4-16.8-6.7-24.7-11.1-12.8-7.1-24.2-16.9-38-22.1-6.7-2.4-14.4-4.1-18.6-9.9q16.3 5.3 32.6 10.6c2 0.7 4.2 1.4 6.2 0.8 2.7-0.8 4.5-3.5 7.2-4.5 3.9-1.5 8.2 1.2 10.8 4.4 2.7 3.3 4.6 7.2 8 9.6 5.8 4.1 13.5 2.4 20.6 2.6 14 0.3 26.5 8.4 38.2 16.2 9.9 6.6 20.2 13.7 25.8 24.2q-2 1-4 2.1z"/><g style="opacity:0"><path class="ag" d="m35.5 493.7c1.3 1.1 4.3 1.3 5.6 2.4-3.7-0.2-6.5 4.9-4.3 7.9-0.8-1.1-3 4.8-3.1 4.9-1.9 2.2-5.5 1.7-8.2 1.7-2.9 0-5.7 0.5-8.4 1.5-0.7 0.3-1.5 0.8-1.4 1.5 0.1 0.8 1 1 1.8 1.1q8.8 1 17.6 2.1c-0.4 1.3-2.2 1.4-3.6 1.5-1.4 0-3.2 1.1-2.7 2.4 0.2 0.3 0.5 0.6 0.9 0.8 1.4 0.6 3 0.2 4.5 0.4 1.5 0.1 3.2 1.5 2.6 2.9-0.5 1.3-2.3 1.3-3.7 1.2-3.2-0.3-6.4 0.4-9.3 1.8 2.6 2.2 6.6 1.2 9.7 2.5 0.3 0.1 0.7 0.3 0.8 0.6 0.1 0.4-0.1 0.7-0.3 1-1.8 3.2-3.9 6.2-6.4 8.9-0.9 1-1.9 2-3.1 2.5-3 1.2-6.8-0.7-9.5 1.1q4.3 1.7 8.7 3.2c-2.9 1.2-5.6 2.9-7.9 5.1q5.5 0.1 10.9-0.7c1.1-0.2 2.2-0.4 2.9-1.2 0.7-0.7 0.7-2.2-0.3-2.6-0.4-0.2-0.9-0.1-1.2-0.5-0.2-0.4 0.1-0.8 0.3-1.1 1.4-1.9 6.4-4.7 4.9-7.5 5.1-2 6.9-8.2 8.1-13.6q1.9-8.7 3.8-17.4c7.1 16 2 34.6-3.4 51.3q-3.7 11.4-7.6 22.8c9.6-8.2 16.2-19.7 18.3-32.1 0.4-2.3 0.6-4.7 1.9-6.7 1.2-1.9 3.7-3.4 5.9-2.5-6.3-9.5-4.3-22-2.2-33.1 0.4-2 1.8-4.5 3.6-3.7 1 0.5 1.3 1.9 1.3 3.1 0.4 7.4 0.7 14.8 0.7 22.3-0.4 30.7-8.1 61.3-22.4 88.5-3.3 6.2-6.9 12.2-10.6 18.1q7.1-5.3 14.3-10.6c4.4-3.2 8.8-6.5 12.3-10.6 9.7-11.1 12-26.8 13.6-41.5 0.5-4.9 1.3-10.2 5.1-13.3-2.5-0.6-4.8-2.1-6.4-4.1 3-2.2 6.3-4 9.7-5.5-2-3.2-3.7-6.6-4.9-10.2q13.3-4.4 26.5-8.9c-5.9-2.2-12-3.7-18.3-4.5 1.1-6.7-0.1-13.8-3.2-19.9q2.6-1.7 5.2-3.5c4.3 5.2 4.7 12.4 4.9 19.1 0.5 20.4-0.4 40.8-2.5 61.1 2.7-0.4 4-3.4 4.7-6.1 1.2-4 3.1-8 3.6-12.2 0.5-5.4 0.8-11 1.2-16.5 0.1-1.8 0.3-3.8 1.4-5.3 1.1-1.6 3.3-3 2.7-4.9-0.7-1.9-4.2-2.7-3.4-4.6 0.3-0.7 1.1-1 1.8-1.2q5.8-1.6 11.6-3.3c-2-2.3-5.6-2.4-8.6-2.5-3.1-0.1-6.7-0.8-7.9-3.6-0.5-1.1-0.5-2.3-0.4-3.5 0-9.3 1.1-16.9 0.5-26.3"/><path class="ah" d="m117.4 493.7c2.2 17.1 9.9 33.5 23.7 43.7 0.9-0.9 0.1-2.4-0.6-3.4-5.5-7.5-9-16.4-10-25.6 3.6 7 9.2 14 17 14.8 6.6 0.7 13-3.7 16.4-9.4 3.4-5.8 4.2-12.7 4.3-19.3-1.8 4.4-4.2 8.6-7 12.4-2.1 3-4.6 5.8-7.9 7.4-6.3 3.1-14.7 0.6-18.3-5.4 3.9 0.5 7.9 0 11.4-1.5-5.9-0.8-11.8-2.3-17.4-4.5q2.2-0.9 4.4-1.9c-2.1-0.8-1.4-5.2-0.7-7.3"/><path class="ai" d="m148.5 460.2c7.9 1.7 15 6.9 19 13.9-1.2-4.9-4.4-9.2-8.8-11.8"/><path class="aj" d="m90.3 493.7c0.2-21.9-2.4-25.3 0.9-47 3.2-21.7 13.6-43.9 32.9-54.3-19.1 35.4-29.5 61.1-29.9 101.3"/><path class="aj" d="m77.8 493.7c-17.6-51.2-13.6-97.1 10.6-145.6-2.3 14.2-3 25.4-5.5 36.2-6.8 29.2-4.5 79.9 0.6 109.4"/><path class="ak" d="m117.6 493.7c-0.7-14.5-1.4-24.8 0.9-39.2 2.3-14.3 7.7-28.6 18-39.4-10.9 25.3-13.4 52-7 78.6"/><path class="ai" d="m35.5 493.7c-4.5-49.1-17.6-86.7-38.6-131.4 31.7 40.1 47.6 80.5 43.6 131.4"/><path class="aj" d="m39.1 493.7c12.1-75.8-6.1-130.4-27.2-187.9 38.7 61.3 50.5 114.4 44.2 187.9"/><path class="aj" d="m123.8 493.7c-0.2-5.1 0.3-23 10.3-29.8 7.8-5.3 18.4-6.1 26.2-0.7-8.5-2.5-18.2-1.4-23.3 5.5-4.3 5.9-4.3 17.8-4.3 25"/><path class="ai" d="m99 397c0.1-1.8-0.8-3.5-1.3-5.2-2.3-7.5 1.1-15.5 0.9-23.3 2.8 3.7 2.6 8.8 1.8 13.3-0.8 4.6-2.2 9.2-1.3 13.7"/><path class="ai" d="m94.5 422.4q-0.6-3.7-0.5-7.5c0-0.5 0-1.1 0.2-1.5 0.2-0.6 0.6-1.1 1-1.5 1.8-2 4-4.2 6.7-4.1 0.9 0 1.8 0.2 2.7 0.6 2.5 0.9 4.8 2.1 7.1 3.4q2.4 1.3 4.8 2.6c-2.1 0.4-4.3 0.8-6.5 0.7-1.6 0-3.1-0.3-4.6-0.9-1.6-0.7-3-1.9-4.7-2.5-1.7-0.6-3.8-0.6-5 0.6-1.2 1.2-1.3 3.1-1.1 4.8 0.2 1.7 0.6 3.5-0.1 5"/><path class="ai" d="m115.9 350.5c-0.2-2.2 0.5-4 1.4-5.1 0.8-1.2 2.4-1.5 3.9-1.8 0.7-0.1 1.5-0.2 2.1 0.1 0.4 0.2 0.6 0.4 0.9 0.7q0.7 0.7 1.4 1.5c2.1 2.1 4.2 4.3 5.5 7-2.7-1.3-5.6-2.7-7.4-5.1-0.6-0.7-1.1-1.6-1.8-2.2-2.5-1.9-5.8 0.1-5.8 3"/><path class="ak" d="m106.7 373.1c0.1-1.4-0.2-2.8-0.8-4-0.3-0.6-0.7-1.1-0.8-1.8-0.5-1.7 0.4-3.4 1.4-4.9 0.7-1.1 1.4-2.2 2.5-2.9 0.7-0.5 1.5-0.7 2.2-1q3.7-1.2 7.3-2.4c-0.7 1.9-2.3 3.3-4 4.4-1.7 1-3.6 1.8-5.4 2.7-1.1 0.5-2.2 1.2-2.8 2.2-1.4 2.1 0.7 4.1 0.7 6.3"/><path class="aj" d="m92.9 462.3c-0.3-23.3 2.4-46.5 8.3-68.9 6-22.8 15.6-43.6 26.6-64.2 0.2-0.5-0.4-0.9-0.7-0.4-12.5 19.4-21.2 42-27 64.2-5.9 22.6-8.6 46-7.9 69.3 0 0.4 0.7 0.4 0.7 0z"/><path class="aj" d="m123.4 336.9c0.8-0.4 1.7-0.8 2.4-1.4 0.4-0.4 0.6-0.8 0.9-1.2 1.1-1.5 2.5-2.6 3.9-3.8q2.3-1.8 4.6-3.6-2.4 3.5-5.2 6.7c-0.5 0.6-1 1.1-1.6 1.5-1 0.7-2.2 1-3.4 1.2"/><path class="aj" d="m125.6 333.1q1.9-2.5 3.7-5c0.5-0.7 1-1.4 1.5-2 0.6-0.7 1.3-1.4 1.9-2.1 2.2-2.7 3.6-6.1 3.8-9.6-0.6 0.8-1 1.8-1.6 2.7-1.1 1.8-2.8 3.1-3.8 5-0.9 1.9-1 4.2-2 6.1"/><path class="aj" d="m122.5 336.9q0.7-2.2 1.4-4.3 0.1-0.4 0.2-0.7 1.5-4.7 3-9.4c0.3-0.9 0.6-1.9 0.4-2.9q-1.4 2.4-2.9 4.9c-0.8 1.3-1.5 2.7-1.5 4.2 0 0.8 0.2 1.6 0.4 2.5 0.1 0.8 0.1 1.7-0.3 2.4"/><path class="aj" d="m120.6 341.5q1.5-1.4 3-2.7c0.3-0.3 0.6-0.5 1-0.7 0.4-0.2 0.8-0.2 1.3-0.2q6.4-0.2 12.9-0.1c0.1 0 0.2 0 0.3 0.1 0.1 0.1 0.1 0.3 0 0.5-0.1 0.1-0.3 0.2-0.5 0.2q-3.1 0.8-6.3 1.4c-0.5 0.1-0.9 0.2-1.4 0.1-0.7 0-1.4-0.3-2-0.4-1.4-0.5-2.9-0.6-4.4-0.6-0.4 0.1-0.9 0.1-1.1 0.4"/><path class="aj" d="m116.8 349.1c3-1.5 6.5-2.3 9.9-2.2 0.9 0 1.8 0.1 2.6 0.4 0.6 0.2 1.2 0.6 1.7 1q1.3 0.9 2.6 1.9c1.5 1.1 3.1 2.2 4.5 3.5-0.2 0.3-0.5 0.2-0.7 0.1-2.2-0.7-4-2.1-6-3.1-3.8-1.8-8.2-2.1-12.4-2.3"/><path class="aj" d="m109.9 365.3c0.6-0.7 1.4-1.3 2.2-1.8 2.4-1.7 5.3-3.1 8.3-2.9 1 0.1 1.9 0.3 2.9 0.5q5.8 1.4 11.5 2.7c-2.4 0.6-4.9 1.2-7.4 0.9-1.9-0.2-3.8-1-5.7-1-1.5-0.1-3.1 0.2-4.6 0-0.7-0.1-1.3-0.4-2-0.4-1.3-0.2-2.7 0.3-3.7 1.3"/><path class="aj" d="m104.6 379.5c1.4-1.8 4-2.9 5.8-4 2.3-1.3 4.8-2.1 7.2-3.2 3.9-1.8 7.4-4.6 11.7-5.3-3.5 5.6-9.5 9.5-15.9 10.5-2.6 0.4-6.2 0-8.3 1.6"/><path class="aj" d="m99.1 398.7c4.3-3.6 10.2-8.6 16.1-8.2 2.8 0.2 5.5 1.5 7.1 3.9 2.4 3.5 1.7 8.3 3.8 12-3.4-2.9-6.6-6.2-8.4-10.3-0.7-1.6-1.4-3.5-3.1-4-2.6-0.8-4.9 2-6.8 3.3-2.3 1.6-5 0.6-7.2 2.3"/><path class="ai" d="m144.3 416.6c0.4-2.1-0.3-4.2-0.6-6.2-1.4-8.9 3.8-17.4 4.9-26.3 2.6 4.6 1.5 10.4-0.2 15.4-1.7 5-4 10.1-3.7 15.4"/><path class="ak" d="m134.8 444.7q-0.1-4.4 0.7-8.7c0.1-0.6 0.2-1.2 0.5-1.7 0.4-0.6 0.9-1.1 1.4-1.5 2.4-2 5.2-4 8.3-3.6 1 0.2 2 0.7 3 1.2 2.6 1.5 5.1 3.3 7.5 5.1q2.5 1.9 5 3.8c-2.5 0.1-5.1 0.2-7.6-0.3-1.7-0.3-3.4-0.9-4.9-1.9-1.8-1-3.2-2.6-5-3.6-1.8-1-4.2-1.3-5.8-0.1-1.6 1.1-2 3.3-2 5.2-0.1 2 0 4.1-1.1 5.7"/><path class="ak" d="m171.3 366.5c0.1-2.5 1.4-4.4 2.5-5.6 1.2-1.2 3-1.3 4.7-1.3 0.8 0 1.8 0 2.4 0.5 0.4 0.2 0.7 0.6 0.9 0.9q0.7 1 1.4 1.9c2 2.8 4 5.6 5 8.9-2.9-1.9-5.9-3.9-7.6-7-0.5-0.9-0.9-2-1.6-2.8-2.5-2.7-6.6-0.9-7.1 2.5"/><path class="ai" d="m157.1 390.6c0.3-1.5 0.2-3.1-0.3-4.6-0.2-0.7-0.5-1.4-0.6-2.2-0.3-2 1.1-3.8 2.5-5.3 0.9-1.2 1.9-2.3 3.3-2.9 0.8-0.4 1.8-0.6 2.7-0.7q4.3-0.8 8.7-1.5c-1.2 2-3.2 3.4-5.3 4.3-2.2 0.9-4.5 1.4-6.7 2.1-1.3 0.4-2.6 1-3.5 2-1.9 2.2 0.1 4.8-0.3 7.3"/><path class="aj" d="m126.1 489.6c4.1-31 13.1-61.3 26.8-89.5 13.6-28 31.7-52.5 52.7-75.3 0.3-0.3-0.1-0.7-0.4-0.4-44.3 43-72.2 104.4-79.6 165.2-0.1 0.4 0.4 0.4 0.5 0z"/><path class="aj" d="m194 337.1c1-0.3 2.1-0.6 3-1.2 0.4-0.4 0.8-0.8 1.2-1.2 1.5-1.5 3.3-2.5 5.1-3.6q2.9-1.7 5.8-3.4-3.3 3.6-7.1 6.8c-0.6 0.5-1.3 1.1-2.1 1.4-1.2 0.6-2.6 0.7-3.9 0.8"/><path class="aj" d="m201.1 329q2.4-2.5 4.9-5.1c0.7-0.7 1.4-1.4 2.1-2 0.8-0.7 1.7-1.4 2.5-2.1 3-2.6 5.2-6.3 6-10.3-0.9 0.9-1.5 1.9-2.3 2.8-1.6 1.9-3.8 3.1-5.1 5.1-1.4 2-1.9 4.6-3.4 6.6"/><path class="aj" d="m181.1 352.2q1.2-2.3 2.4-4.7 0.1-0.4 0.3-0.7 2.5-5.1 5-10.1c0.5-1.1 1-2.2 1-3.4q-2.1 2.6-4.1 5.1c-1.1 1.4-2.2 2.8-2.5 4.6-0.1 0.9 0 1.9 0 2.8 0.1 1-0.1 2-0.7 2.8"/><path class="aj" d="m178.2 357.1q2-1.3 4-2.6c0.3-0.2 0.7-0.5 1.1-0.6 0.5-0.1 1 0 1.5 0q7.4 0.9 14.7 2.1c0.1 0 0.3 0.1 0.4 0.1 0.1 0.2 0 0.5-0.1 0.6-0.2 0.1-0.4 0.2-0.6 0.2q-3.7 0.4-7.4 0.5c-0.5 0-1.1 0-1.7-0.1-0.7-0.2-1.4-0.5-2.1-0.9-1.6-0.7-3.2-1.1-4.9-1.3-0.5 0-1-0.1-1.4 0.3"/><path class="aj" d="m172.6 365.1c3.7-1.2 7.8-1.5 11.7-0.8 1 0.1 2 0.4 2.9 0.9 0.6 0.4 1.2 0.9 1.7 1.4q1.3 1.3 2.6 2.5c1.6 1.6 3.2 3.2 4.5 4.9-0.2 0.2-0.5 0.1-0.8 0-2.3-1.2-4.2-3.1-6.3-4.6-4-2.7-8.9-3.7-13.6-4.7"/><path class="aj" d="m162.1 382.4c0.8-0.7 1.7-1.3 2.7-1.7 3.1-1.6 6.6-2.6 10-1.9 1.1 0.3 2.1 0.7 3.1 1.1q6.4 2.5 12.7 5c-2.9 0.2-5.8 0.5-8.6-0.3-2.1-0.6-4.1-1.7-6.3-2.1-1.7-0.3-3.5-0.2-5.2-0.7-0.7-0.3-1.5-0.7-2.2-0.9-1.5-0.4-3.2-0.1-4.4 0.9"/><path class="aj" d="m153.6 397.6c1.8-1.8 5-2.6 7.3-3.6 2.8-1.1 5.8-1.5 8.6-2.4 4.8-1.4 9.3-4 14.3-4-4.9 5.7-12.4 9.1-19.9 9.2-2.9 0-7-1.1-9.7 0.5"/><path class="aj" d="m144.1 418.5c5.4-3.4 13-8.1 19.6-6.6 3.2 0.7 6.1 2.7 7.5 5.6 2.1 4.4 0.5 9.8 2.2 14.3-3.3-3.8-6.4-8.1-7.7-13.1-0.5-1.9-1-4.3-2.8-5.1-2.9-1.3-6 1.4-8.4 2.6-2.9 1.4-5.7-0.2-8.6 1.4"/><path class="ak" d="m64 359.4c0.1-2.4 1.2-4.5 1.9-6.8 3.3-9.6 0.1-20.4 0.9-30.7-3.5 4.6-3.7 11.3-3.1 17.4 0.5 6 1.7 12.2 0.3 18.1"/><path class="ai" d="m67.1 393.3c0.7-3.3 1.1-6.6 1.2-9.9 0.1-0.7 0.1-1.4-0.1-2.1-0.2-0.7-0.6-1.4-1.1-2-1.9-2.8-4.1-5.8-7.2-6-1.1-0.1-2.2 0.2-3.2 0.5-2.9 1-5.7 2.4-8.5 3.9q-2.8 1.5-5.7 3c2.5 0.7 4.9 1.4 7.5 1.5 1.8 0.1 3.6-0.2 5.2-0.8 2-0.8 3.7-2.1 5.7-2.8 1.9-0.7 4.3-0.5 5.7 1.3 1.3 1.6 1.1 4.2 0.8 6.3-0.4 2.2-0.9 4.5-0.2 6.6"/><path class="ai" d="m48.5 296.5c0.4-2.8-0.3-5.3-1.2-6.8-0.9-1.7-2.7-2.3-4.3-2.7-0.8-0.2-1.7-0.5-2.5-0.1-0.4 0.2-0.7 0.5-1.1 0.9q-0.8 0.9-1.7 1.8c-2.6 2.6-5.2 5.2-6.9 8.7 3.3-1.5 6.7-3 8.9-6 0.8-0.9 1.4-2 2.3-2.7 3-2.4 6.6 0.6 6.4 4.5"/><path class="ak" d="m57.2 327.1c0-1.8 0.4-3.6 1.2-5.1 0.4-0.8 0.8-1.5 1.1-2.3 0.7-2.2-0.3-4.6-1.2-6.6-0.8-1.5-1.5-3.1-2.7-4.1-0.7-0.6-1.6-1.1-2.4-1.5q-4.1-1.9-8.2-3.8c0.7 2.6 2.4 4.6 4.2 6.1 1.9 1.6 4.1 2.7 6 4.1 1.2 0.8 2.4 1.8 3 3.2 1.5 2.9-1 5.3-1.2 8.2"/><path class="aj" d="m66.4 446c3.1-35.6 1-71.6-6.1-106.6-6.9-33.9-18.2-68.5-35.7-98.6-0.2-0.4-0.8 0-0.6 0.4 15.6 31.6 28.1 63.9 35.2 98.5 7.1 34.9 9.2 70.7 6.6 106.3-0.1 0.4 0.6 0.4 0.6 0z"/><path class="ak" d="m32.8 257.9c-1-0.6-2-1.2-2.7-2.1-0.4-0.5-0.6-1.1-1-1.7-1.1-2-2.6-3.6-4.1-5.3q-2.5-2.6-5-5.2 2.5 4.9 5.5 9.3c0.5 0.8 1 1.6 1.7 2.2 1.1 0.9 2.4 1.4 3.7 1.9"/><path class="aj" d="m27.6 247.1q-1.8-3.5-3.7-7c-0.5-1-1-1.9-1.6-2.8-0.6-1-1.3-1.9-2-2.9-2.4-3.8-3.7-8.4-3.6-13.1 0.6 1.2 1.1 2.5 1.6 3.8 1.2 2.4 3 4.4 3.9 6.9 1 2.7 0.8 5.7 1.9 8.2"/><path class="aj" d="m42 278.1q-0.6-3-1.2-5.9-0.1-0.5-0.2-0.9-1.3-6.3-2.7-12.6c-0.2-1.3-0.5-2.7-0.2-4q1.4 3.4 2.9 6.7c0.8 1.8 1.5 3.7 1.4 5.7-0.1 1.1-0.4 2.2-0.7 3.3-0.2 1.1-0.3 2.2 0.2 3.2"/><path class="ak" d="m42.6 277.5q-1.6-1.9-3.2-3.9c-0.3-0.3-0.7-0.7-1-0.9-0.5-0.3-1-0.3-1.5-0.4q-7.4-0.9-14.8-1.3c-0.2 0-0.3 0-0.4 0-0.2 0.2-0.2 0.5 0 0.7 0.1 0.2 0.3 0.3 0.5 0.3q3.5 1.4 7.1 2.4c0.5 0.2 1.1 0.4 1.7 0.4 0.7 0 1.5-0.3 2.3-0.5 1.6-0.4 3.3-0.5 5-0.2 0.5 0 1 0.2 1.3 0.6"/><path class="aj" d="m47.6 294.7c-3.4-2.3-7.3-3.7-11.3-3.9-1-0.1-2-0.1-3 0.3-0.7 0.2-1.4 0.7-2 1.2q-1.6 1.1-3.1 2.1c-1.9 1.4-3.8 2.7-5.5 4.4 0.2 0.3 0.6 0.2 0.9 0.1 2.5-0.7 4.7-2.4 7.1-3.5 4.5-2 9.5-2 14.3-1.9"/><path class="ak" d="m54.1 316.6c-0.7-1-1.5-1.8-2.3-2.6-2.7-2.5-5.9-4.5-9.4-4.5-1.1 0-2.2 0.1-3.3 0.3q-6.7 1.3-13.4 2.5c2.7 1 5.5 2 8.4 1.8 2.2-0.1 4.4-0.8 6.6-0.8 1.8 0.1 3.5 0.7 5.3 0.5 0.8-0.1 1.5-0.3 2.3-0.4 1.6 0 3.1 0.7 4.1 2.1"/><path class="ak" d="m62.5 351.6c-1.3-2.4-4.2-4.2-6.3-5.8-2.4-1.9-5.3-3.1-7.9-4.8-4.3-2.8-8.2-6.9-13-8.1 3.5 7.6 10.1 13.3 17.4 15.2 2.9 0.8 7.1 0.6 9.4 3"/><path class="ak" d="m63.7 361.6c-4.5-5.2-10.9-12.3-17.7-12.3-3.2 0-6.5 1.5-8.5 4.4-3 4.4-2.6 10.9-5.3 15.6 4.1-3.6 8.1-7.6 10.4-12.8 1-2.1 1.9-4.6 3.9-5.1 3-0.7 5.5 3.1 7.6 5 2.5 2.3 5.6 1.3 8 3.8"/><path class="ai" d="m65.4 493.7c1.9-42.1-9.2-58.9-31.3-94.7 31.4 35 47.6 47.8 43.7 94.7"/></g><g style="opacity:0"><path class="ai" d="m1205.5 421.6c-0.1-2.4 1.1-4.6 1.8-6.9 3.3-9.9-1.5-20.6-1.2-30.9-4 4.8-3.7 11.6-2.6 17.6 1.2 6.1 3.1 12.2 1.8 18.2"/><path class="ai" d="m1211.8 455.4c0.6-3.3 0.9-6.7 0.8-10 0-0.7-0.1-1.4-0.3-2.1-0.3-0.7-0.9-1.3-1.5-1.9-2.5-2.7-5.5-5.5-9.3-5.5-1.4 0-2.7 0.4-3.9 0.8-3.5 1.2-6.8 2.9-10.1 4.6q-3.4 1.7-6.7 3.5c3 0.5 6.1 1 9.2 0.9 2.2-0.1 4.4-0.5 6.4-1.3 2.3-0.9 4.4-2.4 6.7-3.2 2.4-0.9 5.3-0.9 7.1 0.8 1.7 1.6 1.7 4.1 1.5 6.3-0.3 2.2-0.8 4.6 0.2 6.7"/><path class="ai" d="m1181.7 359.8c0.3-2.9-0.8-5.3-2-6.8-1.2-1.6-3.4-2-5.5-2.4-1-0.1-2.1-0.3-3 0.2-0.5 0.2-0.9 0.6-1.3 0.9q-1 1-2 2c-2.9 2.8-5.9 5.7-7.7 9.2 3.9-1.6 7.9-3.5 10.5-6.6 0.8-1 1.5-2.2 2.5-3 3.5-2.6 8.2 0.1 8.2 4"/><path class="ai" d="m1194.6 389.8c-0.1-1.8 0.3-3.7 1.2-5.3 0.4-0.8 0.9-1.5 1.1-2.3 0.8-2.3-0.7-4.6-2-6.6-1-1.5-2-2.9-3.5-3.9-1-0.6-2.1-0.9-3.2-1.2q-5.1-1.6-10.3-3.2c1.1 2.5 3.3 4.4 5.7 5.8 2.5 1.4 5.1 2.3 7.7 3.6 1.5 0.7 3 1.6 3.9 2.9 1.9 2.8-0.9 5.4-0.9 8.4"/><path class="aj" d="m1214.9 508.4c1-31.1-2.9-62.1-11.2-92-8.3-29.7-20.7-59.8-38-85.4-0.3-0.4-0.9-0.1-0.7 0.4 15.7 27.3 29.1 54.9 37.6 85.3 8.3 29.8 12.2 60.7 11.7 91.7 0 0.4 0.6 0.4 0.6 0z"/><path class="aj" d="m1171.1 341.8c-1.2-0.5-2.5-1.1-3.4-2-0.5-0.4-0.9-1-1.4-1.5-1.5-2-3.5-3.5-5.5-5q-3.2-2.5-6.4-4.9 3.4 4.7 7.4 9c0.7 0.7 1.4 1.4 2.2 2 1.4 0.9 3.1 1.2 4.7 1.6"/><path class="aj" d="m1167.9 336.7q-2.6-3.3-5.1-6.7c-0.7-0.9-1.4-1.8-2.2-2.7-0.8-0.9-1.8-1.8-2.6-2.7-3.2-3.6-5.2-8.1-5.5-12.8 0.9 1.1 1.5 2.4 2.3 3.6 1.6 2.4 4 4.2 5.3 6.7 1.4 2.5 1.5 5.6 2.9 8.1"/><path class="aj" d="m1172.4 341.8q-1-2.9-2-5.8-0.1-0.5-0.3-0.9-2.1-6.2-4.2-12.5c-0.5-1.2-0.9-2.6-0.6-3.9q2 3.2 4 6.5c1.1 1.7 2.2 3.6 2.2 5.6 0 1.1-0.4 2.2-0.6 3.3-0.2 1.1-0.2 2.3 0.4 3.3"/><path class="aj" d="m1175 347.8q-2.1-1.8-4.3-3.6c-0.4-0.3-0.8-0.7-1.3-0.9-0.6-0.2-1.2-0.2-1.8-0.2q-9.1-0.3-18.3-0.2c-0.1 0-0.3 0.1-0.4 0.1-0.2 0.2-0.2 0.5 0 0.7 0.2 0.2 0.5 0.2 0.7 0.3q4.4 1.1 8.8 1.8c0.7 0.2 1.4 0.3 2.1 0.2 1 0 1.9-0.4 2.8-0.6 2-0.6 4.1-0.8 6.1-0.7 0.6 0 1.3 0.1 1.7 0.5"/><path class="aj" d="m1180.4 358c-4.3-2-9.2-3.1-14-3-1.3 0-2.6 0.1-3.7 0.5-0.9 0.4-1.7 0.9-2.4 1.4q-1.8 1.2-3.6 2.4c-2.2 1.5-4.4 3.1-6.4 4.8 0.2 0.3 0.7 0.2 1.1 0.1 3-0.9 5.5-2.8 8.4-4.1 5.4-2.4 11.5-2.8 17.4-3.1"/><path class="aj" d="m1190 379.5c-0.8-1-1.8-1.7-2.9-2.4-3.5-2.3-7.6-4.1-11.9-3.8-1.3 0-2.7 0.3-4 0.6q-8.1 1.8-16.3 3.6c3.5 0.7 7 1.5 10.5 1.1 2.7-0.2 5.3-1.2 8.1-1.3 2.1-0.1 4.3 0.4 6.4 0 1-0.1 1.9-0.4 2.9-0.5 1.9-0.2 3.8 0.4 5.1 1.7"/><path class="aj" d="m1197.5 398.4c-1.8-2.4-5.5-3.9-8.1-5.4-3.2-1.7-6.8-2.7-10.1-4.2-5.5-2.4-10.5-6.2-16.6-7.1 4.9 7.4 13.4 12.6 22.5 14 3.6 0.5 8.8-0.1 11.7 2.2"/><path class="aj" d="m1205.3 423.8c-6-4.8-14.3-11.4-22.6-10.8-4 0.2-7.9 2-10.1 5.1-3.4 4.6-2.4 11.1-5.3 16 4.7-3.8 9.3-8.2 11.8-13.6 0.9-2.2 1.9-4.8 4.3-5.5 3.7-0.9 7 2.7 9.7 4.5 3.3 2.1 7 0.7 10.2 3.1"/><path class="al" d="m1058.9 489c-5.2-3.3-11.8-4.2-18-3.1-6.1 1.1-11.7 4-16.4 7.9-7.1 5.7-12.3 13.5-14.8 22 6.4-9.2 15.3-16.8 26.2-20.8 11.7-4.3 28.1-5 39.5 0"/><path class="aj" d="m1192 550q-3.2-23.6-7.4-47c-5.7-31.4-13-63.2-28.6-91.6-9.6-17.5-12.9-29.5-28.4-52.6 17.5 14.8 32 31.9 42 49.6 24.8 43.8 33.4 89.9 35.5 139.5"/><path class="aj" d="m1131.7 569.5c-3.7-8.8-4.9-18.2-5.5-27.6-2.4-40.3 7.4-81.2 28-116.7-7.4 26.3-24.3 101.4 2.3 158.9"/><path class="aj" d="m1144.9 547.8c1.5-19.7 7.1-39.2 16.1-57-5.7 19.2-8.4 39.2-7.8 59.1"/><path class="ak" d="m1202.3 517.4c-10.8-56.2-46.7-107.8-97.1-139.6 31.7 10.1 58.6 31.5 77.7 57.4 19.2 25.9 30.9 56.1 37.7 87"/><path class="aj" d="m1202.9 505.8c-2.2-51.2-21.8-111.6-48.7-156.1 34.4 39.3 56 88.5 61.1 139.2"/><path class="ai" d="m1160.3 462.5c-0.7-2.7 0.1-5.5 0.4-8.2 1.3-11.9-6.7-22.8-8.9-34.6-3.2 6.3-1.3 13.9 1.4 20.5 2.8 6.5 6.4 13 6.4 20.1"/><path class="ai" d="m1175.6 499.2c-0.1-3.9-0.6-7.7-1.5-11.5-0.2-0.8-0.4-1.6-0.9-2.2-0.5-0.8-1.3-1.4-2.1-1.9-3.5-2.4-7.6-5-11.9-4.2-1.5 0.3-2.8 1-4.1 1.8-3.7 2.1-7 4.7-10.3 7.3q-3.4 2.6-6.8 5.3c3.6 0 7.2-0.1 10.7-0.9 2.4-0.6 4.8-1.5 6.9-2.8 2.4-1.6 4.3-3.7 6.7-5.1 2.5-1.4 5.8-2.1 8.2-0.6 2.3 1.4 3 4.3 3.2 6.8 0.2 2.6 0.3 5.4 1.9 7.5"/><path class="ai" d="m1118.6 397.9c-0.4-3.3-2.2-5.8-3.9-7.2-1.7-1.5-4.4-1.6-6.7-1.5-1.2 0-2.5 0.1-3.4 0.8-0.5 0.3-0.9 0.8-1.2 1.3q-0.9 1.3-1.8 2.6c-2.6 3.9-5.3 7.8-6.5 12.2 4-2.8 8.1-5.7 10.2-9.8 0.7-1.3 1.2-2.7 2.2-3.8 3.3-3.8 9.2-1.7 10.2 2.7"/><path class="ai" d="m1140.4 428.9c-0.6-2-0.6-4.2 0-6.2 0.3-0.9 0.7-1.9 0.8-2.8 0.2-2.7-1.9-5.1-3.9-7-1.5-1.4-3-2.9-4.9-3.6-1.2-0.5-2.6-0.6-3.9-0.8q-6.2-0.7-12.4-1.3c1.8 2.5 4.8 4.2 7.9 5.3 3.1 1 6.3 1.5 9.5 2.4 1.8 0.5 3.7 1.1 5.1 2.4 2.9 2.8 0.2 6.4 0.9 9.7"/><path class="aj" d="m1191.8 558.2c-11.8-64-41.4-124.1-83.7-173.4-12.3-14.4-25.7-28.4-40.3-40.5-0.4-0.3-0.9 0.2-0.6 0.5 24.5 22.6 46.9 46.6 65.7 74.2 18.3 27 33.3 56.3 44.1 87.1 6 17 10.8 34.5 14.2 52.2 0.1 0.5 0.7 0.3 0.6-0.1z"/><path class="aj" d="m1084.6 360.4c-1.5-0.3-3.1-0.6-4.4-1.4-0.6-0.5-1.2-1-1.8-1.5-2.2-1.9-4.8-3.2-7.4-4.4q-4.2-2.1-8.5-4.1 5 4.5 10.5 8.4c1 0.7 1.9 1.4 3 1.8 1.8 0.7 3.8 0.8 5.7 0.8"/><path class="aj" d="m1074 350.1q-3.7-3.2-7.4-6.4c-1-0.9-2-1.8-3.1-2.6-1.2-0.9-2.4-1.7-3.6-2.5-4.5-3.4-7.8-8.1-9.2-13.3 1.3 1.1 2.2 2.4 3.4 3.6 2.4 2.3 5.6 3.8 7.6 6.4 2.2 2.6 3 6 5.2 8.5"/><path class="aj" d="m1103.7 379.6q-1.8-3.1-3.6-6.1-0.3-0.5-0.5-0.9-3.9-6.6-7.8-13.2c-0.8-1.3-1.6-2.7-1.6-4.3q3 3.2 6.1 6.5c1.7 1.7 3.4 3.5 3.8 5.8 0.3 1.3 0.1 2.6 0.2 3.9 0 1.2 0.3 2.6 1.2 3.6"/><path class="aj" d="m1108.2 385.8q-2.9-1.5-5.7-3.1c-0.6-0.3-1.1-0.6-1.7-0.7-0.7-0.1-1.5 0-2.2 0.1q-10.3 1.6-20.5 3.7c-0.2 0.1-0.4 0.1-0.5 0.3-0.2 0.2-0.1 0.5 0.2 0.7 0.2 0.2 0.5 0.2 0.8 0.2q5.2 0.3 10.4 0.2c0.8-0.1 1.6-0.1 2.4-0.3 1.1-0.2 2-0.8 3-1.3 2.1-1 4.4-1.7 6.7-2.1 0.7-0.1 1.5-0.1 2.1 0.3"/><path class="aj" d="m1116.7 396.2c-5.4-1.4-11.1-1.5-16.5-0.4-1.4 0.3-2.9 0.6-4.1 1.4-0.9 0.5-1.6 1.3-2.3 2.1q-1.7 1.7-3.5 3.4c-2.1 2.2-4.2 4.4-6 6.8 0.3 0.3 0.8 0.1 1.2-0.1 3.1-1.7 5.6-4.4 8.5-6.4 5.5-3.9 12.3-5.6 18.9-7.3"/><path class="aj" d="m1132.8 418.3c-1.2-0.9-2.6-1.5-4-2.1-4.5-1.8-9.5-2.9-14.3-1.7-1.5 0.3-2.9 1-4.3 1.6q-8.8 3.7-17.5 7.4c4.1 0.2 8.2 0.3 12.1-0.9 3-0.9 5.7-2.5 8.7-3.2 2.4-0.6 5-0.5 7.3-1.3 1.1-0.4 2.1-1 3.1-1.3 2.1-0.6 4.4-0.3 6.2 0.8"/><path class="aj" d="m1145.7 438c-2.6-2.3-7.1-3.2-10.5-4.3-4-1.3-8.2-1.6-12.3-2.6-6.8-1.6-13.4-4.7-20.4-4.4 7.3 7.2 18.1 11.3 28.7 10.9 4.2-0.2 9.9-1.9 13.7 0"/><path class="aj" d="m1160.6 465c-7.8-4.1-18.8-9.8-28.1-7.4-4.4 1.2-8.4 4-10.1 7.9-2.7 6 0 13.1-2.1 19.2 4.4-5.3 8.5-11.2 10-17.9 0.5-2.6 1-5.8 3.6-7 3.9-1.9 8.5 1.5 12 2.9 4.1 1.7 8-0.6 12.1 1.3"/><path class="aj" d="m1136.7 554.3c-12.4-23.8-31.6-44.5-55-59.2-6.5-4.1-13.4-7.8-20.9-9.7-7.6-1.9-15.9-1.8-23 1.3 22.1 4.1 46.9 21.2 62.8 40 8.4 10.1 14.2 21.8 19.9 33.3"/><path class="ai" d="m1105.2 562.1c0.1-37.5-17.6-78.6-40-107.7 18.6 13.1 31.9 32.1 40.1 52.5 8.1 20.5 11.5 42.4 12.6 64.3"/></g></g></svg>