<svg version="1.2" xmlns="http://www.w3.org/2000/svg" viewBox="0 0 1194 323" width="1194" height="323"><defs><clipPath clipPathUnits="userSpaceOnUse" id="cp1"><path d="m1193.26-440.69v763.38h-1192.52v-763.38z"/></clipPath><linearGradient id="P" gradientUnits="userSpaceOnUse"/><linearGradient id="g1" x2="1" href="#P" gradientTransform="matrix(0,-317.894,1287.366,0,550.408,331.699)"><stop offset=".21" stop-color="#77d3c4"/><stop offset="1" stop-color="#004d68"/></linearGradient><linearGradient id="g2" x2="1" href="#P" gradientTransform="matrix(1209.437,0,0,70.147,-75.169,122.185)"><stop offset=".21" stop-color="#77d3c4"/><stop offset="1" stop-color="#388c93"/></linearGradient><linearGradient id="g3" x2="1" href="#P" gradientTransform="matrix(1331.607,0,0,61.315,-112.679,201.308)"><stop offset=".42" stop-color="#84e2c4"/><stop offset="1" stop-color="#388c93"/></linearGradient><linearGradient id="g4" x2="1" href="#P" gradientTransform="matrix(836.522,0,0,25.176,-77.158,44.858)"><stop offset=".21" stop-color="#77d3c4"/><stop offset="1" stop-color="#388c93"/></linearGradient><linearGradient id="g5" x2="1" href="#P" gradientTransform="matrix(569.417,0,0,18.757,594.044,30.172)"><stop offset=".21" stop-color="#77d3c4"/><stop offset="1" stop-color="#388c93"/></linearGradient><linearGradient id="g6" x2="1" href="#P" gradientTransform="matrix(965.878,0,0,91.944,459.127,255.433)"><stop offset=".21" stop-color="#d9ffcc"/><stop offset="1" stop-color="#99f2ac"/></linearGradient><linearGradient id="g7" x2="1" href="#P" gradientTransform="matrix(0,-48.849,174.806,0,298.422,201.308)"><stop stop-color="#3a8e95"/><stop offset="1" stop-color="#004d68"/></linearGradient><linearGradient id="g8" x2="1" href="#P" gradientTransform="matrix(0,-21.899,71.546,0,213.129,103.7)"><stop stop-color="#083a57" stop-opacity=".2"/><stop offset="1" stop-color="#131f3f" stop-opacity="1"/></linearGradient><linearGradient id="g9" x2="1" href="#P" gradientTransform="matrix(0,-35.021,101.192,0,1025.406,142.857)"><stop stop-color="#083a57" stop-opacity=".2"/><stop offset="1" stop-color="#131f3f" stop-opacity="1"/></linearGradient><linearGradient id="g10" x2="1" href="#P" gradientTransform="matrix(272.263,0,0,121.184,-60.36,138.158)"><stop stop-color="#083a57" stop-opacity=".2"/><stop offset="1" stop-color="#131f3f" stop-opacity="1"/></linearGradient><linearGradient id="g11" x2="1" href="#P" gradientTransform="matrix(0,-142.374,95.541,0,-43.297,415.104)"><stop offset=".43" stop-color="#68c3b8"/><stop offset="1" stop-color="#2e818b"/></linearGradient><linearGradient id="g12" x2="1" href="#P" gradientTransform="matrix(0,-43.629,50.818,0,124.109,316.359)"><stop offset=".43" stop-color="#68c3b8"/><stop offset="1" stop-color="#2e818b"/></linearGradient></defs><style>.a{fill:url(#g1)}.b{opacity:.3;fill:url(#g2)}.c{opacity:.3;fill:url(#g3)}.d{fill:url(#g4)}.e{opacity:.3;fill:url(#g5)}.f{opacity:.3;fill:url(#g6)}.g{fill:url(#g7)}.h{fill:#060c2c}.i{fill:#112842}.j{fill:#cc6148}.k{fill:url(#g8)}.l{fill:url(#g9)}.m{fill:url(#g10)}.n{fill:url(#g11)}.o{fill:url(#g12)}.p{fill:#105755}.q{fill:#003848}.r{fill:#106a55}.s{fill:#14665e}</style><g clip-path="url(#cp1)"><path class="a" d="m-54 13.8h1287.3v317.9h-1287.3z"/><path class="b" d="m-28.9 122.2c4.5 0 1163.2 24.8 1163.2 24.8 0 0-825.5 11.9-822.1 10.4 3.4-1.5 364.2 12.9 364.2 12.9l-751.6 22"/><path class="c" d="m-40.6 262.6l830.5-14.3-431.7-15.6 860.7-31.1c0 0-1167.7-0.3-1172.3-0.3l315.5 17.3-474.8 17.8 485 8.7z"/><g style="opacity:.3"><path class="d" d="m-34.5 44.9c127 3.4 546.4 4.6 546.4 4.6l-141.2 11.2 388.7 6.6c0 0-628.7 2.9-836.6 2.7"/></g><path class="e" d="m987.8 30.2h-393.8l222.6 6.8-132.3 6.9 479.2 5z"/><path class="f" d="m1252.6 255.4l-361.2 9.8 223.9 15.8-656.2 66.4 965.9-24.7z"/><path class="g" d="m217.8 161.6q0.3 1.2 0.6 2.4c10.4 3.7 21.6 4.2 32.5 4.6-5.8 1.1-11.6 2.8-17 5.1-0.2 1.4 1.3 2.3 2.6 2.4 1.4 0.1 2.7-0.3 4.1-0.3 3.3 0.2 5.4 3.5 7.6 6.1 4.4 5.4 11.2 8.7 18.1 9.2 2.7 0.1 5.8 0 7.8 1.8 1.2 1.2 1.7 2.9 2.8 4.2 1.8 1.9 4.5 2.4 7.1 2.8 17 2.2 34.4 1.8 51.3-1.1 1.9-0.3 3.8-0.7 5.2-2 1.4-1.3 1.8-3.8 0.3-5-0.6-0.6-1.7-0.8-2-1.7-0.5-1 0.5-2.1 1.5-2.5 1.1-0.4 2.2-0.4 3.3-0.8 3.2-1.2 2.3-4.8 4.2-7 2.1-2.2 6.2-2.8 9-3.2q5.6-0.9 11.3-1.2c3.8-0.2 8.2-0.6 10.2-3.8q-7.5-0.9-14.9-1.8c2-2.5 5.8-2.1 9-1.9 4.1 0.4 8.4 0.2 12.3-1.3 1.2-0.5 8.2-6.8 7.9-6.9-31.6-3.5-63.4-5.9-95.2-7.2"/><path class="h" d="m383.5 143c-2.6-0.8-29.7-6.4-33.7-7.2-3.9-0.8-8.5-13.5-10.5-17.4-2-4-16-11.2-21.3-12-5.3-0.7-53.3 4.8-55.9 8-2.7 3.2-6.8 18.2-6.8 18.2 0 0-12.4 4-17 6.4-4.6 2.4-21.7 22.2-21.7 22.2h31.6 143.9c0 0-6-17.4-8.6-18.2z"/><path class="i" d="m334.3 123.1l-32.4 1.5 37.4 3.2-29.5 2.7 32.1 1.9-18.2 1.4 25.2 1.5c-3.7-2.3-7.8-13.3-9.6-16.9-0.5-1-1.7-2.1-3.3-3.3l-13.7-1.4-19.1-3.3-41.1 4 13.8 5.4z"/><path class="j" d="m388.8 152.4c-1.8-4.5-4-9-5.3-9.4-2.6-0.8-29.7-6.4-33.7-7.2l-107.1 3.3c0 0 137.1 14.1 146.1 13.3z"/><path class="i" d="m242.7 139.1c27.2-0.1 120.8 2.6 120.8 2.6l-35.9 3.3 55.3 7.1c0 0-70.3 3.3-97.3 2.6l20.5-3.9-41.1-3.8 30.6-1.8z"/><path class="j" d="m280.8 117.7l38.4 0.2-12 3.1 32.1-2.6c-2-4-16-11.2-21.3-12-5.3-0.7-53.3 4.8-55.9 8 0 0 46.5-0.7 47.5-0.7 0.9 0-28.8 4-28.8 4z"/><g style="opacity:.3;mix-blend-mode:multiply"><path class="k" d="m221 83.4q-16.6 1-33.1 2c-2.5 0.2-5.1 0.4-7.2 1.7 6.2 2.7 12.9 3.3 19.6 3.9q8.4 0.7 16.8 1.4c-3.4 2.5-8.8-0.4-12.5 1.9 2 1.1 4.2 1.7 6.5 1.7 1.2-0.1 2.4-0.2 3.5 0.3 0.7 0.4 1.3 1.1 2 1.5 2.1 1.2 4.9-0.1 6.8 1.3 0.5 0.4 0.9 0.9 1.4 1.4 0.6 0.5 1.3 0.8 2.1 1.1 6 2.3 12.7 2.7 19 1.1 1.4-0.3 3.1-1.3 2.7-2.7-0.1-0.6-0.7-1.1-0.8-1.7-0.1-1.2 1.4-1.9 1.6-3.1 0.2-1.3-1.3-2.2-2.5-2.4-1.3-0.3-2.8-0.3-3.6-1.4 1.2-2.4 5.9-0.2 7.1-2.6 0.2-0.4 0.2-0.8 0.5-1.2 0.4-0.5 1.3-0.8 1.4-1.4 0-0.7-0.7-1-1.3-1.2-5.3-1.8-10.8-2.8-16.3-3.2"/></g><path class="h" d="m246.1 75.2c-0.6-2.7-2.3-7.5-2.3-7.5 0 0-10.5-3.8-15.4-2.8-2.9 0.6-9 5.3-11.7 6.4l-13.2 1.3c-4.9 2.5-23.4 13.3-23.4 13.3h72.8c0 0-3-10.6-6.8-10.7z"/><path class="i" d="m247.3 78.2l-1.2-3-42.6-2.6c0 0 1.9 3.1 3.4 3.6 1.4 0.5 12.4 2.8 12.4 2.8h7.8l-5.8 1c0 0 12.4 2.3 13.5 2.3 1 0 9 0.7 9 0.7l7.5-1.6z"/><path class="j" d="m244.6 76.7l-19 0.5 18.2 1.2-10.9 0.9 7.4 2.1h11c-1.2-2.9-3.1-6.1-5.2-6.2l-36.4-2.2z"/><path class="j" d="m239.4 67.9l-3.3 1.1 5.7 0.5 2-1.8c0 0-10.5-3.8-15.4-2.8 0.4-0.1 3.9 2.8 4.5 3 0.6 0.1 6.5 0 6.5 0z"/><g style="opacity:.3;mix-blend-mode:multiply"><path class="l" d="m989.7 109.1c-3.1 1.5-6.1 3.5-8.8 5.9 1.9 0.2 3 2.7 4.5 4.2 3 2.8 7.4 1.3 11 2.8 0.1 1-0.9 1.6-1.7 1.7-0.8 0.1-1.8 0.1-2.3 0.8-0.8 1.1-0.2 2.7 0.5 3.7 2.2 3.2 5.8 4.9 9.1 4.4-0.6 2.3 0.8 4.9 2.6 6 1.7 1 3.8 1 5.8 0.9 3-0.1 6-0.3 9-0.3 1.2 0 2.6-0.2 3.8 0 0.4 0.1 2.4 1.3 2.6 1.3q-1.2 0.4-2.3 0.9c-0.4 0.1-0.9 0.5-0.8 0.9 0.1 0.4 0.4 0.5 0.7 0.5 2.6 0.2 5.2-0.2 7.6-1.2 0.2-0.1 0.4-0.2 0.5-0.4 0.2-0.5-0.3-1-0.8-1.1-0.4-0.1-1-0.2-1.1-0.8 2.4-1.8 4.8 0.2 4.6-3.9-0.1-3.2 2.8-5.2 5.2-6.4q-3.9-1.4-8-2.1c4.1-1.5 8.5-1 12.8-1.2 4.3-0.2 8.9-1.4 11.7-5.3-4.3-1.2-8.7-1.8-13.1-1.6 0-1.1 1.1-1.4 2-1.5 12.5-0.3 25.5 3 37.3-2.3-14.1-3.3-28.2-5.7-42.5-7.2"/></g><path class="h" d="m992.3 94.6c0.9-4.8 3.6-13.2 3.6-13.2 0 0 17.1-6.6 25.2-4.8 5.9 2.4 11 11.9 15.4 13.8l14.9 2.6c8.1 4.3 30.3 20.1 30.3 20.1h-100.6c0 0 5-18.4 11.2-18.5z"/><path class="i" d="m990.3 99.8l2-5.2 59.1-1.6c0 0-5.6 3.8-8 4.6-2.4 0.9-7.6 3.6-7.6 3.6h-12.6l9.3 1.7c0 0-20.1 3.9-21.8 3.9-1.8 0-14.8 1.2-14.8 1.2l-12.1-2.7z"/><path class="j" d="m994.6 97.1l31 0.9-29.7 2.1 17.8 1.6-12 3.6h-17.9c2-5 5-10.6 8.5-10.7l49.1-1z"/><path class="j" d="m1003.1 81.8l5.4 2-9.2 0.9-3.4-3.3c0 0 17.1-6.6 25.2-4.8-0.7-0.1-6.4 5-7.4 5.2-1 0.1-10.6 0-10.6 0z"/><path class="h" d="m-60.4 138.6h272.3l-52.5-33.3-18.9-29.9-65.8-12.4-10.7-12.4-114-38.3z"/><g style="opacity:.3;mix-blend-mode:multiply"><path class="m" d="m-60.4 138.2c0 0 270.7 0 272.3 0-4.7 0-9.6 5.8-13 8.5-3.6 2.8-9.5 6.5-13.9 7.9-1.7 0.5-3.5 0.4-5.2 0.6-3.9 0.5-7.7 2-10.8 4.5 0.8 1.8 3.2 1.7 5.1 2 1.9 0.4 4 2.4 2.7 3.9-0.5 0.5-1.2 0.6-1.9 0.7-16.1 2.2-32.8-1.2-48.5 2.7-1.1 0.3-2.4 1-2.2 2 0.1 1 1.3 1.4 2.3 1.5q15.5 1.9 31 3.7c0.1 3.2-5.2 5.4-3.9 8.3 0.7 1.6 3.2 2.3 3.1 4-0.1 1.4-1.7 1.9-3 2.3-8.2 2.4-10.2 11.2-17.9 12.6q-18.5 3.2-37.3 4.9c-9.6 0.8-20 1.7-27 8.2-2.4 2.1-4.3 4.8-6.7 7-5.6 4.8-13.4 5.8-20.7 7.3-21 4.2-40.5 13.3-60.6 20.4-8.6 3-22.2 9.5-31.4 7.9-9.5-1.6-3.9-9.6-3.9-16.3 0.1-29.3-4.9-59.5-7.3-88.8q-0.6-7.9-1.3-15.8z"/></g><path class="i" d="m140.5 75.4l-24.7 5.1h-43.3-23.1l18.4 10.3 35.2 3-17.4 1-21.5-0.5 23.9 8.8 21.8 1 30.9 2.5-40.7 2.6 39.9 2.6 19.5-6.5z"/><path class="i" d="m74.7 63l-10.7-12.4-74.8-2.8 58.8 11.2-45.1 1.7z"/><path class="i" d="m-3 100.1l38.4 5.1-20.4 3.5 46.5 7.4 25.6 10.6-18.4-16.8-28.8-9.8z"/><path class="j" d="m159.4 105.3l-19.5 6.5h23.3l-8 3.4 56.7 23.4z"/><path class="j" d="m140.5 75.4l-65.8-12.4c0 0-46.1-1.5-44.9-1.4 1.2 0 44.9 4.6 44.9 4.6l-25.2 2.3 54.2 6.9z"/><path class="j" d="m-12.4 24.9l76.4 25.7-65.3-2.4 36.3-2.9z"/><path class="n" d="m35.5 272.7c1.3 1.1 4.3 1.3 5.6 2.4-3.7-0.2-6.5 4.9-4.3 7.9-0.8-1.1-3 4.8-3.1 4.9-1.9 2.2-5.5 1.7-8.2 1.7-2.9 0-5.7 0.5-8.4 1.5-0.7 0.3-1.5 0.8-1.4 1.5 0.1 0.8 1 1 1.8 1.1q8.8 1 17.6 2.1c-0.4 1.3-2.2 1.4-3.6 1.5-1.4 0-3.2 1.1-2.7 2.4 0.2 0.3 0.5 0.6 0.9 0.8 1.4 0.6 3 0.2 4.5 0.4 1.5 0.1 3.2 1.5 2.6 2.9-0.5 1.3-2.3 1.3-3.7 1.2-3.2-0.3-6.4 0.4-9.3 1.8 2.6 2.2 6.6 1.2 9.7 2.5 0.3 0.1 0.7 0.3 0.8 0.6 0.1 0.4-0.1 0.7-0.3 1-1.8 3.2-3.9 6.2-6.4 8.9-0.9 1-1.9 2-3.1 2.5-3 1.2-6.8-0.7-9.5 1.1q4.3 1.7 8.7 3.2c-2.9 1.2-5.6 2.9-7.9 5.1q5.5 0.1 10.9-0.7c1.1-0.2 2.2-0.4 2.9-1.2 0.7-0.7 0.7-2.2-0.3-2.6-0.4-0.2-0.9-0.1-1.2-0.5-0.2-0.4 0.1-0.8 0.3-1.1 1.4-1.9 6.4-4.7 4.9-7.5 5.1-2 6.9-8.2 8.1-13.6q1.9-8.7 3.8-17.4c7.1 16 2 34.6-3.4 51.3q-3.7 11.4-7.6 22.8c9.6-8.2 16.2-19.7 18.3-32.1 0.4-2.3 0.6-4.7 1.9-6.7 1.2-1.9 3.7-3.4 5.9-2.5-6.3-9.5-4.3-22-2.2-33.1 0.4-2 1.8-4.5 3.6-3.7 1 0.5 1.3 1.9 1.3 3.1 0.4 7.4 0.7 14.8 0.7 22.3-0.4 30.7-8.1 61.3-22.4 88.5-3.3 6.2-6.9 12.2-10.6 18.1q7.1-5.3 14.3-10.6c4.4-3.2 8.8-6.5 12.3-10.6 9.7-11.1 12-26.8 13.6-41.5 0.5-4.9 1.3-10.2 5.1-13.3-2.5-0.6-4.8-2.1-6.4-4.1 3-2.2 6.3-4 9.7-5.5-2-3.2-3.7-6.6-4.9-10.2q13.3-4.4 26.5-8.9c-5.9-2.2-12-3.7-18.3-4.5 1.1-6.7-0.1-13.8-3.2-19.9q2.6-1.7 5.2-3.5c4.3 5.2 4.7 12.4 4.9 19.1 0.5 20.4-0.4 40.8-2.5 61.1 2.7-0.4 4-3.4 4.7-6.1 1.2-4 3.1-8 3.6-12.2 0.5-5.4 0.8-11 1.2-16.5 0.1-1.8 0.3-3.8 1.4-5.3 1.1-1.6 3.3-3 2.7-4.9-0.7-1.9-4.2-2.7-3.4-4.6 0.3-0.7 1.1-1 1.8-1.2q5.8-1.6 11.6-3.3c-2-2.3-5.6-2.4-8.6-2.5-3.1-0.1-6.7-0.8-7.9-3.6-0.5-1.1-0.5-2.3-0.4-3.5 0-9.3 1.1-16.9 0.5-26.3"/><path class="o" d="m117.4 272.7c2.2 17.1 9.9 33.5 23.7 43.7 0.9-0.9 0.1-2.4-0.6-3.4-5.5-7.5-9-16.4-10-25.6 3.6 7 9.2 14 17 14.8 6.6 0.7 13-3.7 16.4-9.4 3.4-5.8 4.2-12.7 4.3-19.3-1.8 4.4-4.2 8.6-7 12.4-2.1 3-4.6 5.8-7.9 7.4-6.3 3.1-14.7 0.6-18.3-5.4 3.9 0.5 7.9 0 11.4-1.5-5.9-0.8-11.8-2.3-17.4-4.5q2.2-0.9 4.4-1.9c-2.1-0.8-1.4-5.2-0.7-7.3"/><path class="p" d="m148.5 239.2c7.9 1.7 15 6.9 19 13.9-1.2-4.9-4.4-9.2-8.8-11.8"/><path class="q" d="m90.3 272.7c0.2-21.9-2.4-25.3 0.9-47 3.2-21.7 13.6-43.9 32.9-54.3-19.1 35.4-29.5 61.1-29.9 101.3"/><path class="q" d="m77.8 272.7c-17.6-51.2-13.6-97.1 10.6-145.6-2.3 14.2-3 25.4-5.5 36.2-6.8 29.2-4.5 79.9 0.6 109.4"/><path class="r" d="m117.6 272.7c-0.7-14.5-1.4-24.8 0.9-39.2 2.3-14.3 7.7-28.6 18-39.4-10.9 25.3-13.4 52-7 78.6"/><path class="p" d="m35.5 272.7c-4.5-49.1-17.6-86.7-38.6-131.4 31.7 40.1 47.6 80.5 43.6 131.4"/><path class="q" d="m39.1 272.7c12.1-75.8-6.1-130.4-27.2-187.9 38.7 61.3 50.5 114.4 44.2 187.9"/><path class="q" d="m123.8 272.7c-0.2-5.1 0.3-23 10.3-29.8 7.8-5.3 18.4-6.1 26.2-0.7-8.5-2.5-18.2-1.4-23.3 5.5-4.3 5.9-4.3 17.8-4.3 25"/><path class="p" d="m99 176c0.1-1.8-0.8-3.5-1.3-5.2-2.3-7.5 1.1-15.5 0.9-23.3 2.8 3.7 2.6 8.8 1.8 13.3-0.8 4.6-2.2 9.2-1.3 13.7"/><path class="p" d="m94.5 201.4q-0.6-3.7-0.5-7.5c0-0.5 0-1.1 0.2-1.5 0.2-0.6 0.6-1.1 1-1.5 1.8-2 4-4.2 6.7-4.1 0.9 0 1.8 0.2 2.7 0.6 2.5 0.9 4.8 2.1 7.1 3.4q2.4 1.3 4.8 2.6c-2.1 0.4-4.3 0.8-6.5 0.7-1.6 0-3.1-0.3-4.6-0.9-1.6-0.7-3-1.9-4.7-2.5-1.7-0.6-3.8-0.6-5 0.6-1.2 1.2-1.3 3.1-1.1 4.8 0.2 1.7 0.6 3.5-0.1 5"/><path class="p" d="m115.9 129.5c-0.2-2.2 0.5-4 1.4-5.1 0.8-1.2 2.4-1.5 3.9-1.8 0.7-0.1 1.5-0.2 2.1 0.1 0.4 0.2 0.6 0.4 0.9 0.7q0.7 0.7 1.4 1.5c2.1 2.1 4.2 4.3 5.5 7-2.7-1.3-5.6-2.7-7.4-5.1-0.6-0.7-1.1-1.6-1.8-2.2-2.5-1.9-5.8 0.1-5.8 3"/><path class="r" d="m106.7 152.1c0.1-1.4-0.2-2.8-0.8-4-0.3-0.6-0.7-1.1-0.8-1.8-0.5-1.7 0.4-3.4 1.4-4.9 0.7-1.1 1.4-2.2 2.5-2.9 0.7-0.5 1.5-0.7 2.2-1q3.7-1.2 7.3-2.4c-0.7 1.9-2.3 3.3-4 4.4-1.7 1-3.6 1.8-5.4 2.7-1.1 0.5-2.2 1.2-2.8 2.2-1.4 2.1 0.7 4.1 0.7 6.3"/><path class="q" d="m92.9 241.3c-0.3-23.3 2.4-46.5 8.3-68.9 6-22.8 15.6-43.6 26.6-64.2 0.2-0.5-0.4-0.9-0.7-0.4-12.5 19.4-21.2 42-27 64.2-5.9 22.6-8.6 46-7.9 69.3 0 0.4 0.7 0.4 0.7 0z"/><path class="q" d="m123.4 115.9c0.8-0.4 1.7-0.8 2.4-1.4 0.4-0.4 0.6-0.8 0.9-1.2 1.1-1.5 2.5-2.6 3.9-3.8q2.3-1.8 4.6-3.6-2.4 3.5-5.2 6.7c-0.5 0.6-1 1.1-1.6 1.5-1 0.7-2.2 1-3.4 1.2"/><path class="q" d="m125.6 112.1q1.9-2.5 3.7-5c0.5-0.7 1-1.4 1.5-2 0.6-0.7 1.3-1.4 1.9-2.1 2.2-2.7 3.6-6.1 3.8-9.6-0.6 0.8-1 1.8-1.6 2.7-1.1 1.8-2.8 3.1-3.8 5-0.9 1.9-1 4.2-2 6.1"/><path class="q" d="m122.5 115.9q0.7-2.2 1.4-4.3 0.1-0.4 0.2-0.7 1.5-4.7 3-9.4c0.3-0.9 0.6-1.9 0.4-2.9q-1.4 2.4-2.9 4.9c-0.8 1.3-1.5 2.7-1.5 4.2 0 0.8 0.2 1.6 0.4 2.5 0.1 0.8 0.1 1.7-0.3 2.4"/><path class="q" d="m120.6 120.5q1.5-1.4 3-2.7c0.3-0.3 0.6-0.5 1-0.7 0.4-0.2 0.8-0.2 1.3-0.2q6.4-0.2 12.9-0.1c0.1 0 0.2 0 0.3 0.1 0.1 0.1 0.1 0.3 0 0.5-0.1 0.1-0.3 0.2-0.5 0.2q-3.1 0.8-6.3 1.4c-0.5 0.1-0.9 0.2-1.4 0.1-0.7 0-1.4-0.3-2-0.4-1.4-0.5-2.9-0.6-4.4-0.6-0.4 0.1-0.9 0.1-1.1 0.4"/><path class="q" d="m116.8 128.1c3-1.5 6.5-2.3 9.9-2.2 0.9 0 1.8 0.1 2.6 0.4 0.6 0.2 1.2 0.6 1.7 1q1.3 0.9 2.6 1.9c1.5 1.1 3.1 2.2 4.5 3.5-0.2 0.3-0.5 0.2-0.7 0.1-2.2-0.7-4-2.1-6-3.1-3.8-1.8-8.2-2.1-12.4-2.3"/><path class="q" d="m109.9 144.3c0.6-0.7 1.4-1.3 2.2-1.8 2.4-1.7 5.3-3.1 8.3-2.9 1 0.1 1.9 0.3 2.9 0.5q5.8 1.4 11.5 2.7c-2.4 0.6-4.9 1.2-7.4 0.9-1.9-0.2-3.8-1-5.7-1-1.5-0.1-3.1 0.2-4.6 0-0.7-0.1-1.3-0.4-2-0.4-1.3-0.2-2.7 0.3-3.7 1.3"/><path class="q" d="m104.6 158.5c1.4-1.8 4-2.9 5.8-4 2.3-1.3 4.8-2.1 7.2-3.2 3.9-1.8 7.4-4.6 11.7-5.3-3.5 5.6-9.5 9.5-15.9 10.5-2.6 0.4-6.2 0-8.3 1.6"/><path class="q" d="m99.1 177.7c4.3-3.6 10.2-8.6 16.1-8.2 2.8 0.2 5.5 1.5 7.1 3.9 2.4 3.5 1.7 8.3 3.8 12-3.4-2.9-6.6-6.2-8.4-10.3-0.7-1.6-1.4-3.5-3.1-4-2.6-0.8-4.9 2-6.8 3.3-2.3 1.6-5 0.6-7.2 2.3"/><path class="p" d="m144.3 195.6c0.4-2.1-0.3-4.2-0.6-6.2-1.4-8.9 3.8-17.4 4.9-26.3 2.6 4.6 1.5 10.4-0.2 15.4-1.7 5-4 10.1-3.7 15.4"/><path class="r" d="m134.8 223.7q-0.1-4.4 0.7-8.7c0.1-0.6 0.2-1.2 0.5-1.7 0.4-0.6 0.9-1.1 1.4-1.5 2.4-2 5.2-4 8.3-3.6 1 0.2 2 0.7 3 1.2 2.6 1.5 5.1 3.3 7.5 5.1q2.5 1.9 5 3.8c-2.5 0.1-5.1 0.2-7.6-0.3-1.7-0.3-3.4-0.9-4.9-1.9-1.8-1-3.2-2.6-5-3.6-1.8-1-4.2-1.3-5.8-0.1-1.6 1.1-2 3.3-2 5.2-0.1 2 0 4.1-1.1 5.7"/><path class="r" d="m171.3 145.5c0.1-2.5 1.4-4.4 2.5-5.6 1.2-1.2 3-1.3 4.7-1.3 0.8 0 1.8 0 2.4 0.5 0.4 0.2 0.7 0.6 0.9 0.9q0.7 1 1.4 1.9c2 2.8 4 5.6 5 8.9-2.9-1.9-5.9-3.9-7.6-7-0.5-0.9-0.9-2-1.6-2.8-2.5-2.7-6.6-0.9-7.1 2.5"/><path class="p" d="m157.1 169.6c0.3-1.5 0.2-3.1-0.3-4.6-0.2-0.7-0.5-1.4-0.6-2.2-0.3-2 1.1-3.8 2.5-5.3 0.9-1.2 1.9-2.3 3.3-2.9 0.8-0.4 1.8-0.6 2.7-0.7q4.3-0.8 8.7-1.5c-1.2 2-3.2 3.4-5.3 4.3-2.2 0.9-4.5 1.4-6.7 2.1-1.3 0.4-2.6 1-3.5 2-1.9 2.2 0.1 4.8-0.3 7.3"/><path class="q" d="m126.1 268.6c4.1-31 13.1-61.3 26.8-89.5 13.6-28 31.7-52.5 52.7-75.3 0.3-0.3-0.1-0.7-0.4-0.4-44.3 43-72.2 104.4-79.6 165.2-0.1 0.4 0.4 0.4 0.5 0z"/><path class="q" d="m194 116.1c1-0.3 2.1-0.6 3-1.2 0.4-0.4 0.8-0.8 1.2-1.2 1.5-1.5 3.3-2.5 5.1-3.6q2.9-1.7 5.8-3.4-3.3 3.6-7.1 6.8c-0.6 0.5-1.3 1.1-2.1 1.4-1.2 0.6-2.6 0.7-3.9 0.8"/><path class="q" d="m201.1 108q2.4-2.5 4.9-5.1c0.7-0.7 1.4-1.4 2.1-2 0.8-0.7 1.7-1.4 2.5-2.1 3-2.6 5.2-6.3 6-10.3-0.9 0.9-1.5 1.9-2.3 2.8-1.6 1.9-3.8 3.1-5.1 5.1-1.4 2-1.9 4.6-3.4 6.6"/><path class="q" d="m181.1 131.2q1.2-2.3 2.4-4.7 0.1-0.4 0.3-0.7 2.5-5.1 5-10.1c0.5-1.1 1-2.2 1-3.4q-2.1 2.6-4.1 5.1c-1.1 1.4-2.2 2.8-2.5 4.6-0.1 0.9 0 1.9 0 2.8 0.1 1-0.1 2-0.7 2.8"/><path class="q" d="m178.2 136.1q2-1.3 4-2.6c0.3-0.2 0.7-0.5 1.1-0.6 0.5-0.1 1 0 1.5 0q7.4 0.9 14.7 2.1c0.1 0 0.3 0.1 0.4 0.1 0.1 0.2 0 0.5-0.1 0.6-0.2 0.1-0.4 0.2-0.6 0.2q-3.7 0.4-7.4 0.5c-0.5 0-1.1 0-1.7-0.1-0.7-0.2-1.4-0.5-2.1-0.9-1.6-0.7-3.2-1.1-4.9-1.3-0.5 0-1-0.1-1.4 0.3"/><path class="q" d="m172.6 144.1c3.7-1.2 7.8-1.5 11.7-0.8 1 0.1 2 0.4 2.9 0.9 0.6 0.4 1.2 0.9 1.7 1.4q1.3 1.3 2.6 2.5c1.6 1.6 3.2 3.2 4.5 4.9-0.2 0.2-0.5 0.1-0.8 0-2.3-1.2-4.2-3.1-6.3-4.6-4-2.7-8.9-3.7-13.6-4.7"/><path class="q" d="m162.1 161.4c0.8-0.7 1.7-1.3 2.7-1.7 3.1-1.6 6.6-2.6 10-1.9 1.1 0.3 2.1 0.7 3.1 1.1q6.4 2.5 12.7 5c-2.9 0.2-5.8 0.5-8.6-0.3-2.1-0.6-4.1-1.7-6.3-2.1-1.7-0.3-3.5-0.2-5.2-0.7-0.7-0.3-1.5-0.7-2.2-0.9-1.5-0.4-3.2-0.1-4.4 0.9"/><path class="q" d="m153.6 176.6c1.8-1.8 5-2.6 7.3-3.6 2.8-1.1 5.8-1.5 8.6-2.4 4.8-1.4 9.3-4 14.3-4-4.9 5.7-12.4 9.1-19.9 9.2-2.9 0-7-1.1-9.7 0.5"/><path class="q" d="m144.1 197.5c5.4-3.4 13-8.1 19.6-6.6 3.2 0.7 6.1 2.7 7.5 5.6 2.1 4.4 0.5 9.8 2.2 14.3-3.3-3.8-6.4-8.1-7.7-13.1-0.5-1.9-1-4.3-2.8-5.1-2.9-1.3-6 1.4-8.4 2.6-2.9 1.4-5.7-0.2-8.6 1.4"/><path class="r" d="m64 138.4c0.1-2.4 1.2-4.5 1.9-6.8 3.3-9.6 0.1-20.4 0.9-30.7-3.5 4.6-3.7 11.3-3.1 17.4 0.5 6 1.7 12.2 0.3 18.1"/><path class="p" d="m67.1 172.3c0.7-3.3 1.1-6.6 1.2-9.9 0.1-0.7 0.1-1.4-0.1-2.1-0.2-0.7-0.6-1.4-1.1-2-1.9-2.8-4.1-5.8-7.2-6-1.1-0.1-2.2 0.2-3.2 0.5-2.9 1-5.7 2.4-8.5 3.9q-2.8 1.5-5.7 3c2.5 0.7 4.9 1.4 7.5 1.5 1.8 0.1 3.6-0.2 5.2-0.8 2-0.8 3.7-2.1 5.7-2.8 1.9-0.7 4.3-0.5 5.7 1.3 1.3 1.6 1.1 4.2 0.8 6.3-0.4 2.2-0.9 4.5-0.2 6.6"/><path class="p" d="m48.5 75.5c0.4-2.8-0.3-5.3-1.2-6.8-0.9-1.7-2.7-2.3-4.3-2.7-0.8-0.2-1.7-0.5-2.5-0.1-0.4 0.2-0.7 0.5-1.1 0.9q-0.8 0.9-1.7 1.8c-2.6 2.6-5.2 5.2-6.9 8.7 3.3-1.5 6.7-3 8.9-6 0.8-0.9 1.4-2 2.3-2.7 3-2.4 6.6 0.6 6.4 4.5"/><path class="r" d="m57.2 106.1c0-1.8 0.4-3.6 1.2-5.1 0.4-0.8 0.8-1.5 1.1-2.3 0.7-2.2-0.3-4.6-1.2-6.6-0.8-1.5-1.5-3.1-2.7-4.1-0.7-0.6-1.6-1.1-2.4-1.5q-4.1-1.9-8.2-3.8c0.7 2.6 2.4 4.6 4.2 6.1 1.9 1.6 4.1 2.7 6 4.1 1.2 0.8 2.4 1.8 3 3.2 1.5 2.9-1 5.3-1.2 8.2"/><path class="q" d="m66.4 225c3.1-35.6 1-71.6-6.1-106.6-6.9-33.9-18.2-68.5-35.7-98.6-0.2-0.4-0.8 0-0.6 0.4 15.6 31.6 28.1 63.9 35.2 98.5 7.1 34.9 9.2 70.7 6.6 106.3-0.1 0.4 0.6 0.4 0.6 0z"/><path class="r" d="m32.8 36.9c-1-0.6-2-1.2-2.7-2.1-0.4-0.5-0.6-1.1-1-1.7-1.1-2-2.6-3.6-4.1-5.3q-2.5-2.6-5-5.2 2.5 4.9 5.5 9.3c0.5 0.8 1 1.6 1.7 2.2 1.1 0.9 2.4 1.4 3.7 1.9"/><path class="q" d="m27.6 26.1q-1.8-3.5-3.7-7c-0.5-1-1-1.9-1.6-2.8-0.6-1-1.3-1.9-2-2.9-2.4-3.8-3.7-8.4-3.6-13.1 0.6 1.2 1.1 2.5 1.6 3.8 1.2 2.4 3 4.4 3.9 6.9 1 2.7 0.8 5.7 1.9 8.2"/><path class="q" d="m42 57.1q-0.6-3-1.2-5.9-0.1-0.5-0.2-0.9-1.3-6.3-2.7-12.6c-0.2-1.3-0.5-2.7-0.2-4q1.4 3.4 2.9 6.7c0.8 1.8 1.5 3.7 1.4 5.7-0.1 1.1-0.4 2.2-0.7 3.3-0.2 1.1-0.3 2.2 0.2 3.2"/><path class="r" d="m42.6 56.5q-1.6-1.9-3.2-3.9c-0.3-0.3-0.7-0.7-1-0.9-0.5-0.3-1-0.3-1.5-0.4q-7.4-0.9-14.8-1.3c-0.2 0-0.3 0-0.4 0-0.2 0.2-0.2 0.5 0 0.7 0.1 0.2 0.3 0.3 0.5 0.3q3.5 1.4 7.1 2.4c0.5 0.2 1.1 0.4 1.7 0.4 0.7 0 1.5-0.3 2.3-0.5 1.6-0.4 3.3-0.5 5-0.2 0.5 0 1 0.2 1.3 0.6"/><path class="q" d="m47.6 73.7c-3.4-2.3-7.3-3.7-11.3-3.9-1-0.1-2-0.1-3 0.3-0.7 0.2-1.4 0.7-2 1.2q-1.6 1.1-3.1 2.1c-1.9 1.4-3.8 2.7-5.5 4.4 0.2 0.3 0.6 0.2 0.9 0.1 2.5-0.7 4.7-2.4 7.1-3.5 4.5-2 9.5-2 14.3-1.9"/><path class="r" d="m54.1 95.6c-0.7-1-1.5-1.8-2.3-2.6-2.7-2.5-5.9-4.5-9.4-4.5-1.1 0-2.2 0.1-3.3 0.3q-6.7 1.3-13.4 2.5c2.7 1 5.5 2 8.4 1.8 2.2-0.1 4.4-0.8 6.6-0.8 1.8 0.1 3.5 0.7 5.3 0.5 0.8-0.1 1.5-0.3 2.3-0.4 1.6 0 3.1 0.7 4.1 2.1"/><path class="r" d="m62.5 130.6c-1.3-2.4-4.2-4.2-6.3-5.8-2.4-1.9-5.3-3.1-7.9-4.8-4.3-2.8-8.2-6.9-13-8.1 3.5 7.6 10.1 13.3 17.4 15.2 2.9 0.8 7.1 0.6 9.4 3"/><path class="r" d="m63.7 140.6c-4.5-5.2-10.9-12.3-17.7-12.3-3.2 0-6.5 1.5-8.5 4.4-3 4.4-2.6 10.9-5.3 15.6 4.1-3.6 8.1-7.6 10.4-12.8 1-2.1 1.9-4.6 3.9-5.1 3-0.7 5.5 3.1 7.6 5 2.5 2.3 5.6 1.3 8 3.8"/><path class="p" d="m65.4 272.7c1.9-42.1-9.2-58.9-31.3-94.7 31.4 35 47.6 47.8 43.7 94.7"/><path class="p" d="m1205.5 200.6c-0.1-2.4 1.1-4.6 1.8-6.9 3.3-9.9-1.5-20.6-1.2-30.9-4 4.8-3.7 11.6-2.6 17.6 1.2 6.1 3.1 12.2 1.8 18.2"/><path class="p" d="m1211.8 234.4c0.6-3.3 0.9-6.7 0.8-10 0-0.7-0.1-1.4-0.3-2.1-0.3-0.7-0.9-1.3-1.5-1.9-2.5-2.7-5.5-5.5-9.3-5.5-1.4 0-2.7 0.4-3.9 0.8-3.5 1.2-6.8 2.9-10.1 4.6q-3.4 1.7-6.7 3.5c3 0.5 6.1 1 9.2 0.9 2.2-0.1 4.4-0.5 6.4-1.3 2.3-0.9 4.4-2.4 6.7-3.2 2.4-0.9 5.3-0.9 7.1 0.8 1.7 1.6 1.7 4.1 1.5 6.3-0.3 2.2-0.8 4.6 0.2 6.7"/><path class="p" d="m1181.7 138.8c0.3-2.9-0.8-5.3-2-6.8-1.2-1.6-3.4-2-5.5-2.4-1-0.1-2.1-0.3-3 0.2-0.5 0.2-0.9 0.6-1.3 0.9q-1 1-2 2c-2.9 2.8-5.9 5.7-7.7 9.2 3.9-1.6 7.9-3.5 10.5-6.6 0.8-1 1.5-2.2 2.5-3 3.5-2.6 8.2 0.1 8.2 4"/><path class="p" d="m1194.6 168.8c-0.1-1.8 0.3-3.7 1.2-5.3 0.4-0.8 0.9-1.5 1.1-2.3 0.8-2.3-0.7-4.6-2-6.6-1-1.5-2-2.9-3.5-3.9-1-0.6-2.1-0.9-3.2-1.2q-5.1-1.6-10.3-3.2c1.1 2.5 3.3 4.4 5.7 5.8 2.5 1.4 5.1 2.3 7.7 3.6 1.5 0.7 3 1.6 3.9 2.9 1.9 2.8-0.9 5.4-0.9 8.4"/><path class="q" d="m1214.9 287.4c1-31.1-2.9-62.1-11.2-92-8.3-29.7-20.7-59.8-38-85.4-0.3-0.4-0.9-0.1-0.7 0.4 15.7 27.3 29.1 54.9 37.6 85.3 8.3 29.8 12.2 60.7 11.7 91.7 0 0.4 0.6 0.4 0.6 0z"/><path class="q" d="m1171.1 120.8c-1.2-0.5-2.5-1.1-3.4-2-0.5-0.4-0.9-1-1.4-1.5-1.5-2-3.5-3.5-5.5-5q-3.2-2.5-6.4-4.9 3.4 4.7 7.4 9c0.7 0.7 1.4 1.4 2.2 2 1.4 0.9 3.1 1.2 4.7 1.6"/><path class="q" d="m1167.9 115.7q-2.6-3.3-5.1-6.7c-0.7-0.9-1.4-1.8-2.2-2.7-0.8-0.9-1.8-1.8-2.6-2.7-3.2-3.6-5.2-8.1-5.5-12.8 0.9 1.1 1.5 2.4 2.3 3.6 1.6 2.4 4 4.2 5.3 6.7 1.4 2.5 1.5 5.6 2.9 8.1"/><path class="q" d="m1172.4 120.8q-1-2.9-2-5.8-0.1-0.5-0.3-0.9-2.1-6.2-4.2-12.5c-0.5-1.2-0.9-2.6-0.6-3.9q2 3.2 4 6.5c1.1 1.7 2.2 3.6 2.2 5.6 0 1.1-0.4 2.2-0.6 3.3-0.2 1.1-0.2 2.3 0.4 3.3"/><path class="q" d="m1175 126.8q-2.1-1.8-4.3-3.6c-0.4-0.3-0.8-0.7-1.3-0.9-0.6-0.2-1.2-0.2-1.8-0.2q-9.1-0.3-18.3-0.2c-0.1 0-0.3 0.1-0.4 0.1-0.2 0.2-0.2 0.5 0 0.7 0.2 0.2 0.5 0.2 0.7 0.3q4.4 1.1 8.8 1.8c0.7 0.2 1.4 0.3 2.1 0.2 1 0 1.9-0.4 2.8-0.6 2-0.6 4.1-0.8 6.1-0.7 0.6 0 1.3 0.1 1.7 0.5"/><path class="q" d="m1180.4 137c-4.3-2-9.2-3.1-14-3-1.3 0-2.6 0.1-3.7 0.5-0.9 0.4-1.7 0.9-2.4 1.4q-1.8 1.2-3.6 2.4c-2.2 1.5-4.4 3.1-6.4 4.8 0.2 0.3 0.7 0.2 1.1 0.1 3-0.9 5.5-2.8 8.4-4.1 5.4-2.4 11.5-2.8 17.4-3.1"/><path class="q" d="m1190 158.5c-0.8-1-1.8-1.7-2.9-2.4-3.5-2.3-7.6-4.1-11.9-3.8-1.3 0-2.7 0.3-4 0.6q-8.1 1.8-16.3 3.6c3.5 0.7 7 1.5 10.5 1.1 2.7-0.2 5.3-1.2 8.1-1.3 2.1-0.1 4.3 0.4 6.4 0 1-0.1 1.9-0.4 2.9-0.5 1.9-0.2 3.8 0.4 5.1 1.7"/><path class="q" d="m1197.5 177.4c-1.8-2.4-5.5-3.9-8.1-5.4-3.2-1.7-6.8-2.7-10.1-4.2-5.5-2.4-10.5-6.2-16.6-7.1 4.9 7.4 13.4 12.6 22.5 14 3.6 0.5 8.8-0.1 11.7 2.2"/><path class="q" d="m1205.3 202.8c-6-4.8-14.3-11.4-22.6-10.8-4 0.2-7.9 2-10.1 5.1-3.4 4.6-2.4 11.1-5.3 16 4.7-3.8 9.3-8.2 11.8-13.6 0.9-2.2 1.9-4.8 4.3-5.5 3.7-0.9 7 2.7 9.7 4.5 3.3 2.1 7 0.7 10.2 3.1"/><path class="s" d="m1058.9 268c-5.2-3.3-11.8-4.2-18-3.1-6.1 1.1-11.7 4-16.4 7.9-7.1 5.7-12.3 13.5-14.8 22 6.4-9.2 15.3-16.8 26.2-20.8 11.7-4.3 28.1-5 39.5 0"/><path class="q" d="m1192 329q-3.2-23.6-7.4-47c-5.7-31.4-13-63.2-28.6-91.6-9.6-17.5-12.9-29.5-28.4-52.6 17.5 14.8 32 31.9 42 49.6 24.8 43.8 33.4 89.9 35.5 139.5"/><path class="q" d="m1131.7 348.5c-3.7-8.8-4.9-18.2-5.5-27.6-2.4-40.3 7.4-81.2 28-116.7-7.4 26.3-24.3 101.4 2.3 158.9"/><path class="q" d="m1144.9 326.8c1.5-19.7 7.1-39.2 16.1-57-5.7 19.2-8.4 39.2-7.8 59.1"/><path class="r" d="m1202.3 296.4c-10.8-56.2-46.7-107.8-97.1-139.6 31.7 10.1 58.6 31.5 77.7 57.4 19.2 25.9 30.9 56.1 37.7 87"/><path class="q" d="m1202.9 284.8c-2.2-51.2-21.8-111.6-48.7-156.1 34.4 39.3 56 88.5 61.1 139.2"/><path class="p" d="m1160.3 241.5c-0.7-2.7 0.1-5.5 0.4-8.2 1.3-11.9-6.7-22.8-8.9-34.6-3.2 6.3-1.3 13.9 1.4 20.5 2.8 6.5 6.4 13 6.4 20.1"/><path class="p" d="m1175.6 278.2c-0.1-3.9-0.6-7.7-1.5-11.5-0.2-0.8-0.4-1.6-0.9-2.2-0.5-0.8-1.3-1.4-2.1-1.9-3.5-2.4-7.6-5-11.9-4.2-1.5 0.3-2.8 1-4.1 1.8-3.7 2.1-7 4.7-10.3 7.3q-3.4 2.6-6.8 5.3c3.6 0 7.2-0.1 10.7-0.9 2.4-0.6 4.8-1.5 6.9-2.8 2.4-1.6 4.3-3.7 6.7-5.1 2.5-1.4 5.8-2.1 8.2-0.6 2.3 1.4 3 4.3 3.2 6.8 0.2 2.6 0.3 5.4 1.9 7.5"/><path class="p" d="m1118.6 176.9c-0.4-3.3-2.2-5.8-3.9-7.2-1.7-1.5-4.4-1.6-6.7-1.5-1.2 0-2.5 0.1-3.4 0.8-0.5 0.3-0.9 0.8-1.2 1.3q-0.9 1.3-1.8 2.6c-2.6 3.9-5.3 7.8-6.5 12.2 4-2.8 8.1-5.7 10.2-9.8 0.7-1.3 1.2-2.7 2.2-3.8 3.3-3.8 9.2-1.7 10.2 2.7"/><path class="p" d="m1140.4 207.9c-0.6-2-0.6-4.2 0-6.2 0.3-0.9 0.7-1.9 0.8-2.8 0.2-2.7-1.9-5.1-3.9-7-1.5-1.4-3-2.9-4.9-3.6-1.2-0.5-2.6-0.6-3.9-0.8q-6.2-0.7-12.4-1.3c1.8 2.5 4.8 4.2 7.9 5.3 3.1 1 6.3 1.5 9.5 2.4 1.8 0.5 3.7 1.1 5.1 2.4 2.9 2.8 0.2 6.4 0.9 9.7"/><path class="q" d="m1191.8 337.2c-11.8-64-41.4-124.1-83.7-173.4-12.3-14.4-25.7-28.4-40.3-40.5-0.4-0.3-0.9 0.2-0.6 0.5 24.5 22.6 46.9 46.6 65.7 74.2 18.3 27 33.3 56.3 44.1 87.1 6 17 10.8 34.5 14.2 52.2 0.1 0.5 0.7 0.3 0.6-0.1z"/><path class="q" d="m1084.6 139.4c-1.5-0.3-3.1-0.6-4.4-1.4-0.6-0.5-1.2-1-1.8-1.5-2.2-1.9-4.8-3.2-7.4-4.4q-4.2-2.1-8.5-4.1 5 4.5 10.5 8.4c1 0.7 1.9 1.4 3 1.8 1.8 0.7 3.8 0.8 5.7 0.8"/><path class="q" d="m1074 129.1q-3.7-3.2-7.4-6.4c-1-0.9-2-1.8-3.1-2.6-1.2-0.9-2.4-1.7-3.6-2.5-4.5-3.4-7.8-8.1-9.2-13.3 1.3 1.1 2.2 2.4 3.4 3.6 2.4 2.3 5.6 3.8 7.6 6.4 2.2 2.6 3 6 5.2 8.5"/><path class="q" d="m1103.7 158.6q-1.8-3.1-3.6-6.1-0.3-0.5-0.5-0.9-3.9-6.6-7.8-13.2c-0.8-1.3-1.6-2.7-1.6-4.3q3 3.2 6.1 6.5c1.7 1.7 3.4 3.5 3.8 5.8 0.3 1.3 0.1 2.6 0.2 3.9 0 1.2 0.3 2.6 1.2 3.6"/><path class="q" d="m1108.2 164.8q-2.9-1.5-5.7-3.1c-0.6-0.3-1.1-0.6-1.7-0.7-0.7-0.1-1.5 0-2.2 0.1q-10.3 1.6-20.5 3.7c-0.2 0.1-0.4 0.1-0.5 0.3-0.2 0.2-0.1 0.5 0.2 0.7 0.2 0.2 0.5 0.2 0.8 0.2q5.2 0.3 10.4 0.2c0.8-0.1 1.6-0.1 2.4-0.3 1.1-0.2 2-0.8 3-1.3 2.1-1 4.4-1.7 6.7-2.1 0.7-0.1 1.5-0.1 2.1 0.3"/><path class="q" d="m1116.7 175.2c-5.4-1.4-11.1-1.5-16.5-0.4-1.4 0.3-2.9 0.6-4.1 1.4-0.9 0.5-1.6 1.3-2.3 2.1q-1.7 1.7-3.5 3.4c-2.1 2.2-4.2 4.4-6 6.8 0.3 0.3 0.8 0.1 1.2-0.1 3.1-1.7 5.6-4.4 8.5-6.4 5.5-3.9 12.3-5.6 18.9-7.3"/><path class="q" d="m1132.8 197.3c-1.2-0.9-2.6-1.5-4-2.1-4.5-1.8-9.5-2.9-14.3-1.7-1.5 0.3-2.9 1-4.3 1.6q-8.8 3.7-17.5 7.4c4.1 0.2 8.2 0.3 12.1-0.9 3-0.9 5.7-2.5 8.7-3.2 2.4-0.6 5-0.5 7.3-1.3 1.1-0.4 2.1-1 3.1-1.3 2.1-0.6 4.4-0.3 6.2 0.8"/><path class="q" d="m1145.7 217c-2.6-2.3-7.1-3.2-10.5-4.3-4-1.3-8.2-1.6-12.3-2.6-6.8-1.6-13.4-4.7-20.4-4.4 7.3 7.2 18.1 11.3 28.7 10.9 4.2-0.2 9.9-1.9 13.7 0"/><path class="q" d="m1160.6 244c-7.8-4.1-18.8-9.8-28.1-7.4-4.4 1.2-8.4 4-10.1 7.9-2.7 6 0 13.1-2.1 19.2 4.4-5.3 8.5-11.2 10-17.9 0.5-2.6 1-5.8 3.6-7 3.9-1.9 8.5 1.5 12 2.9 4.1 1.7 8-0.6 12.1 1.3"/><path class="q" d="m1136.7 333.3c-12.4-23.8-31.6-44.5-55-59.2-6.5-4.1-13.4-7.8-20.9-9.7-7.6-1.9-15.9-1.8-23 1.3 22.1 4.1 46.9 21.2 62.8 40 8.4 10.1 14.2 21.8 19.9 33.3"/><path class="p" d="m1105.2 341.1c0.1-37.5-17.6-78.6-40-107.7 18.6 13.1 31.9 32.1 40.1 52.5 8.1 20.5 11.5 42.4 12.6 64.3"/></g></svg>